M48
; DRILL file {KiCad (5.1.5)-3} date 2021/04/25 1:53:19
; FORMAT={-:-/ absolute / metric / decimal}
; #@! TF.CreationDate,2021-04-25T01:53:19+09:00
; #@! TF.GenerationSoftware,Kicad,Pcbnew,(5.1.5)-3
; #@! TF.FileFunction,NonPlated,1,2,NPTH
FMAT,2
METRIC
T1C1.200
T2C1.700
T3C1.900
T4C3.000
T5C4.000
%
G90
G05
T1
X71.389Y-177.553
X71.634Y-184.549
X73.138Y-177.492
X73.383Y-184.488
T2
X25.827Y-80.474
X26.182Y-90.628
X42.817Y-79.881
X43.172Y-90.035
X59.61Y-79.294
X59.965Y-89.447
X64.666Y-115.106
X66.255Y-125.141
X60.859Y-32.512
X63.489Y-22.698
X35.414Y-138.514
X37.178Y-148.52
X68.897Y-132.61
X70.661Y-142.616
X60.074Y-97.106
X61.136Y-107.21
X89.812Y-135.077
X93.12Y-144.684
X44.998Y-66.121
X47.456Y-56.263
X43.167Y-98.883
X44.229Y-108.987
X85.696Y-168.183
X91.377Y-176.606
X96.378Y-151.556
X101.303Y-160.442
X31.084Y-120.425
X32.674Y-130.46
X105.7Y-166.656
X112.093Y-174.552
X56.685Y-48.476
X59.315Y-38.662
X26.26Y-100.66
X27.322Y-110.764
X77.455Y-152.141
X81.588Y-161.422
X28.506Y-61.999
X30.963Y-52.141
X72.623Y-52.746
X75.252Y-42.932
X85.436Y-110.044
X85.614Y-99.885
X61.493Y-70.234
X63.951Y-60.376
X47.875Y-117.766
X49.464Y-127.801
X86.171Y-117.664
X87.76Y-127.699
X52.155Y-135.562
X53.92Y-145.568
T3
X61.392Y-70.642
X64.053Y-59.968
X47.809Y-117.351
X49.53Y-128.215
X86.105Y-117.249
X87.826Y-128.113
X52.082Y-135.149
X53.993Y-145.982
X25.813Y-80.054
X26.197Y-91.048
X42.802Y-79.461
X43.186Y-90.454
X59.596Y-78.874
X59.98Y-89.867
X64.6Y-114.691
X66.321Y-125.556
X60.75Y-32.918
X63.597Y-22.293
X35.341Y-138.101
X37.251Y-148.934
X68.824Y-132.197
X70.734Y-143.03
X60.03Y-96.688
X61.18Y-107.628
X89.675Y-134.68
X93.256Y-145.081
X44.897Y-66.529
X47.558Y-55.856
X43.123Y-98.465
X44.273Y-109.405
X85.461Y-167.834
X91.612Y-176.954
X96.174Y-151.189
X101.507Y-160.81
X31.019Y-120.01
X32.739Y-130.875
X105.435Y-166.33
X112.358Y-174.878
X56.576Y-48.881
X59.423Y-38.256
X26.216Y-100.242
X27.366Y-111.182
X77.285Y-151.757
X81.759Y-161.806
X28.404Y-62.407
X31.065Y-51.733
X72.514Y-53.152
X75.361Y-42.527
X85.429Y-110.463
X85.621Y-99.465
T4
X52.436Y-44.707
X53.75Y-39.801
X54.56Y-46.592
X56.533Y-39.231
X60.28Y-49.356
X62.868Y-39.697
X63.699Y-45.096
X21.473Y-103.717
X22.004Y-108.769
X23.867Y-102.189
X24.663Y-109.767
X29.948Y-100.353
X30.994Y-110.298
X32.659Y-105.096
X73.848Y-156.527
X75.652Y-154.334
X75.914Y-161.168
X78.751Y-161.295
X80.868Y-150.709
X84.912Y-154.382
X84.935Y-159.844
X24.191Y-58.306
X25.42Y-53.376
X26.348Y-60.152
X28.192Y-52.759
X32.115Y-62.817
X34.534Y-53.114
X35.459Y-58.497
X68.373Y-48.978
X69.688Y-44.071
X70.498Y-50.862
X72.47Y-43.502
X76.217Y-53.627
X78.806Y-43.967
X79.637Y-49.366
X80.401Y-107.415
X80.49Y-102.336
X82.919Y-108.729
X83.052Y-101.111
X89.137Y-110.028
X89.312Y-100.03
X91.424Y-105.067
X57.179Y-66.541
X58.408Y-61.611
X59.336Y-68.387
X61.179Y-60.994
X65.103Y-71.052
X67.522Y-61.349
X68.447Y-66.732
X43.255Y-121.069
X44.05Y-126.087
X45.565Y-119.417
X46.757Y-126.944
X51.542Y-117.266
X53.106Y-127.143
X54.497Y-121.86
X81.55Y-120.967
X82.345Y-125.985
X83.86Y-119.315
X85.052Y-126.842
X89.837Y-117.164
X91.402Y-127.041
X92.793Y-121.758
X47.594Y-138.946
X48.476Y-143.949
X49.874Y-137.254
X51.198Y-144.758
X55.813Y-134.999
X57.55Y-144.847
X58.848Y-139.541
X20.839Y-83.19
X21.016Y-88.267
X23.333Y-81.832
X23.599Y-89.447
X29.528Y-80.425
X29.877Y-90.419
X31.901Y-85.345
X37.829Y-82.597
X38.006Y-87.674
X40.323Y-81.239
X40.589Y-88.854
X46.518Y-79.832
X46.867Y-89.826
X48.891Y-84.752
X54.622Y-82.009
X54.799Y-87.086
X57.116Y-80.651
X57.382Y-88.267
X63.311Y-79.244
X63.66Y-89.238
X65.684Y-84.165
X60.046Y-118.41
X60.84Y-123.427
X62.356Y-116.758
X63.548Y-124.284
X68.333Y-114.607
X69.897Y-124.483
X71.288Y-119.201
X56.609Y-28.744
X57.924Y-23.837
X58.734Y-30.628
X60.706Y-23.268
X64.454Y-33.392
X67.042Y-23.733
X67.873Y-29.132
X30.852Y-141.898
X31.734Y-146.901
X33.133Y-140.206
X34.456Y-147.71
X39.071Y-137.951
X40.808Y-147.799
X42.106Y-142.493
X64.335Y-135.994
X65.217Y-140.997
X66.616Y-134.302
X67.939Y-141.806
X72.555Y-132.047
X74.291Y-141.895
X75.59Y-136.589
X55.287Y-100.163
X55.818Y-105.215
X57.681Y-98.635
X58.477Y-106.213
X63.762Y-96.799
X64.807Y-106.744
X66.473Y-101.542
X85.836Y-139.133
X87.489Y-143.936
X87.824Y-137.105
X90.305Y-144.31
X93.336Y-133.948
X96.592Y-143.404
X97.044Y-137.96
X40.684Y-62.428
X41.913Y-57.499
X42.841Y-64.275
X44.684Y-56.881
X48.608Y-66.939
X51.027Y-57.236
X51.952Y-62.62
X38.38Y-101.94
X38.911Y-106.992
X40.774Y-100.412
X41.57Y-107.99
X46.855Y-98.576
X47.9Y-108.521
X49.566Y-103.319
X82.905Y-173.129
X84.3Y-170.656
X85.745Y-177.341
X88.561Y-176.973
X88.808Y-166.18
X93.428Y-169.095
X94.4Y-174.47
X93.166Y-156.241
X94.772Y-153.898
X95.629Y-160.684
X98.466Y-160.563
X99.653Y-149.832
X104.001Y-153.139
X104.501Y-158.579
X26.464Y-123.728
X27.259Y-128.746
X28.774Y-122.077
X29.966Y-129.603
X34.751Y-119.925
X36.316Y-129.802
X37.706Y-124.52
X103.35Y-171.827
X104.525Y-169.242
X106.547Y-175.775
X108.625Y-164.39
X109.32Y-175.163
X113.482Y-166.891
X114.919Y-172.161
T5
X58.0Y-43.569
X26.791Y-105.712
X79.522Y-156.782
X29.735Y-57.07
X73.938Y-47.839
X85.525Y-104.964
X62.722Y-65.305
X48.67Y-122.783
X86.965Y-122.681
X53.038Y-140.565
X26.005Y-85.551
X42.994Y-84.958
X59.788Y-84.37
X65.46Y-120.124
X62.174Y-27.605
X36.296Y-143.517
X69.779Y-137.613
X60.605Y-102.158
X91.466Y-139.881
X46.227Y-61.192
X43.698Y-103.935
X88.537Y-172.394
X98.841Y-155.999
X31.879Y-125.443
X108.896Y-170.604
T0
M30
