G04 #@! TF.GenerationSoftware,KiCad,Pcbnew,(5.1.5)-3*
G04 #@! TF.CreationDate,2021-04-25T01:53:19+09:00*
G04 #@! TF.ProjectId,moon50_pcb,6d6f6f6e-3530-45f7-9063-622e6b696361,rev?*
G04 #@! TF.SameCoordinates,Original*
G04 #@! TF.FileFunction,Legend,Bot*
G04 #@! TF.FilePolarity,Positive*
%FSLAX46Y46*%
G04 Gerber Fmt 4.6, Leading zero omitted, Abs format (unit mm)*
G04 Created by KiCad (PCBNEW (5.1.5)-3) date 2021-04-25 01:53:19*
%MOMM*%
%LPD*%
G04 APERTURE LIST*
%ADD10C,0.300000*%
%ADD11C,0.150000*%
%ADD12C,0.125000*%
%ADD13C,3.102000*%
%ADD14C,0.100000*%
%ADD15C,4.102000*%
%ADD16C,2.002000*%
%ADD17C,1.802000*%
%ADD18C,5.702000*%
%ADD19C,1.402000*%
%ADD20C,1.802000*%
%ADD21C,1.302000*%
%ADD22C,1.626000*%
%ADD23C,2.102000*%
G04 APERTURE END LIST*
D10*
X279678571Y-18500000D02*
X278178571Y-18500000D01*
X279250000Y-19000000D01*
X278178571Y-19500000D01*
X279678571Y-19500000D01*
X279678571Y-20428571D02*
X279607142Y-20285714D01*
X279535714Y-20214285D01*
X279392857Y-20142857D01*
X278964285Y-20142857D01*
X278821428Y-20214285D01*
X278750000Y-20285714D01*
X278678571Y-20428571D01*
X278678571Y-20642857D01*
X278750000Y-20785714D01*
X278821428Y-20857142D01*
X278964285Y-20928571D01*
X279392857Y-20928571D01*
X279535714Y-20857142D01*
X279607142Y-20785714D01*
X279678571Y-20642857D01*
X279678571Y-20428571D01*
X279678571Y-21785714D02*
X279607142Y-21642857D01*
X279535714Y-21571428D01*
X279392857Y-21500000D01*
X278964285Y-21500000D01*
X278821428Y-21571428D01*
X278750000Y-21642857D01*
X278678571Y-21785714D01*
X278678571Y-22000000D01*
X278750000Y-22142857D01*
X278821428Y-22214285D01*
X278964285Y-22285714D01*
X279392857Y-22285714D01*
X279535714Y-22214285D01*
X279607142Y-22142857D01*
X279678571Y-22000000D01*
X279678571Y-21785714D01*
X278678571Y-22928571D02*
X279678571Y-22928571D01*
X278821428Y-22928571D02*
X278750000Y-23000000D01*
X278678571Y-23142857D01*
X278678571Y-23357142D01*
X278750000Y-23500000D01*
X278892857Y-23571428D01*
X279678571Y-23571428D01*
X278178571Y-25000000D02*
X278178571Y-24285714D01*
X278892857Y-24214285D01*
X278821428Y-24285714D01*
X278750000Y-24428571D01*
X278750000Y-24785714D01*
X278821428Y-24928571D01*
X278892857Y-25000000D01*
X279035714Y-25071428D01*
X279392857Y-25071428D01*
X279535714Y-25000000D01*
X279607142Y-24928571D01*
X279678571Y-24785714D01*
X279678571Y-24428571D01*
X279607142Y-24285714D01*
X279535714Y-24214285D01*
X278178571Y-26000000D02*
X278178571Y-26142857D01*
X278250000Y-26285714D01*
X278321428Y-26357142D01*
X278464285Y-26428571D01*
X278750000Y-26500000D01*
X279107142Y-26500000D01*
X279392857Y-26428571D01*
X279535714Y-26357142D01*
X279607142Y-26285714D01*
X279678571Y-26142857D01*
X279678571Y-26000000D01*
X279607142Y-25857142D01*
X279535714Y-25785714D01*
X279392857Y-25714285D01*
X279107142Y-25642857D01*
X278750000Y-25642857D01*
X278464285Y-25714285D01*
X278321428Y-25785714D01*
X278250000Y-25857142D01*
X278178571Y-26000000D01*
X279678571Y-28285714D02*
X278678571Y-28285714D01*
X278964285Y-28285714D02*
X278821428Y-28357142D01*
X278750000Y-28428571D01*
X278678571Y-28571428D01*
X278678571Y-28714285D01*
X279607142Y-29785714D02*
X279678571Y-29642857D01*
X279678571Y-29357142D01*
X279607142Y-29214285D01*
X279464285Y-29142857D01*
X278892857Y-29142857D01*
X278750000Y-29214285D01*
X278678571Y-29357142D01*
X278678571Y-29642857D01*
X278750000Y-29785714D01*
X278892857Y-29857142D01*
X279035714Y-29857142D01*
X279178571Y-29142857D01*
X278678571Y-30357142D02*
X279678571Y-30714285D01*
X278678571Y-31071428D01*
X279535714Y-31642857D02*
X279607142Y-31714285D01*
X279678571Y-31642857D01*
X279607142Y-31571428D01*
X279535714Y-31642857D01*
X279678571Y-31642857D01*
X279678571Y-33142857D02*
X279678571Y-32285714D01*
X279678571Y-32714285D02*
X278178571Y-32714285D01*
X278392857Y-32571428D01*
X278535714Y-32428571D01*
X278607142Y-32285714D01*
X278321428Y-34857142D02*
X278250000Y-34928571D01*
X278178571Y-35071428D01*
X278178571Y-35428571D01*
X278250000Y-35571428D01*
X278321428Y-35642857D01*
X278464285Y-35714285D01*
X278607142Y-35714285D01*
X278821428Y-35642857D01*
X279678571Y-34785714D01*
X279678571Y-35714285D01*
X278178571Y-36642857D02*
X278178571Y-36785714D01*
X278250000Y-36928571D01*
X278321428Y-37000000D01*
X278464285Y-37071428D01*
X278750000Y-37142857D01*
X279107142Y-37142857D01*
X279392857Y-37071428D01*
X279535714Y-37000000D01*
X279607142Y-36928571D01*
X279678571Y-36785714D01*
X279678571Y-36642857D01*
X279607142Y-36500000D01*
X279535714Y-36428571D01*
X279392857Y-36357142D01*
X279107142Y-36285714D01*
X278750000Y-36285714D01*
X278464285Y-36357142D01*
X278321428Y-36428571D01*
X278250000Y-36500000D01*
X278178571Y-36642857D01*
X278321428Y-37714285D02*
X278250000Y-37785714D01*
X278178571Y-37928571D01*
X278178571Y-38285714D01*
X278250000Y-38428571D01*
X278321428Y-38500000D01*
X278464285Y-38571428D01*
X278607142Y-38571428D01*
X278821428Y-38500000D01*
X279678571Y-37642857D01*
X279678571Y-38571428D01*
X279678571Y-40000000D02*
X279678571Y-39142857D01*
X279678571Y-39571428D02*
X278178571Y-39571428D01*
X278392857Y-39428571D01*
X278535714Y-39285714D01*
X278607142Y-39142857D01*
X279535714Y-40642857D02*
X279607142Y-40714285D01*
X279678571Y-40642857D01*
X279607142Y-40571428D01*
X279535714Y-40642857D01*
X279678571Y-40642857D01*
X278178571Y-41642857D02*
X278178571Y-41785714D01*
X278250000Y-41928571D01*
X278321428Y-42000000D01*
X278464285Y-42071428D01*
X278750000Y-42142857D01*
X279107142Y-42142857D01*
X279392857Y-42071428D01*
X279535714Y-42000000D01*
X279607142Y-41928571D01*
X279678571Y-41785714D01*
X279678571Y-41642857D01*
X279607142Y-41500000D01*
X279535714Y-41428571D01*
X279392857Y-41357142D01*
X279107142Y-41285714D01*
X278750000Y-41285714D01*
X278464285Y-41357142D01*
X278321428Y-41428571D01*
X278250000Y-41500000D01*
X278178571Y-41642857D01*
X278678571Y-43428571D02*
X279678571Y-43428571D01*
X278107142Y-43071428D02*
X279178571Y-42714285D01*
X279178571Y-43642857D01*
X43150193Y-162963018D02*
X42460246Y-163147889D01*
X42848474Y-164596777D01*
X44203600Y-162754706D02*
X44047124Y-162722686D01*
X43771145Y-162796634D01*
X43651643Y-162902603D01*
X43619622Y-163059080D01*
X43767519Y-163611037D01*
X43873488Y-163730539D01*
X44029964Y-163762560D01*
X44305943Y-163688612D01*
X44425445Y-163582643D01*
X44457466Y-163426166D01*
X44420492Y-163288177D01*
X43693571Y-163335058D01*
X44926895Y-163522228D02*
X45478853Y-163374331D01*
X44875060Y-162500841D02*
X45207828Y-163742746D01*
X45313797Y-163862248D01*
X45470273Y-163894268D01*
X45608262Y-163857294D01*
X45754832Y-163300383D02*
X46306789Y-163152487D01*
X46091225Y-163727885D02*
X45758458Y-162485980D01*
X45790479Y-162329504D01*
X45909981Y-162223535D01*
X46047970Y-162186561D01*
X47634848Y-161761358D02*
X48023077Y-163210247D01*
X48255801Y-161594974D02*
X48459159Y-162353916D01*
X48427138Y-162510393D01*
X48307636Y-162616361D01*
X48100652Y-162671823D01*
X47944175Y-162639802D01*
X47856693Y-162589294D01*
X49566700Y-161243720D02*
X49770058Y-162002662D01*
X49738037Y-162159138D01*
X49618535Y-162265107D01*
X49342556Y-162339055D01*
X49186080Y-162307035D01*
X49585187Y-161312715D02*
X49428711Y-161280694D01*
X49083737Y-161373129D01*
X48964235Y-161479098D01*
X48932214Y-161635575D01*
X48969188Y-161773564D01*
X49075157Y-161893066D01*
X49231634Y-161925087D01*
X49576607Y-161832652D01*
X49733084Y-161864672D01*
X50515466Y-162024775D02*
X50256647Y-161058849D01*
X50478492Y-161886786D02*
X50565974Y-161937293D01*
X50722450Y-161969314D01*
X50929434Y-161913853D01*
X51048937Y-161807884D01*
X51080957Y-161651407D01*
X50877599Y-160892465D01*
X52188499Y-160541211D02*
X52576727Y-161990100D01*
X52206986Y-160610206D02*
X52050509Y-160578185D01*
X51774531Y-160652134D01*
X51655028Y-160758102D01*
X51604521Y-160845584D01*
X51572500Y-161002061D01*
X51683423Y-161416029D01*
X51789391Y-161535531D01*
X51876873Y-161586039D01*
X52033350Y-161618059D01*
X52309328Y-161544111D01*
X52428831Y-161438142D01*
X42056913Y-167230231D02*
X42445141Y-168679120D01*
X42650798Y-167514790D01*
X43411067Y-168420301D01*
X43022839Y-166971412D01*
X43919770Y-166731080D02*
X43800267Y-166837049D01*
X43749760Y-166924531D01*
X43717739Y-167081008D01*
X43828662Y-167494976D01*
X43934630Y-167614478D01*
X44022112Y-167664986D01*
X44178589Y-167697006D01*
X44385573Y-167641545D01*
X44505075Y-167535576D01*
X44555583Y-167448094D01*
X44587603Y-167291618D01*
X44476681Y-166877650D01*
X44370712Y-166758147D01*
X44283230Y-166707640D01*
X44126754Y-166675619D01*
X43919770Y-166731080D01*
X45230669Y-166379826D02*
X45111167Y-166485795D01*
X45060659Y-166573277D01*
X45028638Y-166729753D01*
X45139561Y-167143721D01*
X45245530Y-167263224D01*
X45333012Y-167313731D01*
X45489488Y-167345752D01*
X45696472Y-167290291D01*
X45815974Y-167184322D01*
X45866482Y-167096840D01*
X45898503Y-166940364D01*
X45787580Y-166526395D01*
X45681611Y-166406893D01*
X45594130Y-166356385D01*
X45437653Y-166324365D01*
X45230669Y-166379826D01*
X46593403Y-167049959D02*
X46334584Y-166084033D01*
X46556429Y-166911969D02*
X46643911Y-166962477D01*
X46800387Y-166994497D01*
X47007371Y-166939036D01*
X47126874Y-166833067D01*
X47158894Y-166676591D01*
X46955537Y-165917649D01*
X48723659Y-166996796D02*
X48033712Y-167181667D01*
X47779847Y-166510207D01*
X47867328Y-166560715D01*
X48023805Y-166592735D01*
X48368778Y-166500300D01*
X48488281Y-166394331D01*
X48538788Y-166306849D01*
X48570809Y-166150373D01*
X48478374Y-165805399D01*
X48372405Y-165685897D01*
X48284923Y-165635389D01*
X48128446Y-165603369D01*
X47783473Y-165695804D01*
X47663971Y-165801773D01*
X47613463Y-165889255D01*
X49689585Y-166737977D02*
X49827574Y-166701003D01*
X49947077Y-166595034D01*
X49997584Y-166507553D01*
X50029605Y-166351076D01*
X50024651Y-166056610D01*
X49932216Y-165711637D01*
X49789273Y-165454145D01*
X49683304Y-165334643D01*
X49595822Y-165284135D01*
X49439346Y-165252114D01*
X49301356Y-165289089D01*
X49181854Y-165395057D01*
X49131346Y-165482539D01*
X49099326Y-165639016D01*
X49104279Y-165933482D01*
X49196715Y-166278455D01*
X49339658Y-166535947D01*
X49445627Y-166655449D01*
X49533108Y-166705957D01*
X49689585Y-166737977D01*
X51509187Y-164697502D02*
X51768006Y-165663428D01*
X51694058Y-165387449D02*
X51800026Y-165506952D01*
X51887508Y-165557459D01*
X52043985Y-165589480D01*
X52181974Y-165552506D01*
X52976563Y-164378268D02*
X52820086Y-164346248D01*
X52544107Y-164420196D01*
X52424605Y-164526165D01*
X52392585Y-164682641D01*
X52540481Y-165234599D01*
X52646450Y-165354101D01*
X52802926Y-165386122D01*
X53078905Y-165312174D01*
X53198408Y-165206205D01*
X53230428Y-165049728D01*
X53193454Y-164911739D01*
X52466533Y-164958620D01*
X53768852Y-165127303D02*
X53855007Y-164068942D01*
X54458799Y-164942432D01*
X54788912Y-163966599D02*
X54839420Y-163879117D01*
X54751938Y-163828610D01*
X54701430Y-163916091D01*
X54788912Y-163966599D01*
X54751938Y-163828610D01*
X56200827Y-163440381D02*
X55372890Y-163662226D01*
X55786858Y-163551304D02*
X56175087Y-165000192D01*
X55981636Y-164830182D01*
X55806673Y-164729167D01*
X55650196Y-164697147D01*
D11*
X44077746Y-144460293D02*
X44767111Y-144338740D01*
X44028505Y-144468976D02*
G75*
G03X42841929Y-145917022I130735J-1317311D01*
G01*
X38120777Y-145805141D02*
G75*
G03X39846263Y-143094331I-492662J2218148D01*
G01*
X38937791Y-150438662D02*
X43472248Y-149664501D01*
X39441687Y-140627102D02*
X43971803Y-139828320D01*
X42837005Y-145917890D02*
X43492527Y-149635539D01*
X38097025Y-145814407D02*
X38913171Y-150443003D01*
X39421408Y-140656063D02*
X39864211Y-143167323D01*
X44000764Y-139848599D02*
X44790863Y-144329474D01*
X35821263Y-146124296D02*
G75*
G02X33577379Y-144225090I-172339J2071545D01*
G01*
X32507860Y-150368137D02*
G75*
G02X30259342Y-148465685I-173033J2075485D01*
G01*
X32655557Y-139285113D02*
X33577781Y-144250404D01*
X32610255Y-139293101D02*
X28761627Y-139971718D01*
X28761627Y-139971718D02*
X30259342Y-148465685D01*
X32578706Y-150366814D02*
X36463773Y-149681772D01*
X36472636Y-149680209D02*
X35845766Y-146125053D01*
X92984111Y-107374836D02*
X93684005Y-107387052D01*
X92934119Y-107373963D02*
G75*
G03X91493043Y-108568995I-123022J-1318054D01*
G01*
X86879978Y-107558332D02*
G75*
G03X89091011Y-105226565I-60367J2271400D01*
G01*
X86797866Y-112262615D02*
X91396729Y-112367893D01*
X89164637Y-102727469D02*
X93763937Y-102807750D01*
X91488044Y-108568908D02*
X91422161Y-112343333D01*
X86854896Y-107562895D02*
X86772869Y-112262179D01*
X89139205Y-102752029D02*
X89094701Y-105301640D01*
X93788497Y-102833183D02*
X93709088Y-107382490D01*
X84561815Y-107432855D02*
G75*
G02X82721545Y-105140389I226098J2066368D01*
G01*
X80499526Y-110966497D02*
G75*
G02X78655326Y-108669961I226168J2070368D01*
G01*
X82759251Y-100115282D02*
X82717109Y-105165315D01*
X82713258Y-100114479D02*
X78805853Y-100046275D01*
X78805853Y-100046275D02*
X78655326Y-108669961D01*
X80569324Y-110978717D02*
X84513723Y-111047567D01*
X84522722Y-111047724D02*
X84585725Y-107438273D01*
X60819477Y-141508273D02*
X61508842Y-141386720D01*
X60770236Y-141516956D02*
G75*
G03X59583660Y-142965002I130735J-1317311D01*
G01*
X54862508Y-142853121D02*
G75*
G03X56587994Y-140142311I-492662J2218148D01*
G01*
X55679522Y-147486642D02*
X60213979Y-146712481D01*
X56183418Y-137675082D02*
X60713534Y-136876300D01*
X59578736Y-142965870D02*
X60234258Y-146683519D01*
X54838756Y-142862387D02*
X55654902Y-147490983D01*
X56163139Y-137704043D02*
X56605942Y-140215303D01*
X60742495Y-136896579D02*
X61532594Y-141377454D01*
X52562994Y-143172276D02*
G75*
G02X50319110Y-141273070I-172339J2071545D01*
G01*
X49249591Y-147416117D02*
G75*
G02X47001073Y-145513665I-173033J2075485D01*
G01*
X49397288Y-136333093D02*
X50319512Y-141298384D01*
X49351986Y-136341081D02*
X45503358Y-137019698D01*
X45503358Y-137019698D02*
X47001073Y-145513665D01*
X49320437Y-147414794D02*
X53205504Y-146729752D01*
X53214367Y-146728189D02*
X52587497Y-143173033D01*
X116159924Y-167656017D02*
X116703926Y-167215493D01*
X116121067Y-167687484D02*
G75*
G03X115785291Y-169529236I752988J-1088764D01*
G01*
X111601837Y-171720243D02*
G75*
G03X111796754Y-168512782I-1506272J1701189D01*
G01*
X114562789Y-175376715D02*
X118153394Y-172501270D01*
X110246768Y-166551038D02*
X113821639Y-163656164D01*
X115781405Y-169532383D02*
X118157089Y-172466109D01*
X111585555Y-171739862D02*
X114543361Y-175392448D01*
X110243072Y-166586200D02*
X111847839Y-168567922D01*
X113856801Y-163659860D02*
X116720208Y-167195874D01*
X109745366Y-173114209D02*
G75*
G02X106862067Y-172540982I-1155036J1728263D01*
G01*
X108904853Y-178432325D02*
G75*
G02X106015928Y-177858506I-1157553J1731372D01*
G01*
X103660875Y-168667289D02*
X106874692Y-172562928D01*
X103625126Y-168696238D02*
X100588040Y-171155622D01*
X100588040Y-171155622D02*
X106015928Y-177858506D01*
X108966175Y-178396821D02*
X112032016Y-175914152D01*
X112039011Y-175908488D02*
X109767164Y-173102992D01*
X87300620Y-155813878D02*
X87940102Y-155529162D01*
X87254943Y-155834214D02*
G75*
G03X86453927Y-157526306I445538J-1246554D01*
G01*
X81845947Y-158559900D02*
G75*
G03X82864375Y-155512178I-1014647J2033075D01*
G01*
X83759643Y-162858131D02*
X87972120Y-161009981D01*
X81874939Y-153216113D02*
X86077248Y-151345124D01*
X86449360Y-157528340D02*
X87984790Y-160976974D01*
X81825142Y-158574636D02*
X83736804Y-162868299D01*
X81862269Y-153249120D02*
X82899448Y-155578661D01*
X86110256Y-151357794D02*
X87960907Y-155514426D01*
X79691949Y-159425878D02*
G75*
G02X77055258Y-158125929I-668371J1968320D01*
G01*
X77503646Y-164345242D02*
G75*
G02X74861674Y-163043266I-669998J1971974D01*
G01*
X74965730Y-153555700D02*
X77061773Y-158150395D01*
X74923706Y-153574410D02*
X71353571Y-155163937D01*
X71353571Y-155163937D02*
X74861674Y-163043266D01*
X77572068Y-164326819D02*
X81176005Y-162722243D01*
X81184227Y-162718582D02*
X79715908Y-159420683D01*
X76433115Y-185882542D02*
X70436770Y-186091939D01*
X70436770Y-186091939D02*
X70017977Y-174099249D01*
X70017977Y-174099249D02*
X76014321Y-173889852D01*
X76014321Y-173889852D02*
X76433115Y-185882542D01*
X99299445Y-139594594D02*
X99961308Y-139366696D01*
X99252169Y-139610873D02*
G75*
G03X98306726Y-141226712I335198J-1280641D01*
G01*
X93626197Y-141854760D02*
G75*
G03X94906375Y-138907398I-833592J2113770D01*
G01*
X95157994Y-146303425D02*
X99515519Y-144829450D01*
X94120820Y-136533835D02*
X98470206Y-135036221D01*
X98301998Y-141228340D02*
X99531018Y-144797673D01*
X93604186Y-141867627D02*
X95134356Y-146311564D01*
X94105321Y-136565612D02*
X94935520Y-138976684D01*
X98501983Y-135051720D02*
X99983318Y-139353830D01*
X91404920Y-142529709D02*
G75*
G02X88891561Y-141004906I-494278J2019081D01*
G01*
X88796193Y-147239630D02*
G75*
G02X86277750Y-145712347I-495580J2022863D01*
G01*
X87208305Y-136269953D02*
X88895918Y-141029846D01*
X87164811Y-136284929D02*
X83469724Y-137557250D01*
X83469724Y-137557250D02*
X86277750Y-145712347D01*
X88865961Y-147227242D02*
X92596031Y-145942875D01*
X92604541Y-145939945D02*
X91429240Y-142526623D01*
X51395276Y-105418847D02*
X52091441Y-105345678D01*
X51345550Y-105424075D02*
G75*
G03X50060854Y-106785821I38525J-1323221D01*
G01*
X45359006Y-106344883D02*
G75*
G03X47269386Y-103761039I-336732J2247112D01*
G01*
X45850812Y-111024108D02*
X50428226Y-110568140D01*
X47037900Y-101271598D02*
X51612701Y-100790767D01*
X50055881Y-106786344D02*
X50450476Y-110540664D01*
X45334665Y-106352468D02*
X45825949Y-111026721D01*
X47015651Y-101299074D02*
X47282198Y-103835105D01*
X51640177Y-100813017D02*
X52115782Y-105338092D01*
X43042830Y-106502853D02*
G75*
G02X40936895Y-104451748I-27415J2078520D01*
G01*
X39441463Y-110505225D02*
G75*
G02X37331131Y-108450559I-27833J2082499D01*
G01*
X40361913Y-99459502D02*
X40935530Y-104477029D01*
X40316165Y-99464310D02*
X36429573Y-99872808D01*
X36429573Y-99872808D02*
X37331131Y-108450559D01*
X39512229Y-110508848D02*
X43435618Y-110096483D01*
X43444569Y-110095542D02*
X43067221Y-106505318D01*
X68828130Y-31748635D02*
X69504278Y-31929808D01*
X68779834Y-31735694D02*
G75*
G03X67092460Y-32546600I-438234J-1249140D01*
G01*
X62860926Y-30449957D02*
G75*
G03X65570385Y-28722350I490926J2218533D01*
G01*
X61643182Y-34994638D02*
X66079970Y-36209354D01*
X66246411Y-26315300D02*
X70689670Y-27505868D01*
X67087630Y-32545306D02*
X66110589Y-36191676D01*
X62835483Y-30448316D02*
X61619033Y-34988168D01*
X66215792Y-26332978D02*
X65555804Y-28796089D01*
X70707347Y-27536486D02*
X69529721Y-31931449D01*
X60641977Y-29767393D02*
G75*
G02X59410967Y-27097821I719281J1950291D01*
G01*
X55845490Y-32213313D02*
G75*
G02X54611652Y-29538843I720316J1954154D01*
G01*
X60663237Y-22231103D02*
X59400633Y-27120934D01*
X60618804Y-22219197D02*
X56843966Y-21207732D01*
X56843966Y-21207732D02*
X54611652Y-29538843D01*
X55910258Y-32242056D02*
X59720835Y-33263097D01*
X59729528Y-33265427D02*
X60663865Y-29778434D01*
X67362709Y-86387300D02*
X68062283Y-86362870D01*
X67312740Y-86389045D02*
G75*
G03X65936182Y-87657859I-53872J-1322686D01*
G01*
X61276546Y-86890010D02*
G75*
G03X63362512Y-84445722I-179161J2265127D01*
G01*
X61440748Y-91592144D02*
X66038818Y-91456591D01*
X63305245Y-81946198D02*
X67902443Y-81785660D01*
X65931185Y-87658033D02*
X66062931Y-91430734D01*
X61251736Y-86895880D02*
X61415763Y-91593016D01*
X63281133Y-81972055D02*
X63370127Y-84520502D01*
X67928300Y-81809773D02*
X68087093Y-86357001D01*
X58954993Y-86886029D02*
G75*
G02X56997265Y-84693017I117642J2075370D01*
G01*
X55083207Y-90627432D02*
G75*
G02X53121342Y-88430561I117503J2079368D01*
G01*
X56771926Y-79672823D02*
X56994140Y-84718141D01*
X56725954Y-79674428D02*
X52820334Y-79810815D01*
X52820334Y-79810815D02*
X53121342Y-88430561D01*
X55153548Y-90635982D02*
X59096145Y-90498303D01*
X59105140Y-90497989D02*
X58979153Y-86890188D01*
X106505615Y-154357423D02*
X107117849Y-154018056D01*
X106461883Y-154381664D02*
G75*
G03X105811392Y-156137129I552487J-1202978D01*
G01*
X101311029Y-157568400D02*
G75*
G03X102059955Y-154443516I-1187979J1936905D01*
G01*
X103592059Y-161683487D02*
X107627429Y-159475228D01*
X100874170Y-152242422D02*
X104897420Y-150012298D01*
X105807018Y-156139553D02*
X107637175Y-159441242D01*
X101291588Y-157584895D02*
X103570193Y-161695607D01*
X100864425Y-152276408D02*
X102100689Y-154506688D01*
X104931406Y-150022043D02*
X107137290Y-154001563D01*
X99240703Y-158618817D02*
G75*
G02X96500748Y-157553618I-837378J1902577D01*
G01*
X97489477Y-163710185D02*
G75*
G02X94744085Y-162643427I-839317J1906075D01*
G01*
X94020849Y-153182895D02*
X96509370Y-157577423D01*
X93980616Y-153205196D02*
X90562602Y-155099832D01*
X90562602Y-155099832D02*
X94744085Y-162643427D01*
X97556034Y-163685869D02*
X101006409Y-161773295D01*
X101014280Y-161768932D02*
X99264118Y-158611554D01*
X56433995Y-123861822D02*
X57125377Y-123752318D01*
X56384611Y-123869644D02*
G75*
G03X55172943Y-125296760I107724J-1319392D01*
G01*
X50454462Y-125102502D02*
G75*
G03X52226996Y-122422218I-453875J2226409D01*
G01*
X51190486Y-129749575D02*
X55737764Y-129054669D01*
X51865541Y-119948304D02*
X56408907Y-119228705D01*
X55168005Y-125297543D02*
X55758545Y-129026066D01*
X50430552Y-125111351D02*
X51165794Y-129753486D01*
X51844759Y-119976907D02*
X52243667Y-122495512D01*
X56437510Y-119249487D02*
X57149287Y-123743468D01*
X48149728Y-125381477D02*
G75*
G02X45939332Y-123443397I-136158J2074238D01*
G01*
X44762765Y-129566844D02*
G75*
G02X42547792Y-127625439I-136784J2078189D01*
G01*
X45103865Y-118488085D02*
X45939293Y-123468715D01*
X45058431Y-118495281D02*
X41198545Y-119106627D01*
X41198545Y-119106627D02*
X42547792Y-127625439D01*
X44833624Y-129566757D02*
X48730054Y-128949623D01*
X48738943Y-128948215D02*
X48174215Y-125382660D01*
X80591984Y-51982805D02*
X81268132Y-52163978D01*
X80543688Y-51969864D02*
G75*
G03X78856314Y-52780770I-438234J-1249140D01*
G01*
X74624780Y-50684127D02*
G75*
G03X77334239Y-48956520I490926J2218533D01*
G01*
X73407036Y-55228808D02*
X77843824Y-56443524D01*
X78010265Y-46549470D02*
X82453524Y-47740038D01*
X78851484Y-52779476D02*
X77874443Y-56425846D01*
X74599337Y-50682486D02*
X73382887Y-55222338D01*
X77979646Y-46567148D02*
X77319658Y-49030259D01*
X82471201Y-47770656D02*
X81293575Y-52165619D01*
X72405831Y-50001563D02*
G75*
G02X71174821Y-47331991I719281J1950291D01*
G01*
X67609344Y-52447483D02*
G75*
G02X66375506Y-49773013I720316J1954154D01*
G01*
X72427091Y-42465273D02*
X71164487Y-47355104D01*
X72382658Y-42453367D02*
X68607820Y-41441902D01*
X68607820Y-41441902D02*
X66375506Y-49773013D01*
X67674112Y-52476226D02*
X71484689Y-53497267D01*
X71493382Y-53499597D02*
X72427719Y-50012604D01*
X69447795Y-69331691D02*
X70127002Y-69501037D01*
X69399281Y-69319596D02*
G75*
G03X67726316Y-70159827I-416367J-1256598D01*
G01*
X63458834Y-68137353D02*
G75*
G03X66137730Y-66362723I452133J2226763D01*
G01*
X62320591Y-72702595D02*
X66777904Y-73839693D01*
X66771644Y-63944242D02*
X71235004Y-65057082D01*
X67721464Y-70158617D02*
X66808209Y-73821484D01*
X63433367Y-68136157D02*
X62296334Y-72696547D01*
X66741339Y-63962451D02*
X66124438Y-66436705D01*
X71253214Y-65087388D02*
X70152469Y-69502233D01*
X61228311Y-67493620D02*
G75*
G02X59950899Y-64845938I685135J1962547D01*
G01*
X56475242Y-70022878D02*
G75*
G02X55194916Y-67370348I686102J1966428D01*
G01*
X61118041Y-59958106D02*
X59940969Y-64869228D01*
X61073408Y-59946978D02*
X57281492Y-59001547D01*
X57281492Y-59001547D02*
X55194916Y-67370348D01*
X56540501Y-70050486D02*
X60368318Y-71004868D01*
X60377050Y-71007045D02*
X61250389Y-67504277D01*
X34488400Y-107195828D02*
X35184565Y-107122659D01*
X34438674Y-107201056D02*
G75*
G03X33153978Y-108562802I38525J-1323221D01*
G01*
X28452130Y-108121864D02*
G75*
G03X30362510Y-105538020I-336732J2247112D01*
G01*
X28943936Y-112801089D02*
X33521350Y-112345121D01*
X30131024Y-103048579D02*
X34705825Y-102567748D01*
X33149005Y-108563325D02*
X33543600Y-112317645D01*
X28427789Y-108129449D02*
X28919073Y-112803702D01*
X30108775Y-103076055D02*
X30375322Y-105612086D01*
X34733301Y-102589998D02*
X35208906Y-107115073D01*
X26135954Y-108279834D02*
G75*
G02X24030019Y-106228729I-27415J2078520D01*
G01*
X22534587Y-112282206D02*
G75*
G02X20424255Y-110227540I-27833J2082499D01*
G01*
X23455037Y-101236483D02*
X24028654Y-106254010D01*
X23409289Y-101241291D02*
X19522697Y-101649789D01*
X19522697Y-101649789D02*
X20424255Y-110227540D01*
X22605353Y-112285829D02*
X26528742Y-111873464D01*
X26537693Y-111872523D02*
X26160345Y-108282299D01*
X68302148Y-103641863D02*
X68998313Y-103568694D01*
X68252422Y-103647091D02*
G75*
G03X66967726Y-105008837I38525J-1323221D01*
G01*
X62265878Y-104567899D02*
G75*
G03X64176258Y-101984055I-336732J2247112D01*
G01*
X62757684Y-109247124D02*
X67335098Y-108791156D01*
X63944772Y-99494614D02*
X68519573Y-99013783D01*
X66962753Y-105009360D02*
X67357348Y-108763680D01*
X62241537Y-104575484D02*
X62732821Y-109249737D01*
X63922523Y-99522090D02*
X64189070Y-102058121D01*
X68547049Y-99036033D02*
X69022654Y-103561108D01*
X59949702Y-104725869D02*
G75*
G02X57843767Y-102674764I-27415J2078520D01*
G01*
X56348335Y-108728241D02*
G75*
G02X54238003Y-106673575I-27833J2082499D01*
G01*
X57268785Y-97682518D02*
X57842402Y-102700045D01*
X57223037Y-97687326D02*
X53336445Y-98095824D01*
X53336445Y-98095824D02*
X54238003Y-106673575D01*
X56419101Y-108731864D02*
X60342490Y-108319499D01*
X60351441Y-108318558D02*
X59974093Y-104728334D01*
X66593415Y-168979693D02*
X37151995Y-176868498D01*
X65936014Y-166526241D02*
X66593415Y-168979693D01*
X36494595Y-174415046D02*
X65936014Y-166526241D01*
X37151995Y-176868498D02*
X36494595Y-174415046D01*
X62649012Y-154258983D02*
X33207593Y-162147788D01*
X61991612Y-151805532D02*
X62649012Y-154258983D01*
X32550193Y-159694336D02*
X61991612Y-151805532D01*
X33207593Y-162147788D02*
X32550193Y-159694336D01*
X50569377Y-86974665D02*
X51268951Y-86950235D01*
X50519408Y-86976410D02*
G75*
G03X49142850Y-88245224I-53872J-1322686D01*
G01*
X44483214Y-87477375D02*
G75*
G03X46569180Y-85033087I-179161J2265127D01*
G01*
X44647416Y-92179509D02*
X49245486Y-92043956D01*
X46511913Y-82533563D02*
X51109111Y-82373025D01*
X49137853Y-88245398D02*
X49269599Y-92018099D01*
X44458404Y-87483245D02*
X44622431Y-92180381D01*
X46487801Y-82559420D02*
X46576795Y-85107867D01*
X51134968Y-82397138D02*
X51293761Y-86944366D01*
X42161661Y-87473394D02*
G75*
G02X40203933Y-85280382I117642J2075370D01*
G01*
X38289875Y-91214797D02*
G75*
G02X36328010Y-89017926I117503J2079368D01*
G01*
X39978594Y-80260188D02*
X40200808Y-85305506D01*
X39932622Y-80261793D02*
X36027002Y-80398180D01*
X36027002Y-80398180D02*
X36328010Y-89017926D01*
X38360216Y-91223347D02*
X42302813Y-91085668D01*
X42311808Y-91085354D02*
X42185821Y-87477553D01*
X94729521Y-123759827D02*
X95420903Y-123650323D01*
X94680137Y-123767649D02*
G75*
G03X93468469Y-125194765I107724J-1319392D01*
G01*
X88749988Y-125000507D02*
G75*
G03X90522522Y-122320223I-453875J2226409D01*
G01*
X89486012Y-129647580D02*
X94033290Y-128952674D01*
X90161067Y-119846309D02*
X94704433Y-119126710D01*
X93463531Y-125195548D02*
X94054071Y-128924071D01*
X88726078Y-125009356D02*
X89461320Y-129651491D01*
X90140285Y-119874912D02*
X90539193Y-122393517D01*
X94733036Y-119147492D02*
X95444813Y-123641473D01*
X86445254Y-125279482D02*
G75*
G02X84234858Y-123341402I-136158J2074238D01*
G01*
X83058291Y-129464849D02*
G75*
G02X80843318Y-127523444I-136784J2078189D01*
G01*
X83399391Y-118386090D02*
X84234819Y-123366720D01*
X83353957Y-118393286D02*
X79494071Y-119004632D01*
X79494071Y-119004632D02*
X80843318Y-127523444D01*
X83129150Y-129464762D02*
X87025580Y-128847628D01*
X87034469Y-128846220D02*
X86469741Y-125280665D01*
X96029271Y-170090355D02*
X96609597Y-169698920D01*
X95987819Y-170118314D02*
G75*
G03X95492801Y-171923794I655231J-1150249D01*
G01*
X91134307Y-173741852D02*
G75*
G03X91608032Y-170563585I-1352271J1825996D01*
G01*
X93765310Y-177642474D02*
X97592863Y-175090913D01*
X90234921Y-168474215D02*
X94048493Y-165901928D01*
X95488656Y-171926590D02*
X97599609Y-175056207D01*
X91116377Y-173759978D02*
X93744584Y-177656454D01*
X90228174Y-168508921D02*
X91654116Y-170622967D01*
X94083199Y-165908674D02*
X96627527Y-169680795D01*
X89163410Y-174968712D02*
G75*
G02X86341042Y-174146370I-1000013J1822355D01*
G01*
X87862590Y-180193335D02*
G75*
G02X85034670Y-179369913I-1002249J1825671D01*
G01*
X83489646Y-170008415D02*
X86351706Y-174169332D01*
X83451510Y-170034138D02*
X80211631Y-172219464D01*
X80211631Y-172219464D02*
X85034670Y-179369913D01*
X87926773Y-180163311D02*
X91197327Y-177957295D01*
X91204788Y-177952262D02*
X89186102Y-174959436D01*
X77561208Y-138556256D02*
X78250573Y-138434703D01*
X77511967Y-138564939D02*
G75*
G03X76325391Y-140012985I130735J-1317311D01*
G01*
X71604239Y-139901104D02*
G75*
G03X73329725Y-137190294I-492662J2218148D01*
G01*
X72421253Y-144534625D02*
X76955710Y-143760464D01*
X72925149Y-134723065D02*
X77455265Y-133924283D01*
X76320467Y-140013853D02*
X76975989Y-143731502D01*
X71580487Y-139910370D02*
X72396633Y-144538966D01*
X72904870Y-134752026D02*
X73347673Y-137263286D01*
X77484226Y-133944562D02*
X78274325Y-138425437D01*
X69304725Y-140220259D02*
G75*
G02X67060841Y-138321053I-172339J2071545D01*
G01*
X65991322Y-144464100D02*
G75*
G02X63742804Y-142561648I-173033J2075485D01*
G01*
X66139019Y-133381076D02*
X67061243Y-138346367D01*
X66093717Y-133389064D02*
X62245089Y-134067681D01*
X62245089Y-134067681D02*
X63742804Y-142561648D01*
X66062168Y-144462777D02*
X69947235Y-143777735D01*
X69956098Y-143776172D02*
X69329228Y-140221016D01*
X64654211Y-47712293D02*
X65330359Y-47893466D01*
X64605915Y-47699352D02*
G75*
G03X62918541Y-48510258I-438234J-1249140D01*
G01*
X58687007Y-46413615D02*
G75*
G03X61396466Y-44686008I490926J2218533D01*
G01*
X57469263Y-50958296D02*
X61906051Y-52173012D01*
X62072492Y-42278958D02*
X66515751Y-43469526D01*
X62913711Y-48508964D02*
X61936670Y-52155334D01*
X58661564Y-46411974D02*
X57445114Y-50951826D01*
X62041873Y-42296636D02*
X61381885Y-44759747D01*
X66533428Y-43500144D02*
X65355802Y-47895107D01*
X56468058Y-45731051D02*
G75*
G02X55237048Y-43061479I719281J1950291D01*
G01*
X51671571Y-48176971D02*
G75*
G02X50437733Y-45502501I720316J1954154D01*
G01*
X56489318Y-38194761D02*
X55226714Y-43084592D01*
X56444885Y-38182855D02*
X52670047Y-37171390D01*
X52670047Y-37171390D02*
X50437733Y-45502501D01*
X51736339Y-48205714D02*
X55546916Y-49226755D01*
X55555609Y-49229085D02*
X56489946Y-45742092D01*
X36460160Y-61096648D02*
X37139367Y-61265994D01*
X36411646Y-61084553D02*
G75*
G03X34738681Y-61924784I-416367J-1256598D01*
G01*
X30471199Y-59902310D02*
G75*
G03X33150095Y-58127680I452133J2226763D01*
G01*
X29332956Y-64467552D02*
X33790269Y-65604650D01*
X33784009Y-55709199D02*
X38247369Y-56822039D01*
X34733829Y-61923574D02*
X33820574Y-65586441D01*
X30445732Y-59901114D02*
X29308699Y-64461504D01*
X33753704Y-55727408D02*
X33136803Y-58201662D01*
X38265579Y-56852345D02*
X37164834Y-61267190D01*
X28240676Y-59258577D02*
G75*
G02X26963264Y-56610895I685135J1962547D01*
G01*
X23487607Y-61787835D02*
G75*
G02X22207281Y-59135305I686102J1966428D01*
G01*
X28130406Y-51723063D02*
X26953334Y-56634185D01*
X28085773Y-51711935D02*
X24293857Y-50766504D01*
X24293857Y-50766504D02*
X22207281Y-59135305D01*
X23552866Y-61815443D02*
X27380683Y-62769825D01*
X27389415Y-62772002D02*
X28262754Y-59269234D01*
X52952768Y-65219020D02*
X53631975Y-65388366D01*
X52904254Y-65206925D02*
G75*
G03X51231289Y-66047156I-416367J-1256598D01*
G01*
X46963807Y-64024682D02*
G75*
G03X49642703Y-62250052I452133J2226763D01*
G01*
X45825564Y-68589924D02*
X50282877Y-69727022D01*
X50276617Y-59831571D02*
X54739977Y-60944411D01*
X51226437Y-66045946D02*
X50313182Y-69708813D01*
X46938340Y-64023486D02*
X45801307Y-68583876D01*
X50246312Y-59849780D02*
X49629411Y-62324034D01*
X54758187Y-60974717D02*
X53657442Y-65389562D01*
X44733284Y-63380949D02*
G75*
G02X43455872Y-60733267I685135J1962547D01*
G01*
X39980215Y-65910207D02*
G75*
G02X38699889Y-63257677I686102J1966428D01*
G01*
X44623014Y-55845435D02*
X43445942Y-60756557D01*
X44578381Y-55834307D02*
X40786465Y-54888876D01*
X40786465Y-54888876D02*
X38699889Y-63257677D01*
X40045474Y-65937815D02*
X43873291Y-66892197D01*
X43882023Y-66894374D02*
X44755362Y-63391606D01*
X39643296Y-126521208D02*
X40334678Y-126411704D01*
X39593912Y-126529030D02*
G75*
G03X38382244Y-127956146I107724J-1319392D01*
G01*
X33663763Y-127761888D02*
G75*
G03X35436297Y-125081604I-453875J2226409D01*
G01*
X34399787Y-132408961D02*
X38947065Y-131714055D01*
X35074842Y-122607690D02*
X39618208Y-121888091D01*
X38377306Y-127956929D02*
X38967846Y-131685452D01*
X33639853Y-127770737D02*
X34375095Y-132412872D01*
X35054060Y-122636293D02*
X35452968Y-125154898D01*
X39646811Y-121908873D02*
X40358588Y-126402854D01*
X31359029Y-128040863D02*
G75*
G02X29148633Y-126102783I-136158J2074238D01*
G01*
X27972066Y-132226230D02*
G75*
G02X25757093Y-130284825I-136784J2078189D01*
G01*
X28313166Y-121147471D02*
X29148594Y-126128101D01*
X28267732Y-121154667D02*
X24407846Y-121766013D01*
X24407846Y-121766013D02*
X25757093Y-130284825D01*
X28042925Y-132226143D02*
X31939355Y-131609009D01*
X31948244Y-131607601D02*
X31383516Y-128042046D01*
X73224695Y-121202436D02*
X73916077Y-121092932D01*
X73175311Y-121210258D02*
G75*
G03X71963643Y-122637374I107724J-1319392D01*
G01*
X67245162Y-122443116D02*
G75*
G03X69017696Y-119762832I-453875J2226409D01*
G01*
X67981186Y-127090189D02*
X72528464Y-126395283D01*
X68656241Y-117288918D02*
X73199607Y-116569319D01*
X71958705Y-122638157D02*
X72549245Y-126366680D01*
X67221252Y-122451965D02*
X67956494Y-127094100D01*
X68635459Y-117317521D02*
X69034367Y-119836126D01*
X73228210Y-116590101D02*
X73939987Y-121084082D01*
X64940428Y-122722091D02*
G75*
G02X62730032Y-120784011I-136158J2074238D01*
G01*
X61553465Y-126907458D02*
G75*
G02X59338492Y-124966053I-136784J2078189D01*
G01*
X61894565Y-115828699D02*
X62729993Y-120809329D01*
X61849131Y-115835895D02*
X57989245Y-116447241D01*
X57989245Y-116447241D02*
X59338492Y-124966053D01*
X61624324Y-126907371D02*
X65520754Y-126290237D01*
X65529643Y-126288829D02*
X64964915Y-122723274D01*
X33579735Y-87567956D02*
X34279309Y-87543526D01*
X33529766Y-87569701D02*
G75*
G03X32153208Y-88838515I-53872J-1322686D01*
G01*
X27493572Y-88070666D02*
G75*
G03X29579538Y-85626378I-179161J2265127D01*
G01*
X27657774Y-92772800D02*
X32255844Y-92637247D01*
X29522271Y-83126854D02*
X34119469Y-82966316D01*
X32148211Y-88838689D02*
X32279957Y-92611390D01*
X27468762Y-88076536D02*
X27632789Y-92773672D01*
X29498159Y-83152711D02*
X29587153Y-85701158D01*
X34145326Y-82990429D02*
X34304119Y-87537657D01*
X25172019Y-88066685D02*
G75*
G02X23214291Y-85873673I117642J2075370D01*
G01*
X21300233Y-91808088D02*
G75*
G02X19338368Y-89611217I117503J2079368D01*
G01*
X22988952Y-80853479D02*
X23211166Y-85898797D01*
X22942980Y-80855084D02*
X19037360Y-80991471D01*
X19037360Y-80991471D02*
X19338368Y-89611217D01*
X21370574Y-91816638D02*
X25313171Y-91678959D01*
X25322166Y-91678645D02*
X25196179Y-88070844D01*
D12*
X46491321Y-175680783D02*
X46538143Y-175717536D01*
X46556631Y-175786531D01*
X46540620Y-175864769D01*
X46483950Y-175929253D01*
X46421118Y-175970738D01*
X46289291Y-176030710D01*
X46185799Y-176058441D01*
X46041647Y-176072417D01*
X45966490Y-176067906D01*
X45885171Y-176040396D01*
X45832186Y-175980645D01*
X45819861Y-175934649D01*
X45835872Y-175856410D01*
X45864207Y-175824169D01*
X46105688Y-175759464D01*
X46130338Y-175851457D01*
X45739751Y-175635672D02*
X46464195Y-175441557D01*
X45665803Y-175359693D01*
X46390247Y-175165578D01*
X45604179Y-175129710D02*
X46328623Y-174935596D01*
X46297812Y-174820605D01*
X46244827Y-174760854D01*
X46163508Y-174733344D01*
X46088351Y-174728833D01*
X45944199Y-174742809D01*
X45840707Y-174770540D01*
X45708880Y-174830512D01*
X45646047Y-174871997D01*
X45589377Y-174936481D01*
X45573367Y-175014719D01*
X45604179Y-175129710D01*
X44037870Y-176338184D02*
X44084692Y-176374937D01*
X44103180Y-176443932D01*
X44087169Y-176522170D01*
X44030499Y-176586654D01*
X43967667Y-176628139D01*
X43835840Y-176688111D01*
X43732348Y-176715842D01*
X43588196Y-176729818D01*
X43513039Y-176725307D01*
X43431720Y-176697797D01*
X43378735Y-176638046D01*
X43366410Y-176592050D01*
X43382421Y-176513811D01*
X43410756Y-176481570D01*
X43652237Y-176416865D01*
X43676887Y-176508858D01*
X43286300Y-176293073D02*
X44010744Y-176098958D01*
X43212352Y-176017094D01*
X43936796Y-175822979D01*
X43150728Y-175787111D02*
X43875172Y-175592997D01*
X43844361Y-175478006D01*
X43791376Y-175418255D01*
X43710057Y-175390745D01*
X43634900Y-175386234D01*
X43490748Y-175400210D01*
X43387256Y-175427941D01*
X43255429Y-175487913D01*
X43192596Y-175529398D01*
X43135926Y-175593882D01*
X43119916Y-175672120D01*
X43150728Y-175787111D01*
%LPC*%
D13*
X33132759Y-140206242D03*
X31734013Y-146900837D03*
X39071318Y-137950756D03*
D14*
G36*
X40128572Y-149999209D02*
G01*
X42198638Y-149634201D01*
X42563646Y-151704267D01*
X40493580Y-152069275D01*
X40128572Y-149999209D01*
G37*
G36*
X40411066Y-138932019D02*
G01*
X42481132Y-138567010D01*
X42828776Y-140538595D01*
X40758710Y-140903604D01*
X40411066Y-138932019D01*
G37*
D13*
X40807800Y-147798834D03*
X42106136Y-142492769D03*
D14*
G36*
X33774994Y-149901004D02*
G01*
X35845060Y-149535996D01*
X36210068Y-151606062D01*
X34140002Y-151971070D01*
X33774994Y-149901004D01*
G37*
D13*
X30851880Y-141898014D03*
D15*
X36295770Y-143517293D03*
D16*
X37250835Y-148933736D03*
X35340705Y-138100850D03*
D17*
X35413637Y-138514470D03*
X37177903Y-148520116D03*
D13*
X34455958Y-147710477D03*
D14*
G36*
X29102980Y-138031973D02*
G01*
X31173046Y-137666965D01*
X31538054Y-139737031D01*
X29467988Y-140102039D01*
X29102980Y-138031973D01*
G37*
D18*
X258448400Y-19000000D03*
X277448400Y-181000000D03*
X177448400Y-19600000D03*
X220448400Y-180000000D03*
X110000000Y-19000000D03*
X129000000Y-181000000D03*
X167000000Y-20000000D03*
X210000000Y-180400000D03*
X75999600Y-20000000D03*
X18999600Y-19000000D03*
X37999600Y-181000000D03*
X118999600Y-180400000D03*
D14*
G36*
X48479771Y-52322836D02*
G01*
X48140597Y-53683191D01*
X46316441Y-53228378D01*
X46655615Y-51868023D01*
X48479771Y-52322836D01*
G37*
D19*
X41808233Y-51381894D02*
X41344431Y-51266256D01*
D14*
G36*
X42514409Y-75797971D02*
G01*
X42563338Y-77199116D01*
X40684483Y-77264727D01*
X40635554Y-75863582D01*
X42514409Y-75797971D01*
G37*
D19*
X35841956Y-76732404D02*
X35364248Y-76749086D01*
D14*
G36*
X31984742Y-48210161D02*
G01*
X31645568Y-49570516D01*
X29821412Y-49115703D01*
X30160586Y-47755348D01*
X31984742Y-48210161D01*
G37*
D19*
X25313204Y-47269219D02*
X24849402Y-47153581D01*
D13*
X83051926Y-101110541D03*
X80401490Y-107415245D03*
X89311744Y-100029625D03*
D14*
G36*
X88050620Y-112058448D02*
G01*
X90152299Y-112095133D01*
X90115614Y-114196812D01*
X88013935Y-114160127D01*
X88050620Y-112058448D01*
G37*
G36*
X90439643Y-101248496D02*
G01*
X92541323Y-101285181D01*
X92506383Y-103286876D01*
X90404703Y-103250191D01*
X90439643Y-101248496D01*
G37*
D13*
X89137219Y-110028102D03*
X91424146Y-105067259D03*
D14*
G36*
X81832513Y-110749728D02*
G01*
X83934192Y-110786413D01*
X83897507Y-112888092D01*
X81795828Y-112851407D01*
X81832513Y-110749728D01*
G37*
D13*
X80490148Y-102336019D03*
D15*
X85525045Y-104964290D03*
D16*
X85429057Y-110463452D03*
X85621033Y-99465128D03*
D17*
X85613703Y-99885064D03*
X85436387Y-110043516D03*
D13*
X82918938Y-108729381D03*
D14*
G36*
X79511055Y-98207303D02*
G01*
X81612734Y-98243988D01*
X81576049Y-100345667D01*
X79474370Y-100308982D01*
X79511055Y-98207303D01*
G37*
G36*
X47243783Y-113803466D02*
G01*
X47463105Y-115188205D01*
X45606251Y-115482302D01*
X45386929Y-114097563D01*
X47243783Y-113803466D01*
G37*
D19*
X40734945Y-115544102D02*
X40262829Y-115618878D01*
D14*
G36*
X64497232Y-18702167D02*
G01*
X64134368Y-20056395D01*
X62318428Y-19569815D01*
X62681292Y-18215587D01*
X64497232Y-18702167D01*
G37*
D19*
X57843132Y-17644935D02*
X57381420Y-17521219D01*
D14*
G36*
X34638943Y-134466495D02*
G01*
X34882398Y-135847196D01*
X33030959Y-136173655D01*
X32787504Y-134792954D01*
X34638943Y-134466495D01*
G37*
D19*
X28161474Y-136320463D02*
X27690736Y-136403467D01*
D13*
X49874490Y-137254222D03*
X48475744Y-143948817D03*
X55813049Y-134998736D03*
D14*
G36*
X56870303Y-147047189D02*
G01*
X58940369Y-146682181D01*
X59305377Y-148752247D01*
X57235311Y-149117255D01*
X56870303Y-147047189D01*
G37*
G36*
X57152797Y-135979999D02*
G01*
X59222863Y-135614990D01*
X59570507Y-137586575D01*
X57500441Y-137951584D01*
X57152797Y-135979999D01*
G37*
D13*
X57549531Y-144846814D03*
X58847867Y-139540749D03*
D14*
G36*
X50516725Y-146948984D02*
G01*
X52586791Y-146583976D01*
X52951799Y-148654042D01*
X50881733Y-149019050D01*
X50516725Y-146948984D01*
G37*
D13*
X47593611Y-138945994D03*
D15*
X53037501Y-140565273D03*
D16*
X53992566Y-145981716D03*
X52082436Y-135148830D03*
D17*
X52155368Y-135562450D03*
X53919634Y-145568096D03*
D13*
X51197689Y-144758457D03*
D14*
G36*
X45844711Y-135079953D02*
G01*
X47914777Y-134714945D01*
X48279785Y-136785011D01*
X46209719Y-137150019D01*
X45844711Y-135079953D01*
G37*
G36*
X75750878Y-148410530D02*
G01*
X76321123Y-149691321D01*
X74603658Y-150455986D01*
X74033413Y-149175195D01*
X75750878Y-148410530D01*
G37*
D19*
X69914333Y-151776468D02*
X69477659Y-151970888D01*
D13*
X104524818Y-169241575D03*
X106547051Y-175774925D03*
X108625317Y-164389812D03*
D14*
G36*
X115391218Y-174415059D02*
G01*
X117024779Y-173092228D01*
X118347610Y-174725789D01*
X116714049Y-176048620D01*
X115391218Y-174415059D01*
G37*
G36*
X110272813Y-164598521D02*
G01*
X111906374Y-163275689D01*
X113166273Y-164831535D01*
X111532712Y-166154367D01*
X110272813Y-164598521D01*
G37*
D13*
X114918521Y-172161271D03*
X113481640Y-166891037D03*
D14*
G36*
X109786643Y-177409443D02*
G01*
X111420204Y-176086612D01*
X112743035Y-177720173D01*
X111109474Y-179043004D01*
X109786643Y-177409443D01*
G37*
D13*
X103350104Y-171827024D03*
D15*
X108896479Y-170604027D03*
D16*
X112357741Y-174878330D03*
X105435217Y-166329724D03*
D17*
X105699531Y-166656126D03*
X112093427Y-174551928D03*
D13*
X109320239Y-175163427D03*
D14*
G36*
X99946187Y-169293592D02*
G01*
X101579748Y-167970761D01*
X102902579Y-169604322D01*
X101269018Y-170927153D01*
X99946187Y-169293592D01*
G37*
G36*
X76197984Y-39030537D02*
G01*
X75835120Y-40384765D01*
X74019180Y-39898185D01*
X74382044Y-38543957D01*
X76197984Y-39030537D01*
G37*
D19*
X69543884Y-37973305D02*
X69082172Y-37849589D01*
D13*
X75651598Y-154334022D03*
X75913970Y-161168147D03*
X80868105Y-150708866D03*
D14*
G36*
X84808739Y-162143656D02*
G01*
X86729011Y-161288696D01*
X87583971Y-163208968D01*
X85663699Y-164063928D01*
X84808739Y-162143656D01*
G37*
G36*
X82405446Y-151336867D02*
G01*
X84325719Y-150481907D01*
X85140006Y-152310825D01*
X83219733Y-153165785D01*
X82405446Y-151336867D01*
G37*
D13*
X84935471Y-159844321D03*
X84911588Y-154381773D03*
D14*
G36*
X78620131Y-163585438D02*
G01*
X80540403Y-162730478D01*
X81395363Y-164650750D01*
X79475091Y-165505710D01*
X78620131Y-163585438D01*
G37*
D13*
X73847748Y-156527336D03*
D15*
X79521670Y-156781519D03*
D16*
X81758722Y-161806019D03*
X77284618Y-151757019D03*
D17*
X77455448Y-152140708D03*
X81587892Y-161422330D03*
D13*
X78750931Y-161295238D03*
D14*
G36*
X71215518Y-153199231D02*
G01*
X73135790Y-152344271D01*
X73990750Y-154264543D01*
X72070478Y-155119503D01*
X71215518Y-153199231D01*
G37*
G36*
X68122407Y-128562455D02*
G01*
X68365862Y-129943156D01*
X66514423Y-130269615D01*
X66270968Y-128888914D01*
X68122407Y-128562455D01*
G37*
D19*
X61644938Y-130416423D02*
X61174200Y-130499427D01*
D14*
G36*
X30380347Y-116364201D02*
G01*
X30599669Y-117748940D01*
X28742815Y-118043037D01*
X28523493Y-116658298D01*
X30380347Y-116364201D01*
G37*
D19*
X23871509Y-118104837D02*
X23399393Y-118179613D01*
D14*
G36*
X103047802Y-163582699D02*
G01*
X103930109Y-164672257D01*
X102469074Y-165855379D01*
X101586767Y-164765821D01*
X103047802Y-163582699D01*
G37*
D19*
X98281300Y-168344553D02*
X97909824Y-168645369D01*
D14*
G36*
X50682365Y-32963066D02*
G01*
X52036593Y-33325930D01*
X51550013Y-35141870D01*
X50195785Y-34779006D01*
X50682365Y-32963066D01*
G37*
D19*
X49625133Y-39617166D02*
X49501417Y-40078878D01*
D20*
X73386876Y-174581970D02*
X73358956Y-173782458D01*
X69241783Y-176227634D02*
X69213863Y-175428122D01*
X69381381Y-180225198D02*
X69353461Y-179425686D01*
X69486080Y-183223370D02*
X69458160Y-182423858D01*
D21*
X71389363Y-177553493D03*
X71633660Y-184549229D03*
D20*
X75327757Y-180017546D02*
X75299837Y-179218034D01*
X75432455Y-183015718D02*
X75404535Y-182216206D01*
X70938368Y-174667474D02*
X70910448Y-173867962D01*
X75188159Y-176019982D02*
X75160239Y-175220470D01*
D21*
X73382594Y-184488155D03*
X73138297Y-177492419D03*
D14*
G36*
X25524766Y-76391261D02*
G01*
X25573695Y-77792406D01*
X23694840Y-77858017D01*
X23645911Y-76456872D01*
X25524766Y-76391261D01*
G37*
D19*
X18852313Y-77325694D02*
X18374605Y-77342376D01*
D14*
G36*
X42865051Y-94670619D02*
G01*
X43011600Y-96064939D01*
X41141899Y-96261453D01*
X40995350Y-94867133D01*
X42865051Y-94670619D01*
G37*
D19*
X36274034Y-96068224D02*
X35798652Y-96118188D01*
D14*
G36*
X25760544Y-96719748D02*
G01*
X25907093Y-98114068D01*
X24037392Y-98310582D01*
X23890843Y-96916262D01*
X25760544Y-96719748D01*
G37*
D19*
X19169527Y-98117353D02*
X18694145Y-98167317D01*
D13*
X87823728Y-137105090D03*
X87489469Y-143936076D03*
X93336338Y-133948378D03*
D14*
G36*
X96265369Y-145683103D02*
G01*
X98252849Y-144998759D01*
X98937193Y-146986239D01*
X96949713Y-147670583D01*
X96265369Y-145683103D01*
G37*
G36*
X94813095Y-134707977D02*
G01*
X96800575Y-134023633D01*
X97452363Y-135916561D01*
X95464883Y-136600905D01*
X94813095Y-134707977D01*
G37*
D13*
X96592020Y-143403564D03*
X97044320Y-137959721D03*
D14*
G36*
X89974651Y-146580026D02*
G01*
X91962131Y-145895682D01*
X92646475Y-147883162D01*
X90658995Y-148567506D01*
X89974651Y-146580026D01*
G37*
D13*
X85835583Y-139132842D03*
D15*
X91465760Y-139880573D03*
D16*
X93256385Y-145080925D03*
X89675135Y-134680221D03*
D17*
X89811874Y-135077339D03*
X93119646Y-144683807D03*
D13*
X90304557Y-144309942D03*
D14*
G36*
X83503432Y-135587987D02*
G01*
X85490912Y-134903643D01*
X86175256Y-136891123D01*
X84187776Y-137575467D01*
X83503432Y-135587987D01*
G37*
D13*
X40773698Y-100411675D03*
X38911368Y-106992391D03*
X46855126Y-98575936D03*
D14*
G36*
X47069347Y-110668790D02*
G01*
X49159832Y-110449071D01*
X49379551Y-112539556D01*
X47289066Y-112759275D01*
X47069347Y-110668790D01*
G37*
G36*
X48123160Y-99648265D02*
G01*
X50213646Y-99428546D01*
X50422912Y-101419579D01*
X48332426Y-101639298D01*
X48123160Y-99648265D01*
G37*
D13*
X47900410Y-108521155D03*
X49565716Y-103318583D03*
D14*
G36*
X40738096Y-110127621D02*
G01*
X42828581Y-109907902D01*
X43048300Y-111998387D01*
X40957815Y-112218106D01*
X40738096Y-110127621D01*
G37*
D13*
X38380363Y-101940220D03*
D15*
X43698037Y-103935301D03*
D16*
X44272944Y-109405171D03*
X43123130Y-98465431D03*
D17*
X43167032Y-98883130D03*
X44229042Y-108987472D03*
D13*
X41570205Y-107989932D03*
D14*
G36*
X36905404Y-97961600D02*
G01*
X38995889Y-97741881D01*
X39215608Y-99832366D01*
X37125123Y-100052085D01*
X36905404Y-97961600D01*
G37*
G36*
X94170101Y-148107957D02*
G01*
X94849804Y-149334173D01*
X93205519Y-150245615D01*
X92525816Y-149019399D01*
X94170101Y-148107957D01*
G37*
D19*
X88649126Y-151969775D02*
X88231058Y-152201513D01*
D14*
G36*
X63961750Y-111045433D02*
G01*
X64181072Y-112430172D01*
X62324218Y-112724269D01*
X62104896Y-111339530D01*
X63961750Y-111045433D01*
G37*
D19*
X57452912Y-112786069D02*
X56980796Y-112860845D01*
D13*
X60706443Y-23267603D03*
X56609490Y-28743832D03*
X67041815Y-23733182D03*
D14*
G36*
X62908116Y-35099604D02*
G01*
X64938492Y-35643642D01*
X64394454Y-37674018D01*
X62364078Y-37129980D01*
X62908116Y-35099604D01*
G37*
G36*
X67841340Y-25188710D02*
G01*
X69871716Y-25732748D01*
X69353560Y-27666532D01*
X67323184Y-27122494D01*
X67841340Y-25188710D01*
G37*
D13*
X64453624Y-33392441D03*
X67872756Y-29132213D03*
D14*
G36*
X57191322Y-32325462D02*
G01*
X59221698Y-32869500D01*
X58677660Y-34899876D01*
X56647284Y-34355838D01*
X57191322Y-32325462D01*
G37*
D13*
X57924291Y-23836929D03*
D15*
X62173794Y-27605181D03*
D16*
X60750289Y-32917773D03*
X63597299Y-22292589D03*
D17*
X63488595Y-22698278D03*
X60858993Y-32512084D03*
D13*
X58734242Y-30627958D03*
D14*
G36*
X57973108Y-19593989D02*
G01*
X60003484Y-20138027D01*
X59459446Y-22168403D01*
X57429070Y-21624365D01*
X57973108Y-19593989D01*
G37*
D13*
X57116287Y-80651401D03*
X54799446Y-87086177D03*
X63310956Y-79244353D03*
D14*
G36*
X62681100Y-91322693D02*
G01*
X64781819Y-91249334D01*
X64855178Y-93350053D01*
X62754459Y-93423412D01*
X62681100Y-91322693D01*
G37*
G36*
X64501100Y-80402523D02*
G01*
X66601819Y-80329164D01*
X66671688Y-82329945D01*
X64570969Y-82403304D01*
X64501100Y-80402523D01*
G37*
D13*
X63659951Y-89238261D03*
X65684113Y-84164528D03*
D14*
G36*
X56403022Y-90341196D02*
G01*
X58503741Y-90267837D01*
X58577100Y-92368556D01*
X56476381Y-92441915D01*
X56403022Y-90341196D01*
G37*
D13*
X54622157Y-82009272D03*
D15*
X59787707Y-84370435D03*
D16*
X59979654Y-89867085D03*
X59595760Y-78873785D03*
D17*
X59610418Y-79293530D03*
X59964996Y-89447340D03*
D13*
X57382221Y-88266759D03*
D14*
G36*
X53428325Y-77937456D02*
G01*
X55529044Y-77864097D01*
X55602403Y-79964816D01*
X53501684Y-80038175D01*
X53428325Y-77937456D01*
G37*
D13*
X94771942Y-153898477D03*
X95628949Y-160683729D03*
X99652646Y-149832468D03*
D14*
G36*
X104574892Y-160880296D02*
G01*
X106413342Y-159861226D01*
X107432412Y-161699676D01*
X105593962Y-162718746D01*
X104574892Y-160880296D01*
G37*
G36*
X101238870Y-150324091D02*
G01*
X103077321Y-149305021D01*
X104047910Y-151056009D01*
X102209459Y-152075079D01*
X101238870Y-150324091D01*
G37*
D13*
X104500742Y-158578665D03*
X104000857Y-153138985D03*
D14*
G36*
X98535493Y-162855964D02*
G01*
X100373943Y-161836894D01*
X101393013Y-163675344D01*
X99554563Y-164694414D01*
X98535493Y-162855964D01*
G37*
D13*
X93166116Y-156240661D03*
D15*
X98840601Y-155999362D03*
D16*
X101507054Y-160809770D03*
X96174148Y-151188954D03*
D17*
X96377768Y-151556294D03*
X101303434Y-160442430D03*
D13*
X98466192Y-160563080D03*
D14*
G36*
X90253839Y-153154635D02*
G01*
X92092289Y-152135565D01*
X93111359Y-153974015D01*
X91272909Y-154993085D01*
X90253839Y-153154635D01*
G37*
D13*
X45564918Y-119417402D03*
X44049549Y-126086566D03*
X51541937Y-117265902D03*
D14*
G36*
X52388755Y-129330971D02*
G01*
X54464876Y-129002146D01*
X54793701Y-131078267D01*
X52717580Y-131407092D01*
X52388755Y-129330971D01*
G37*
G36*
X52864356Y-118270397D02*
G01*
X54940477Y-117941571D01*
X55253658Y-119918923D01*
X53177537Y-120247749D01*
X52864356Y-118270397D01*
G37*
D13*
X53106281Y-127142785D03*
X54497023Y-121860188D03*
D14*
G36*
X46037858Y-129121896D02*
G01*
X48113979Y-128793071D01*
X48442804Y-130869192D01*
X46366683Y-131198017D01*
X46037858Y-129121896D01*
G37*
D13*
X43254862Y-121069110D03*
D15*
X48669662Y-122783151D03*
D16*
X49530052Y-128215437D03*
X47809272Y-117350865D03*
D17*
X47874975Y-117765694D03*
X49464349Y-127800608D03*
D13*
X46756949Y-126943587D03*
D14*
G36*
X41573699Y-117173135D02*
G01*
X43649820Y-116844310D01*
X43978645Y-118920431D01*
X41902524Y-119249256D01*
X41573699Y-117173135D01*
G37*
G36*
X59504054Y-75204678D02*
G01*
X59552983Y-76605823D01*
X57674128Y-76671434D01*
X57625199Y-75270289D01*
X59504054Y-75204678D01*
G37*
D19*
X52831601Y-76139111D02*
X52353893Y-76155793D01*
D13*
X72470297Y-43501773D03*
X68373344Y-48978002D03*
X78805669Y-43967352D03*
D14*
G36*
X74671970Y-55333774D02*
G01*
X76702346Y-55877812D01*
X76158308Y-57908188D01*
X74127932Y-57364150D01*
X74671970Y-55333774D01*
G37*
G36*
X79605194Y-45422880D02*
G01*
X81635570Y-45966918D01*
X81117414Y-47900702D01*
X79087038Y-47356664D01*
X79605194Y-45422880D01*
G37*
D13*
X76217478Y-53626611D03*
X79636610Y-49366383D03*
D14*
G36*
X68955176Y-52559632D02*
G01*
X70985552Y-53103670D01*
X70441514Y-55134046D01*
X68411138Y-54590008D01*
X68955176Y-52559632D01*
G37*
D13*
X69688145Y-44071099D03*
D15*
X73937648Y-47839351D03*
D16*
X72514143Y-53151943D03*
X75361153Y-42526759D03*
D17*
X75252449Y-42932448D03*
X72622847Y-52746254D03*
D13*
X70498096Y-50862128D03*
D14*
G36*
X69736962Y-39828159D02*
G01*
X71767338Y-40372197D01*
X71223300Y-42402573D01*
X69192924Y-41858535D01*
X69736962Y-39828159D01*
G37*
D13*
X61179330Y-60993695D03*
X57178575Y-66540591D03*
X67521863Y-61348635D03*
D14*
G36*
X63587165Y-72785468D02*
G01*
X65626727Y-73293988D01*
X65118207Y-75333550D01*
X63078645Y-74825030D01*
X63587165Y-72785468D01*
G37*
G36*
X68346668Y-62789988D02*
G01*
X70386230Y-63298508D01*
X69901902Y-65241040D01*
X67862340Y-64732520D01*
X68346668Y-62789988D01*
G37*
D13*
X65102644Y-71051593D03*
X68446904Y-66732342D03*
D14*
G36*
X57822826Y-70111521D02*
G01*
X59862388Y-70620041D01*
X59353868Y-72659603D01*
X57314306Y-72151083D01*
X57822826Y-70111521D01*
G37*
D13*
X58407538Y-61611489D03*
D15*
X62722159Y-65305003D03*
D16*
X61391589Y-70641629D03*
X64052729Y-59968377D03*
D17*
X63951122Y-60375901D03*
X61493196Y-70234105D03*
D13*
X59335885Y-68387348D03*
D14*
G36*
X58382298Y-57368343D02*
G01*
X60421860Y-57876863D01*
X59913340Y-59916425D01*
X57873778Y-59407905D01*
X58382298Y-57368343D01*
G37*
D13*
X23866822Y-102188656D03*
X22004492Y-108769372D03*
X29948250Y-100352917D03*
D14*
G36*
X30162471Y-112445771D02*
G01*
X32252956Y-112226052D01*
X32472675Y-114316537D01*
X30382190Y-114536256D01*
X30162471Y-112445771D01*
G37*
G36*
X31216284Y-101425246D02*
G01*
X33306770Y-101205527D01*
X33516036Y-103196560D01*
X31425550Y-103416279D01*
X31216284Y-101425246D01*
G37*
D13*
X30993534Y-110298136D03*
X32658840Y-105095564D03*
D14*
G36*
X23831220Y-111904602D02*
G01*
X25921705Y-111684883D01*
X26141424Y-113775368D01*
X24050939Y-113995087D01*
X23831220Y-111904602D01*
G37*
D13*
X21473487Y-103717201D03*
D15*
X26791161Y-105712282D03*
D16*
X27366068Y-111182152D03*
X26216254Y-100242412D03*
D17*
X26260156Y-100660111D03*
X27322166Y-110764453D03*
D13*
X24663329Y-109766913D03*
D14*
G36*
X19998528Y-99738581D02*
G01*
X22089013Y-99518862D01*
X22308732Y-101609347D01*
X20218247Y-101829066D01*
X19998528Y-99738581D01*
G37*
D13*
X57680570Y-98634691D03*
X55818240Y-105215407D03*
X63761998Y-96798952D03*
D14*
G36*
X63976219Y-108891806D02*
G01*
X66066704Y-108672087D01*
X66286423Y-110762572D01*
X64195938Y-110982291D01*
X63976219Y-108891806D01*
G37*
G36*
X65030032Y-97871281D02*
G01*
X67120518Y-97651562D01*
X67329784Y-99642595D01*
X65239298Y-99862314D01*
X65030032Y-97871281D01*
G37*
D13*
X64807282Y-106744171D03*
X66472588Y-101541599D03*
D14*
G36*
X57644968Y-108350637D02*
G01*
X59735453Y-108130918D01*
X59955172Y-110221403D01*
X57864687Y-110441122D01*
X57644968Y-108350637D01*
G37*
D13*
X55287235Y-100163236D03*
D15*
X60604909Y-102158317D03*
D16*
X61179816Y-107628187D03*
X60030002Y-96688447D03*
D17*
X60073904Y-97106146D03*
X61135914Y-107210488D03*
D13*
X58477077Y-106212948D03*
D14*
G36*
X53812276Y-96184616D02*
G01*
X55902761Y-95964897D01*
X56122480Y-98055382D01*
X54031995Y-98275101D01*
X53812276Y-96184616D01*
G37*
D22*
X34105619Y-160592362D03*
X36559070Y-159934962D03*
X39012522Y-159277561D03*
X41465974Y-158620161D03*
X43919425Y-157962760D03*
X46372877Y-157305360D03*
X48826328Y-156647960D03*
X51279780Y-155990559D03*
X53733232Y-155333159D03*
X56186683Y-154675759D03*
X58640135Y-154018358D03*
X61093586Y-153360958D03*
X65037989Y-168081667D03*
X62584537Y-168739068D03*
X60131085Y-169396468D03*
X57677634Y-170053869D03*
X55224182Y-170711269D03*
X52770731Y-171368669D03*
X50317279Y-172026070D03*
X47863827Y-172683470D03*
X45410376Y-173340870D03*
X42956924Y-173998271D03*
X40503473Y-174655671D03*
X38050021Y-175313072D03*
X32540772Y-159659177D03*
X34994223Y-159001776D03*
X37447675Y-158344376D03*
X39901127Y-157686976D03*
X42354578Y-157029575D03*
X44808030Y-156372175D03*
X47261481Y-155714774D03*
X49714933Y-155057374D03*
X52168385Y-154399974D03*
X54621836Y-153742573D03*
X57075288Y-153085173D03*
X59528739Y-152427773D03*
X63467965Y-167129164D03*
X61014514Y-167786564D03*
X58561062Y-168443964D03*
X56107610Y-169101365D03*
X53654159Y-169758765D03*
X51200707Y-170416165D03*
X48747256Y-171073566D03*
X46293804Y-171730966D03*
X43840352Y-172388367D03*
X41386901Y-173045767D03*
X38933449Y-173703167D03*
X36479998Y-174360568D03*
D13*
X40322955Y-81238766D03*
X38006114Y-87673542D03*
X46517624Y-79831718D03*
D14*
G36*
X45887768Y-91910058D02*
G01*
X47988487Y-91836699D01*
X48061846Y-93937418D01*
X45961127Y-94010777D01*
X45887768Y-91910058D01*
G37*
G36*
X47707768Y-80989888D02*
G01*
X49808487Y-80916529D01*
X49878356Y-82917310D01*
X47777637Y-82990669D01*
X47707768Y-80989888D01*
G37*
D13*
X46866619Y-89825626D03*
X48890781Y-84751893D03*
D14*
G36*
X39609690Y-90928561D02*
G01*
X41710409Y-90855202D01*
X41783768Y-92955921D01*
X39683049Y-93029280D01*
X39609690Y-90928561D01*
G37*
D13*
X37828825Y-82596637D03*
D15*
X42994375Y-84957800D03*
D16*
X43186322Y-90454450D03*
X42802428Y-79461150D03*
D17*
X42817086Y-79880895D03*
X43171664Y-90034705D03*
D13*
X40588889Y-88854124D03*
D14*
G36*
X36634993Y-78524821D02*
G01*
X38735712Y-78451462D01*
X38809071Y-80552181D01*
X36708352Y-80625540D01*
X36634993Y-78524821D01*
G37*
G36*
X64974798Y-56435505D02*
G01*
X64635624Y-57795860D01*
X62811468Y-57341047D01*
X63150642Y-55980692D01*
X64974798Y-56435505D01*
G37*
D19*
X58303260Y-55494563D02*
X57839458Y-55378925D01*
D13*
X83860444Y-119315407D03*
X82345075Y-125984571D03*
X89837463Y-117163907D03*
D14*
G36*
X90684281Y-129228976D02*
G01*
X92760402Y-128900151D01*
X93089227Y-130976272D01*
X91013106Y-131305097D01*
X90684281Y-129228976D01*
G37*
G36*
X91159882Y-118168402D02*
G01*
X93236003Y-117839576D01*
X93549184Y-119816928D01*
X91473063Y-120145754D01*
X91159882Y-118168402D01*
G37*
D13*
X91401807Y-127040790D03*
X92792549Y-121758193D03*
D14*
G36*
X84333384Y-129019901D02*
G01*
X86409505Y-128691076D01*
X86738330Y-130767197D01*
X84662209Y-131096022D01*
X84333384Y-129019901D01*
G37*
D13*
X81550388Y-120967115D03*
D15*
X86965188Y-122681156D03*
D16*
X87825578Y-128113442D03*
X86104798Y-117248870D03*
D17*
X86170501Y-117663699D03*
X87759875Y-127698613D03*
D13*
X85052475Y-126841592D03*
D14*
G36*
X79869225Y-117071140D02*
G01*
X81945346Y-116742315D01*
X82274171Y-118818436D01*
X80198050Y-119147261D01*
X79869225Y-117071140D01*
G37*
D13*
X84300249Y-170655813D03*
X85745368Y-177340551D03*
X88808004Y-166179894D03*
D14*
G36*
X94674401Y-176756680D02*
G01*
X96417038Y-175581257D01*
X97592461Y-177323894D01*
X95849824Y-178499317D01*
X94674401Y-176756680D01*
G37*
G36*
X90431040Y-166531398D02*
G01*
X92173677Y-165355975D01*
X93293182Y-167015708D01*
X91550545Y-168191131D01*
X90431040Y-166531398D01*
G37*
D13*
X94399933Y-174470270D03*
X93427851Y-169094858D03*
D14*
G36*
X88830175Y-179251198D02*
G01*
X90572812Y-178075775D01*
X91748235Y-179818412D01*
X90005598Y-180993835D01*
X88830175Y-179251198D01*
G37*
D13*
X82904668Y-173129041D03*
D15*
X88536529Y-172394096D03*
D16*
X91612090Y-176953803D03*
X85460968Y-167834389D03*
D17*
X85695829Y-168182585D03*
X91377229Y-176605607D03*
D13*
X88561299Y-176973079D03*
D14*
G36*
X79734508Y-170308579D02*
G01*
X81477145Y-169133156D01*
X82652568Y-170875793D01*
X80909931Y-172051216D01*
X79734508Y-170308579D01*
G37*
D13*
X66616221Y-134302205D03*
X65217475Y-140996800D03*
X72554780Y-132046719D03*
D14*
G36*
X73612034Y-144095172D02*
G01*
X75682100Y-143730164D01*
X76047108Y-145800230D01*
X73977042Y-146165238D01*
X73612034Y-144095172D01*
G37*
G36*
X73894528Y-133027982D02*
G01*
X75964594Y-132662973D01*
X76312238Y-134634558D01*
X74242172Y-134999567D01*
X73894528Y-133027982D01*
G37*
D13*
X74291262Y-141894797D03*
X75589598Y-136588732D03*
D14*
G36*
X67258456Y-143996967D02*
G01*
X69328522Y-143631959D01*
X69693530Y-145702025D01*
X67623464Y-146067033D01*
X67258456Y-143996967D01*
G37*
D13*
X64335342Y-135993977D03*
D15*
X69779232Y-137613256D03*
D16*
X70734297Y-143029699D03*
X68824167Y-132196813D03*
D17*
X68897099Y-132610433D03*
X70661365Y-142616079D03*
D13*
X67939420Y-141806440D03*
D14*
G36*
X62586442Y-132127936D02*
G01*
X64656508Y-131762928D01*
X65021516Y-133832994D01*
X62951450Y-134198002D01*
X62586442Y-132127936D01*
G37*
D13*
X56532524Y-39231261D03*
X52435571Y-44707490D03*
X62867896Y-39696840D03*
D14*
G36*
X58734197Y-51063262D02*
G01*
X60764573Y-51607300D01*
X60220535Y-53637676D01*
X58190159Y-53093638D01*
X58734197Y-51063262D01*
G37*
G36*
X63667421Y-41152368D02*
G01*
X65697797Y-41696406D01*
X65179641Y-43630190D01*
X63149265Y-43086152D01*
X63667421Y-41152368D01*
G37*
D13*
X60279705Y-49356099D03*
X63698837Y-45095871D03*
D14*
G36*
X53017403Y-48289120D02*
G01*
X55047779Y-48833158D01*
X54503741Y-50863534D01*
X52473365Y-50319496D01*
X53017403Y-48289120D01*
G37*
D13*
X53750372Y-39800587D03*
D15*
X57999875Y-43568839D03*
D16*
X56576370Y-48881431D03*
X59423380Y-38256247D03*
D17*
X59314676Y-38661936D03*
X56685074Y-48475742D03*
D13*
X54560323Y-46591616D03*
D14*
G36*
X53799189Y-35557647D02*
G01*
X55829565Y-36101685D01*
X55285527Y-38132061D01*
X53255151Y-37588023D01*
X53799189Y-35557647D01*
G37*
G36*
X83394680Y-164860403D02*
G01*
X84178669Y-166022714D01*
X82620078Y-167073997D01*
X81836089Y-165911686D01*
X83394680Y-164860403D01*
G37*
D19*
X78231293Y-169188711D02*
X77835013Y-169456005D01*
D13*
X28191695Y-52758652D03*
X24190940Y-58305548D03*
X34534228Y-53113592D03*
D14*
G36*
X30599530Y-64550425D02*
G01*
X32639092Y-65058945D01*
X32130572Y-67098507D01*
X30091010Y-66589987D01*
X30599530Y-64550425D01*
G37*
G36*
X35359033Y-54554945D02*
G01*
X37398595Y-55063465D01*
X36914267Y-57005997D01*
X34874705Y-56497477D01*
X35359033Y-54554945D01*
G37*
D13*
X32115009Y-62816550D03*
X35459269Y-58497299D03*
D14*
G36*
X24835191Y-61876478D02*
G01*
X26874753Y-62384998D01*
X26366233Y-64424560D01*
X24326671Y-63916040D01*
X24835191Y-61876478D01*
G37*
D13*
X25419903Y-53376446D03*
D15*
X29734524Y-57069960D03*
D16*
X28403954Y-62406586D03*
X31065094Y-51733334D03*
D17*
X30963487Y-52140858D03*
X28505561Y-61999062D03*
D13*
X26348250Y-60152305D03*
D14*
G36*
X25394663Y-49133300D02*
G01*
X27434225Y-49641820D01*
X26925705Y-51681382D01*
X24886143Y-51172862D01*
X25394663Y-49133300D01*
G37*
D13*
X44684303Y-56881024D03*
X40683548Y-62427920D03*
X51026836Y-57235964D03*
D14*
G36*
X47092138Y-68672797D02*
G01*
X49131700Y-69181317D01*
X48623180Y-71220879D01*
X46583618Y-70712359D01*
X47092138Y-68672797D01*
G37*
G36*
X51851641Y-58677317D02*
G01*
X53891203Y-59185837D01*
X53406875Y-61128369D01*
X51367313Y-60619849D01*
X51851641Y-58677317D01*
G37*
D13*
X48607617Y-66938922D03*
X51951877Y-62619671D03*
D14*
G36*
X41327799Y-65998850D02*
G01*
X43367361Y-66507370D01*
X42858841Y-68546932D01*
X40819279Y-68038412D01*
X41327799Y-65998850D01*
G37*
D13*
X41912511Y-57498818D03*
D15*
X46227132Y-61192332D03*
D16*
X44896562Y-66528958D03*
X47557702Y-55855706D03*
D17*
X47456095Y-56263230D03*
X44998169Y-66121434D03*
D13*
X42840858Y-64274677D03*
D14*
G36*
X41887271Y-53255672D02*
G01*
X43926833Y-53764192D01*
X43418313Y-55803754D01*
X41378751Y-55295234D01*
X41887271Y-53255672D01*
G37*
D13*
X28774219Y-122076788D03*
X27258850Y-128745952D03*
X34751238Y-119925288D03*
D14*
G36*
X35598056Y-131990357D02*
G01*
X37674177Y-131661532D01*
X38003002Y-133737653D01*
X35926881Y-134066478D01*
X35598056Y-131990357D01*
G37*
G36*
X36073657Y-120929783D02*
G01*
X38149778Y-120600957D01*
X38462959Y-122578309D01*
X36386838Y-122907135D01*
X36073657Y-120929783D01*
G37*
D13*
X36315582Y-129802171D03*
X37706324Y-124519574D03*
D14*
G36*
X29247159Y-131781282D02*
G01*
X31323280Y-131452457D01*
X31652105Y-133528578D01*
X29575984Y-133857403D01*
X29247159Y-131781282D01*
G37*
D13*
X26464163Y-123728496D03*
D15*
X31878963Y-125442537D03*
D16*
X32739353Y-130874823D03*
X31018573Y-120010251D03*
D17*
X31084276Y-120425080D03*
X32673650Y-130459994D03*
D13*
X29966250Y-129602973D03*
D14*
G36*
X24783000Y-119832521D02*
G01*
X26859121Y-119503696D01*
X27187946Y-121579817D01*
X25111825Y-121908642D01*
X24783000Y-119832521D01*
G37*
G36*
X59549422Y-93168397D02*
G01*
X59695971Y-94562717D01*
X57826270Y-94759231D01*
X57679721Y-93364911D01*
X59549422Y-93168397D01*
G37*
D19*
X52958405Y-94566002D02*
X52483023Y-94615966D01*
D14*
G36*
X85576521Y-95910480D02*
G01*
X85552053Y-97312266D01*
X83672339Y-97279456D01*
X83696807Y-95877670D01*
X85576521Y-95910480D01*
G37*
D19*
X78864308Y-96494425D02*
X78386380Y-96486083D01*
D14*
G36*
X85346962Y-113657112D02*
G01*
X85566284Y-115041851D01*
X83709430Y-115335948D01*
X83490108Y-113951209D01*
X85346962Y-113657112D01*
G37*
D19*
X78838124Y-115397748D02*
X78366008Y-115472524D01*
D14*
G36*
X88362584Y-131197281D02*
G01*
X88819031Y-132522898D01*
X87041456Y-133134967D01*
X86585009Y-131809350D01*
X88362584Y-131197281D01*
G37*
D19*
X82254887Y-134041721D02*
X81802929Y-134197343D01*
D13*
X62355618Y-116758016D03*
X60840249Y-123427180D03*
X68332637Y-114606516D03*
D14*
G36*
X69179455Y-126671585D02*
G01*
X71255576Y-126342760D01*
X71584401Y-128418881D01*
X69508280Y-128747706D01*
X69179455Y-126671585D01*
G37*
G36*
X69655056Y-115611011D02*
G01*
X71731177Y-115282185D01*
X72044358Y-117259537D01*
X69968237Y-117588363D01*
X69655056Y-115611011D01*
G37*
D13*
X69896981Y-124483399D03*
X71287723Y-119200802D03*
D14*
G36*
X62828558Y-126462510D02*
G01*
X64904679Y-126133685D01*
X65233504Y-128209806D01*
X63157383Y-128538631D01*
X62828558Y-126462510D01*
G37*
D13*
X60045562Y-118409724D03*
D15*
X65460362Y-120123765D03*
D16*
X66320752Y-125556051D03*
X64599972Y-114691479D03*
D17*
X64665675Y-115106308D03*
X66255049Y-125141222D03*
D13*
X63547649Y-124284201D03*
D14*
G36*
X58364399Y-114513749D02*
G01*
X60440520Y-114184924D01*
X60769345Y-116261045D01*
X58693224Y-116589870D01*
X58364399Y-114513749D01*
G37*
D13*
X23333313Y-81832057D03*
X21016472Y-88266833D03*
X29527982Y-80425009D03*
D14*
G36*
X28898126Y-92503349D02*
G01*
X30998845Y-92429990D01*
X31072204Y-94530709D01*
X28971485Y-94604068D01*
X28898126Y-92503349D01*
G37*
G36*
X30718126Y-81583179D02*
G01*
X32818845Y-81509820D01*
X32888714Y-83510601D01*
X30787995Y-83583960D01*
X30718126Y-81583179D01*
G37*
D13*
X29876977Y-90418917D03*
X31901139Y-85345184D03*
D14*
G36*
X22620048Y-91521852D02*
G01*
X24720767Y-91448493D01*
X24794126Y-93549212D01*
X22693407Y-93622571D01*
X22620048Y-91521852D01*
G37*
D13*
X20839183Y-83189928D03*
D15*
X26004733Y-85551091D03*
D16*
X26196680Y-91047741D03*
X25812786Y-80054441D03*
D17*
X25827444Y-80474186D03*
X26182022Y-90627996D03*
D13*
X23599247Y-89447415D03*
D14*
G36*
X19645351Y-79118112D02*
G01*
X21746070Y-79044753D01*
X21819429Y-81145472D01*
X19718710Y-81218831D01*
X19645351Y-79118112D01*
G37*
D23*
X58150000Y-179300000D03*
X64569974Y-178283176D03*
D14*
G36*
X51289831Y-131704279D02*
G01*
X51509153Y-133089018D01*
X49652299Y-133383115D01*
X49432977Y-131998376D01*
X51289831Y-131704279D01*
G37*
D19*
X44780993Y-133444915D02*
X44308877Y-133519691D01*
M02*
