M48
; DRILL file {KiCad (5.1.5)-3} date 2021/04/25 1:53:19
; FORMAT={-:-/ absolute / metric / decimal}
; #@! TF.CreationDate,2021-04-25T01:53:19+09:00
; #@! TF.GenerationSoftware,Kicad,Pcbnew,(5.1.5)-3
; #@! TF.FileFunction,Plated,1,2,PTH
FMAT,2
METRIC
T1C0.400
T2C0.813
T3C1.000
T4C1.300
T5C3.200
%
G90
G05
T1
X-148.8Y58.8
X16.339Y-81.132
X16.57Y-60.396
X16.603Y-110.271
X16.826Y-23.289
X16.826Y-39.792
X18.397Y-95.194
X21.002Y-128.081
X21.557Y-119.155
X23.079Y-48.71
X23.181Y-16.626
X24.873Y-70.697
X25.18Y-30.413
X25.444Y-133.975
X25.743Y-145.251
X26.147Y-93.961
X26.954Y-75.187
X27.323Y-65.777
X28.89Y-114.09
X29.501Y-149.565
X29.762Y-158.068
X31.642Y-164.517
X32.203Y-36.343
X33.166Y-76.724
X33.169Y-94.187
X33.307Y-157.171
X33.494Y-20.783
X33.598Y-67.148
X34.119Y-172.418
X34.35Y-109.76
X34.693Y-133.493
X34.76Y-178.355
X34.903Y-123.247
X35.913Y-162.851
X36.056Y-68.544
X36.342Y-113.671
X37.409Y-46.588
X38.128Y-151.768
X38.219Y-171.223
X38.516Y-72.788
X39.244Y-154.736
X40.098Y-176.988
X41.244Y-25.026
X42.277Y-183.224
X42.535Y-40.894
X43.3Y-113.45
X44.0Y-93.772
X44.291Y-111.638
X44.583Y-152.729
X45.185Y-69.035
X45.6Y-73.85
X45.896Y-150.509
X46.533Y-42.247
X47.033Y-148.967
X47.829Y-177.629
X48.44Y-30.377
X48.788Y-152.054
X49.302Y-43.808
X49.7Y-98.1
X49.9Y-94.55
X49.924Y-130.374
X50.0Y-90.7
X50.1Y-125.65
X51.15Y-108.0
X51.501Y-151.799
X51.8Y-111.3
X51.95Y-68.85
X52.372Y-150.141
X52.929Y-72.384
X53.498Y-148.752
X54.203Y-113.597
X54.621Y-29.95
X55.02Y-18.569
X55.35Y-175.208
X55.575Y-149.525
X55.943Y-73.491
X56.004Y-53.441
X56.969Y-182.968
X57.498Y-130.307
X57.507Y-128.211
X59.335Y-36.477
X60.821Y-132.78
X60.835Y-91.935
X61.398Y-109.598
X62.325Y-72.925
X62.477Y-134.641
X63.269Y-138.785
X63.39Y-154.538
X65.003Y-147.432
X65.712Y-150.885
X66.182Y-165.152
X66.394Y-127.356
X66.452Y-152.911
X66.482Y-183.425
X67.4Y-170.55
X68.595Y-74.186
X68.732Y-160.832
X68.816Y-79.721
X69.902Y-170.492
X69.923Y-108.653
X70.502Y-163.082
X70.922Y-166.982
X71.12Y-91.101
X71.385Y-57.986
X71.536Y-145.814
X72.115Y-35.732
X72.369Y-16.854
X72.407Y-179.836
X72.48Y-73.892
X72.824Y-55.141
X73.61Y-100.881
X74.06Y-117.502
X74.582Y-166.022
X74.74Y-163.41
X74.794Y-125.923
X74.961Y-81.48
X75.08Y-104.332
X75.089Y-62.156
X75.326Y-86.223
X75.452Y-169.292
X76.19Y-129.083
X77.33Y-112.192
X77.879Y-183.484
X77.9Y-122.062
X78.02Y-117.382
X78.08Y-134.783
X78.171Y-179.836
X78.39Y-64.99
X79.22Y-138.143
X79.547Y-22.816
X80.27Y-128.693
X80.39Y-132.503
X82.292Y-175.952
X83.06Y-72.578
X83.279Y-87.755
X83.862Y-38.212
X84.634Y-147.016
X84.798Y-112.952
X86.854Y-93.811
X87.007Y-147.207
X88.094Y-183.119
X89.369Y-129.526
X89.699Y-60.102
X90.93Y-161.158
X92.253Y-93.154
X92.306Y-178.594
X94.173Y-147.304
X95.901Y-128.104
X96.193Y-85.639
X96.412Y-119.713
X96.558Y-107.674
X97.23Y-171.089
X97.68Y-173.759
X97.89Y-165.478
X99.258Y-120.516
X99.987Y-176.406
X100.936Y-143.864
X101.859Y-162.809
X104.657Y-133.358
X105.387Y-118.035
X108.889Y-159.77
X113.778Y-149.628
X113.798Y-176.937
X114.907Y-181.138
X120.216Y-176.273
T2
X52.593Y-76.147
X58.589Y-75.938
X82.029Y-134.12
X87.702Y-132.166
X27.926Y-136.362
X33.835Y-135.32
X49.563Y-39.848
X51.116Y-34.052
X18.932Y-98.142
X24.899Y-97.515
X23.635Y-118.142
X29.562Y-117.204
X36.036Y-96.093
X42.003Y-95.466
X78.033Y-169.322
X83.007Y-165.967
X40.499Y-115.581
X46.425Y-114.643
X57.217Y-112.823
X63.143Y-111.885
X78.602Y-115.435
X84.528Y-114.497
X32.541Y-159.659
X34.106Y-160.592
X34.994Y-159.002
X36.48Y-174.361
X36.559Y-159.935
X37.448Y-158.344
X38.05Y-175.313
X38.933Y-173.703
X39.013Y-159.278
X39.901Y-157.687
X40.503Y-174.656
X41.387Y-173.046
X41.466Y-158.62
X42.355Y-157.03
X42.957Y-173.998
X43.84Y-172.388
X43.919Y-157.963
X44.808Y-156.372
X45.41Y-173.341
X46.294Y-171.731
X46.373Y-157.305
X47.261Y-155.715
X47.864Y-172.683
X48.747Y-171.074
X48.826Y-156.648
X49.715Y-155.057
X50.317Y-172.026
X51.201Y-170.416
X51.28Y-155.991
X52.168Y-154.4
X52.771Y-171.369
X53.654Y-169.759
X53.733Y-155.333
X54.622Y-153.743
X55.224Y-170.711
X56.108Y-169.101
X56.187Y-154.676
X57.075Y-153.085
X57.678Y-170.054
X58.561Y-168.444
X58.64Y-154.018
X59.529Y-152.428
X60.131Y-169.396
X61.015Y-167.787
X61.094Y-153.361
X62.585Y-168.739
X63.468Y-167.129
X65.038Y-168.082
X41.576Y-51.324
X47.398Y-52.776
X61.41Y-130.458
X67.318Y-129.416
X44.545Y-133.482
X50.471Y-132.544
X88.44Y-152.086
X93.688Y-149.177
X52.721Y-94.591
X58.688Y-93.964
X98.096Y-168.495
X102.758Y-164.719
X69.313Y-37.911
X75.109Y-39.464
X35.603Y-76.741
X41.599Y-76.531
X57.612Y-17.583
X63.408Y-19.136
X25.081Y-47.211
X30.903Y-48.663
X18.613Y-77.334
X24.61Y-77.125
X78.625Y-96.49
X84.624Y-96.595
X58.071Y-55.437
X63.893Y-56.888
X69.696Y-151.874
X75.177Y-149.433
T4
X58.15Y-179.3
X64.57Y-178.283
T5
X129.0Y-181.0
X110.0Y-19.0
X210.0Y-180.4
X167.0Y-20.0
X220.448Y-180.0
X38.0Y-181.0
X76.0Y-20.0
X19.0Y-19.0
X177.448Y-19.6
X277.448Y-181.0
X258.448Y-19.0
X119.0Y-180.4
T3
G00X69.237Y-176.078
M15
G01X69.219Y-175.578
M16
G05
G00X69.376Y-180.075
M15
G01X69.359Y-179.576
M16
G05
G00X69.481Y-183.073
M15
G01X69.463Y-182.574
M16
G05
G00X70.933Y-174.518
M15
G01X70.916Y-174.018
M16
G05
G00X73.382Y-174.432
M15
G01X73.364Y-173.932
M16
G05
G00X75.183Y-175.87
M15
G01X75.165Y-175.37
M16
G05
G00X75.323Y-179.868
M15
G01X75.305Y-179.368
M16
G05
G00X75.427Y-182.866
M15
G01X75.41Y-182.366
M16
G05
T0
M30
