G04 #@! TF.GenerationSoftware,KiCad,Pcbnew,(5.1.5)-3*
G04 #@! TF.CreationDate,2021-04-25T01:53:19+09:00*
G04 #@! TF.ProjectId,moon50_pcb,6d6f6f6e-3530-45f7-9063-622e6b696361,rev?*
G04 #@! TF.SameCoordinates,Original*
G04 #@! TF.FileFunction,Profile,NP*
%FSLAX46Y46*%
G04 Gerber Fmt 4.6, Leading zero omitted, Abs format (unit mm)*
G04 Created by KiCad (PCBNEW (5.1.5)-3) date 2021-04-25 01:53:19*
%MOMM*%
%LPD*%
G04 APERTURE LIST*
%ADD10C,0.050000*%
%ADD11C,0.001000*%
G04 APERTURE END LIST*
D10*
X11666666Y-10000000D02*
G75*
G03X11666666Y-10000000I-1666666J0D01*
G01*
X7500000Y-10000000D02*
X12500000Y-10000000D01*
X10000000Y-7500000D02*
X10000000Y-12500000D01*
D11*
X150658600Y-128109000D02*
X164445500Y-125926000D01*
X169668500Y-97864000D02*
X169424500Y-111821000D01*
X185950500Y-128483000D02*
X183766500Y-114696000D01*
X259448400Y-14000000D02*
X263500000Y-14000000D01*
X266000000Y-15000000D02*
X282500000Y-15000000D01*
X266000000Y-15000000D02*
G75*
G02X266000400Y-14000000I0J500000D01*
G01*
X263500000Y-14000000D02*
G75*
G02X263500000Y-15000000I0J-500000D01*
G01*
X263500000Y-15000000D02*
X282500000Y-87500000D01*
X10000000Y-14000000D02*
G75*
G02X10000000Y-15000000I0J-500000D01*
G01*
X14500000Y-185001000D02*
X13500000Y-15000000D01*
X13500000Y-15000000D02*
G75*
G02X13500400Y-14000000I0J500000D01*
G01*
X10000000Y-185000000D02*
G75*
G02X10000000Y-186000000I0J-500000D01*
G01*
X14500000Y-186000000D02*
G75*
G02X14500000Y-185000000I0J500000D01*
G01*
X10000000Y-185000000D02*
X10000000Y-15000000D01*
X282500000Y-14000000D02*
G75*
G02X282500000Y-15000000I0J-500000D01*
G01*
X286000000Y-15000000D02*
G75*
G02X286000400Y-14000000I0J500000D01*
G01*
X282500000Y-185000000D02*
G75*
G02X282500000Y-186000000I0J-500000D01*
G01*
X287000000Y-186000000D02*
G75*
G02X287000000Y-185000000I0J500000D01*
G01*
X287000000Y-185001000D02*
X286000000Y-15000000D01*
X282500000Y-185000000D02*
X282500000Y-87500000D01*
X287000000Y-190001000D02*
X287000000Y-186000000D01*
X286000000Y-14000000D02*
X286000000Y-10000000D01*
X281448300Y-185000000D02*
X281448200Y-185000000D01*
X261448100Y-15000000D02*
X261448200Y-15000000D01*
X275948000Y-186000000D02*
X221948400Y-186000000D01*
X182948000Y-14000000D02*
X255948000Y-14000000D01*
X261448500Y-15000000D02*
X261448500Y-15000000D01*
X218448400Y-185000000D02*
X217008000Y-185000000D01*
X255948000Y-14000000D02*
G75*
G02X255948000Y-15000000I0J-500000D01*
G01*
X182948000Y-15000000D02*
X255948000Y-15000000D01*
X182948000Y-15000000D02*
G75*
G02X182948000Y-14000000I0J500000D01*
G01*
X275948000Y-185000000D02*
X221948400Y-185000000D01*
X261448400Y-15000000D02*
X261448400Y-15000000D01*
X208000000Y-186000000D02*
X218448400Y-186000000D01*
X261448000Y-15000000D02*
X261448100Y-15000000D01*
X275948000Y-185000000D02*
G75*
G02X275948000Y-186000000I0J-500000D01*
G01*
X282500000Y-185999000D02*
X279448000Y-186000000D01*
X261448400Y-15000000D02*
X261448500Y-15000000D01*
X281448500Y-185000000D02*
X281448400Y-185000000D01*
X266000400Y-14000000D02*
X282500000Y-14000000D01*
X172556291Y-19091748D02*
G75*
G02X175700000Y-15000000I3141709J839748D01*
G01*
X175700000Y-15000000D02*
X179448000Y-15000000D01*
X279448400Y-186000000D02*
G75*
G02X279448400Y-185000000I0J500000D01*
G01*
X172556292Y-19091748D02*
X217008000Y-185000000D01*
X281448400Y-185000000D02*
X281448300Y-185000000D01*
X281448500Y-89642000D02*
X281448500Y-185000000D01*
X179448000Y-14000000D02*
G75*
G02X179448000Y-15000000I0J-500000D01*
G01*
X261448500Y-15000000D02*
X281448500Y-89642000D01*
X261448400Y-15000000D02*
X261448400Y-15000000D01*
X261448300Y-15000000D02*
X261448400Y-15000000D01*
X281448000Y-185000000D02*
X279448000Y-185000000D01*
X221948400Y-186000000D02*
G75*
G02X221948400Y-185000000I0J500000D01*
G01*
X259448000Y-15000000D02*
G75*
G02X259448400Y-14000000I0J500000D01*
G01*
X261448200Y-15000000D02*
X261448300Y-15000000D01*
X259448001Y-15000000D02*
X261448000Y-15000000D01*
X218448400Y-185000000D02*
G75*
G02X218448400Y-186000000I0J-500000D01*
G01*
X281448200Y-185000000D02*
X281448100Y-185000000D01*
X183381499Y-112065000D02*
X183625499Y-98108000D01*
X169424500Y-111821000D02*
X183381499Y-112065000D01*
X183625499Y-98108000D02*
X169668500Y-97864000D01*
X181419500Y-162704900D02*
X169847500Y-170510700D01*
X177653500Y-182083300D02*
X189225500Y-174277500D01*
X169847500Y-170510700D02*
X177653500Y-182083300D01*
X189225500Y-174277500D02*
X181419500Y-162704900D01*
X191337500Y-144208000D02*
X186792499Y-131009000D01*
X186792499Y-131009000D02*
X173594500Y-135554000D01*
X178138500Y-148752100D02*
X191337500Y-144208000D01*
X173594500Y-135554000D02*
X178138500Y-148752100D01*
X111500000Y-15000000D02*
X165499600Y-15000000D01*
X131500000Y-186000000D02*
G75*
G02X131500000Y-185000000I0J500000D01*
G01*
X111500000Y-14000000D02*
X165500000Y-14000000D01*
X106000000Y-15000000D02*
X107999600Y-15000000D01*
X77999600Y-14000000D02*
X108000000Y-14000000D01*
X107999600Y-14000000D02*
G75*
G02X107999600Y-15000000I0J-500000D01*
G01*
X204500000Y-185000000D02*
X131500000Y-185000000D01*
X211748000Y-185000000D02*
X208000000Y-185000000D01*
X214891709Y-180908252D02*
G75*
G02X211748000Y-185000000I-3141709J-839748D01*
G01*
X109785900Y-78819000D02*
X110273100Y-92770000D01*
X123736400Y-78332000D02*
X109785900Y-78819000D01*
X110273100Y-92770000D02*
X124223600Y-92283000D01*
X124002900Y-98041000D02*
X110120300Y-99501000D01*
X124223600Y-92283000D02*
X123736400Y-78332000D01*
X111579500Y-113383000D02*
X125462000Y-111924001D01*
X110120300Y-99501000D02*
X111579500Y-113383000D01*
X125462000Y-111924001D02*
X124002900Y-98041000D01*
X129195200Y-51986000D02*
X115650800Y-48609000D01*
X115650800Y-48609000D02*
X112273900Y-62154000D01*
X125818200Y-65531000D02*
X129195200Y-51986000D01*
X112273900Y-62154000D02*
X125818200Y-65531000D01*
X121634300Y-151602700D02*
X135381200Y-149178800D01*
X119210300Y-137856000D02*
X121634300Y-151602700D01*
X135381200Y-149178800D02*
X132957300Y-135432000D01*
X132957300Y-135432000D02*
X119210300Y-137856000D01*
X140726000Y-77739000D02*
X126775500Y-78226000D01*
X127262700Y-92177000D02*
X141213200Y-91689000D01*
X141213200Y-91689000D02*
X140726000Y-77739000D01*
X126775500Y-78226000D02*
X127262700Y-92177000D01*
X142368900Y-110147000D02*
X140909700Y-96264000D01*
X127027200Y-97724000D02*
X128486300Y-111606000D01*
X128486300Y-111606000D02*
X142368900Y-110147000D01*
X131684300Y-116981000D02*
X133867900Y-130769000D01*
X140909700Y-96264000D02*
X127027200Y-97724000D01*
X147655700Y-128586000D02*
X147655700Y-128586000D01*
X145471400Y-114798001D02*
X131684300Y-116981000D01*
X147656000Y-128586000D02*
X147656000Y-128586000D01*
X140451800Y-48504000D02*
X153935100Y-52117000D01*
X147655100Y-128585000D02*
X145471400Y-114798001D01*
X147655700Y-128586000D02*
X147655700Y-128586000D01*
X147655800Y-128586000D02*
X147655700Y-128586000D01*
X147655700Y-128586000D02*
X147655700Y-128586000D01*
X147656000Y-128586000D02*
X147655900Y-128586000D01*
X147655900Y-128586000D02*
X147655800Y-128586000D01*
X133867900Y-130769000D02*
X147655100Y-128585000D01*
X144064600Y-35021000D02*
X140451800Y-48504000D01*
X147656100Y-128585000D02*
X147656100Y-128585000D01*
X138376000Y-148650700D02*
X152122900Y-146226800D01*
X147656100Y-128585000D02*
X147656100Y-128585000D01*
X157547500Y-38634000D02*
X144064600Y-35021000D01*
X149699000Y-132480000D02*
X135952100Y-134904000D01*
X147656100Y-128585000D02*
X147656100Y-128585000D01*
X135952100Y-134904000D02*
X138376000Y-148650700D01*
X147656100Y-128586000D02*
X147656000Y-128586000D01*
X147656100Y-128585000D02*
X147656100Y-128586000D01*
X152122900Y-146226800D02*
X149699000Y-132480000D01*
X147656100Y-128585000D02*
X147656100Y-128585000D01*
X114893600Y-119641000D02*
X117077200Y-133428000D01*
X117077200Y-133428000D02*
X130864400Y-131244000D01*
X128680700Y-117457000D02*
X114893600Y-119641000D01*
X130864400Y-131244000D02*
X128680700Y-117457000D01*
X157519500Y-77152000D02*
X143568900Y-77639000D01*
X143568900Y-77639000D02*
X144056000Y-91589000D01*
X153935100Y-52117000D02*
X157547500Y-38634000D01*
X144056000Y-91589000D02*
X158006500Y-91102000D01*
X158006500Y-91102000D02*
X157519500Y-77152000D01*
X145393200Y-109829000D02*
X159275500Y-108370000D01*
X159275500Y-108370000D02*
X157816500Y-94487000D01*
X143934100Y-95947000D02*
X145393200Y-109829000D01*
X144625700Y-32540000D02*
X158109500Y-36153000D01*
X157816500Y-94487000D02*
X143934100Y-95947000D01*
X161721500Y-22670000D02*
X148238500Y-19057000D01*
X158109500Y-36153000D02*
X161721500Y-22670000D01*
X148238500Y-19057000D02*
X144625700Y-32540000D01*
X132143400Y-52732000D02*
X128766500Y-66276000D01*
X142310800Y-69653000D02*
X145687800Y-56109000D01*
X145687800Y-56109000D02*
X132143400Y-52732000D01*
X128766500Y-66276000D02*
X142310800Y-69653000D01*
X148638500Y-56844000D02*
X145261500Y-70389000D01*
X158805500Y-73766000D02*
X162182500Y-60221000D01*
X162182500Y-60221000D02*
X148638500Y-56844000D01*
X162262500Y-112138001D02*
X148475000Y-114322001D01*
X145261500Y-70389000D02*
X158805500Y-73766000D01*
X148475000Y-114322001D02*
X150658600Y-128109000D01*
X164445500Y-125926000D02*
X162262500Y-112138001D01*
X169872500Y-56387000D02*
X173485500Y-42904000D01*
X173485500Y-42904000D02*
X160002500Y-39291000D01*
X174058500Y-147566600D02*
X161306500Y-153244200D01*
X156389500Y-52775000D02*
X169872500Y-56387000D01*
X161306500Y-153244200D02*
X166984500Y-165996400D01*
X166984500Y-165996400D02*
X179736500Y-160318800D01*
X179736500Y-160318800D02*
X174058500Y-147566600D01*
X155117500Y-145698700D02*
X168864500Y-143275000D01*
X152693800Y-131952000D02*
X155117500Y-145698700D01*
X166440500Y-129528000D02*
X152693800Y-131952000D01*
X168864500Y-143275000D02*
X166440500Y-129528000D01*
X160002500Y-39291000D02*
X156389500Y-52775000D01*
X169979500Y-116879000D02*
X183767500Y-114695000D01*
X172163500Y-130667000D02*
X185950500Y-128483000D01*
X199328500Y-158720000D02*
X192561500Y-146511200D01*
X192561500Y-146511200D02*
X180352500Y-153278700D01*
X169979500Y-116879000D02*
X172163500Y-130667000D01*
X187119499Y-165487500D02*
X199328500Y-158720000D01*
X180352500Y-153278700D02*
X187119499Y-165487500D01*
X209712500Y-171635800D02*
X200928500Y-160787600D01*
X190080500Y-169572300D02*
X198864500Y-180420500D01*
X200928500Y-160787600D02*
X190080500Y-169572300D01*
X198864500Y-180420500D02*
X209712500Y-171635800D01*
X179448000Y-14000000D02*
X168999600Y-14000000D01*
X111500000Y-15000000D02*
G75*
G02X111500000Y-14000000I0J500000D01*
G01*
X214891708Y-180908252D02*
X170440000Y-15000000D01*
X168999600Y-15000000D02*
G75*
G02X168999600Y-14000000I0J500000D01*
G01*
X165499600Y-14000000D02*
G75*
G02X165499600Y-15000000I0J-500000D01*
G01*
X127999999Y-185000000D02*
X126000000Y-185000000D01*
X126000000Y-185000000D02*
X106000000Y-110358000D01*
X208000000Y-186000000D02*
G75*
G02X208000000Y-185000000I0J500000D01*
G01*
X204500000Y-186000000D02*
X131500000Y-186000000D01*
X204500000Y-185000000D02*
G75*
G02X204500000Y-186000000I0J-500000D01*
G01*
X168999600Y-15000000D02*
X170440000Y-15000000D01*
X128000000Y-185000000D02*
G75*
G02X127999600Y-186000000I0J-500000D01*
G01*
X106000000Y-110358000D02*
X106000000Y-15000000D01*
X123891709Y-180908252D02*
G75*
G02X120748000Y-185000000I-3141709J-839748D01*
G01*
X123891708Y-180908252D02*
X79440000Y-15000000D01*
X20500000Y-14000000D02*
X74499600Y-14000000D01*
X10000000Y-10000000D02*
X286000000Y-10000000D01*
X287000000Y-190000000D02*
X10000000Y-190000000D01*
X127999600Y-186000000D02*
X117000000Y-186000000D01*
X13500400Y-14000000D02*
X17000000Y-14000000D01*
X14999600Y-15000000D02*
X14999700Y-15000000D01*
X35000000Y-185000000D02*
X14999500Y-110358000D01*
X14999700Y-15000000D02*
X14999800Y-15000000D01*
X74499600Y-14000000D02*
G75*
G02X74499600Y-15000000I0J-500000D01*
G01*
X77999600Y-15000000D02*
G75*
G02X77999600Y-14000000I0J500000D01*
G01*
X20500000Y-15000000D02*
G75*
G02X20500000Y-14000000I0J500000D01*
G01*
X117000000Y-186000000D02*
G75*
G02X117000000Y-185000000I0J500000D01*
G01*
X10000000Y-14000000D02*
X10000000Y-10000000D01*
X14999500Y-110358000D02*
X14999500Y-15000000D01*
X36999600Y-186000000D02*
X14500000Y-186000000D01*
X16999600Y-14000000D02*
G75*
G02X16999600Y-15000000I0J-500000D01*
G01*
X37000000Y-185000000D02*
G75*
G02X36999600Y-186000000I0J-500000D01*
G01*
X35000000Y-185000000D02*
X37000000Y-185000000D01*
X120748000Y-185000000D02*
X117000000Y-185000000D01*
X14999800Y-15000000D02*
X14999900Y-15000000D01*
X14999500Y-15000000D02*
X14999600Y-15000000D01*
X15000000Y-15000000D02*
X17000000Y-15000000D01*
X113500000Y-185000000D02*
G75*
G02X113500000Y-186000000I0J-500000D01*
G01*
X10000000Y-190000000D02*
X10000000Y-186000000D01*
X113500000Y-185000000D02*
X40500000Y-185000000D01*
X40500000Y-186000000D02*
G75*
G02X40500000Y-185000000I0J500000D01*
G01*
X20500000Y-15000000D02*
X74500000Y-15000000D01*
X77999600Y-15000000D02*
X79440000Y-15000000D01*
X113500000Y-186000000D02*
X40500000Y-186000000D01*
M02*
