G04 #@! TF.GenerationSoftware,KiCad,Pcbnew,(5.1.5)-3*
G04 #@! TF.CreationDate,2021-04-25T01:53:19+09:00*
G04 #@! TF.ProjectId,moon50_pcb,6d6f6f6e-3530-45f7-9063-622e6b696361,rev?*
G04 #@! TF.SameCoordinates,Original*
G04 #@! TF.FileFunction,Legend,Top*
G04 #@! TF.FilePolarity,Positive*
%FSLAX46Y46*%
G04 Gerber Fmt 4.6, Leading zero omitted, Abs format (unit mm)*
G04 Created by KiCad (PCBNEW (5.1.5)-3) date 2021-04-25 01:53:19*
%MOMM*%
%LPD*%
G04 APERTURE LIST*
%ADD10C,0.300000*%
%ADD11C,0.150000*%
%ADD12C,0.125000*%
%ADD13C,0.100000*%
%ADD14C,3.102000*%
%ADD15C,4.102000*%
%ADD16C,2.002000*%
%ADD17C,1.802000*%
%ADD18C,5.702000*%
%ADD19C,1.802000*%
%ADD20C,1.302000*%
%ADD21C,1.626000*%
G04 APERTURE END LIST*
D10*
X279678571Y-43500000D02*
X278178571Y-43500000D01*
X279250000Y-43000000D01*
X278178571Y-42500000D01*
X279678571Y-42500000D01*
X279678571Y-41571428D02*
X279607142Y-41714285D01*
X279535714Y-41785714D01*
X279392857Y-41857142D01*
X278964285Y-41857142D01*
X278821428Y-41785714D01*
X278750000Y-41714285D01*
X278678571Y-41571428D01*
X278678571Y-41357142D01*
X278750000Y-41214285D01*
X278821428Y-41142857D01*
X278964285Y-41071428D01*
X279392857Y-41071428D01*
X279535714Y-41142857D01*
X279607142Y-41214285D01*
X279678571Y-41357142D01*
X279678571Y-41571428D01*
X279678571Y-40214285D02*
X279607142Y-40357142D01*
X279535714Y-40428571D01*
X279392857Y-40500000D01*
X278964285Y-40500000D01*
X278821428Y-40428571D01*
X278750000Y-40357142D01*
X278678571Y-40214285D01*
X278678571Y-40000000D01*
X278750000Y-39857142D01*
X278821428Y-39785714D01*
X278964285Y-39714285D01*
X279392857Y-39714285D01*
X279535714Y-39785714D01*
X279607142Y-39857142D01*
X279678571Y-40000000D01*
X279678571Y-40214285D01*
X278678571Y-39071428D02*
X279678571Y-39071428D01*
X278821428Y-39071428D02*
X278750000Y-39000000D01*
X278678571Y-38857142D01*
X278678571Y-38642857D01*
X278750000Y-38500000D01*
X278892857Y-38428571D01*
X279678571Y-38428571D01*
X278178571Y-37000000D02*
X278178571Y-37714285D01*
X278892857Y-37785714D01*
X278821428Y-37714285D01*
X278750000Y-37571428D01*
X278750000Y-37214285D01*
X278821428Y-37071428D01*
X278892857Y-37000000D01*
X279035714Y-36928571D01*
X279392857Y-36928571D01*
X279535714Y-37000000D01*
X279607142Y-37071428D01*
X279678571Y-37214285D01*
X279678571Y-37571428D01*
X279607142Y-37714285D01*
X279535714Y-37785714D01*
X278178571Y-36000000D02*
X278178571Y-35857142D01*
X278250000Y-35714285D01*
X278321428Y-35642857D01*
X278464285Y-35571428D01*
X278750000Y-35500000D01*
X279107142Y-35500000D01*
X279392857Y-35571428D01*
X279535714Y-35642857D01*
X279607142Y-35714285D01*
X279678571Y-35857142D01*
X279678571Y-36000000D01*
X279607142Y-36142857D01*
X279535714Y-36214285D01*
X279392857Y-36285714D01*
X279107142Y-36357142D01*
X278750000Y-36357142D01*
X278464285Y-36285714D01*
X278321428Y-36214285D01*
X278250000Y-36142857D01*
X278178571Y-36000000D01*
X279678571Y-33714285D02*
X278678571Y-33714285D01*
X278964285Y-33714285D02*
X278821428Y-33642857D01*
X278750000Y-33571428D01*
X278678571Y-33428571D01*
X278678571Y-33285714D01*
X279607142Y-32214285D02*
X279678571Y-32357142D01*
X279678571Y-32642857D01*
X279607142Y-32785714D01*
X279464285Y-32857142D01*
X278892857Y-32857142D01*
X278750000Y-32785714D01*
X278678571Y-32642857D01*
X278678571Y-32357142D01*
X278750000Y-32214285D01*
X278892857Y-32142857D01*
X279035714Y-32142857D01*
X279178571Y-32857142D01*
X278678571Y-31642857D02*
X279678571Y-31285714D01*
X278678571Y-30928571D01*
X279535714Y-30357142D02*
X279607142Y-30285714D01*
X279678571Y-30357142D01*
X279607142Y-30428571D01*
X279535714Y-30357142D01*
X279678571Y-30357142D01*
X279678571Y-28857142D02*
X279678571Y-29714285D01*
X279678571Y-29285714D02*
X278178571Y-29285714D01*
X278392857Y-29428571D01*
X278535714Y-29571428D01*
X278607142Y-29714285D01*
X278321428Y-27142857D02*
X278250000Y-27071428D01*
X278178571Y-26928571D01*
X278178571Y-26571428D01*
X278250000Y-26428571D01*
X278321428Y-26357142D01*
X278464285Y-26285714D01*
X278607142Y-26285714D01*
X278821428Y-26357142D01*
X279678571Y-27214285D01*
X279678571Y-26285714D01*
X278178571Y-25357142D02*
X278178571Y-25214285D01*
X278250000Y-25071428D01*
X278321428Y-25000000D01*
X278464285Y-24928571D01*
X278750000Y-24857142D01*
X279107142Y-24857142D01*
X279392857Y-24928571D01*
X279535714Y-25000000D01*
X279607142Y-25071428D01*
X279678571Y-25214285D01*
X279678571Y-25357142D01*
X279607142Y-25500000D01*
X279535714Y-25571428D01*
X279392857Y-25642857D01*
X279107142Y-25714285D01*
X278750000Y-25714285D01*
X278464285Y-25642857D01*
X278321428Y-25571428D01*
X278250000Y-25500000D01*
X278178571Y-25357142D01*
X278321428Y-24285714D02*
X278250000Y-24214285D01*
X278178571Y-24071428D01*
X278178571Y-23714285D01*
X278250000Y-23571428D01*
X278321428Y-23500000D01*
X278464285Y-23428571D01*
X278607142Y-23428571D01*
X278821428Y-23500000D01*
X279678571Y-24357142D01*
X279678571Y-23428571D01*
X279678571Y-22000000D02*
X279678571Y-22857142D01*
X279678571Y-22428571D02*
X278178571Y-22428571D01*
X278392857Y-22571428D01*
X278535714Y-22714285D01*
X278607142Y-22857142D01*
X279535714Y-21357142D02*
X279607142Y-21285714D01*
X279678571Y-21357142D01*
X279607142Y-21428571D01*
X279535714Y-21357142D01*
X279678571Y-21357142D01*
X278178571Y-20357142D02*
X278178571Y-20214285D01*
X278250000Y-20071428D01*
X278321428Y-20000000D01*
X278464285Y-19928571D01*
X278750000Y-19857142D01*
X279107142Y-19857142D01*
X279392857Y-19928571D01*
X279535714Y-20000000D01*
X279607142Y-20071428D01*
X279678571Y-20214285D01*
X279678571Y-20357142D01*
X279607142Y-20500000D01*
X279535714Y-20571428D01*
X279392857Y-20642857D01*
X279107142Y-20714285D01*
X278750000Y-20714285D01*
X278464285Y-20642857D01*
X278321428Y-20571428D01*
X278250000Y-20500000D01*
X278178571Y-20357142D01*
X278678571Y-18571428D02*
X279678571Y-18571428D01*
X278107142Y-18928571D02*
X279178571Y-19285714D01*
X279178571Y-18357142D01*
X52119504Y-159559698D02*
X52787338Y-160120236D01*
X52947440Y-159337853D02*
X53335669Y-160786742D01*
X52783711Y-160934639D01*
X52627235Y-160902618D01*
X52539753Y-160852110D01*
X52433784Y-160732608D01*
X52378323Y-160525624D01*
X52410344Y-160369147D01*
X52460851Y-160281666D01*
X52580354Y-160175697D01*
X53132311Y-160027800D01*
X51498552Y-159726082D02*
X51757371Y-160692008D01*
X51886780Y-161174971D02*
X51937288Y-161087489D01*
X51849806Y-161036981D01*
X51799299Y-161124463D01*
X51886780Y-161174971D01*
X51849806Y-161036981D01*
X50446471Y-161043262D02*
X50132191Y-159870352D01*
X50164212Y-159713876D01*
X50214719Y-159626394D01*
X50334222Y-159520425D01*
X50541206Y-159464964D01*
X50697682Y-159496984D01*
X50206139Y-160146331D02*
X50325642Y-160040362D01*
X50601621Y-159966414D01*
X50758097Y-159998434D01*
X50845579Y-160048942D01*
X50951548Y-160168444D01*
X51062470Y-160582413D01*
X51030450Y-160738889D01*
X50979942Y-160826371D01*
X50860440Y-160932340D01*
X50584461Y-161006288D01*
X50427984Y-160974267D01*
X49497705Y-160262207D02*
X49885934Y-161711096D01*
X48876753Y-160428591D02*
X49080111Y-161187532D01*
X49186080Y-161307035D01*
X49342556Y-161339055D01*
X49549540Y-161283594D01*
X49669043Y-161177625D01*
X49719550Y-161090143D01*
X48652609Y-161523926D02*
X48100652Y-161671823D01*
X48575035Y-162062350D02*
X48242267Y-160820446D01*
X48136298Y-160700943D01*
X47979822Y-160668923D01*
X47841833Y-160705897D01*
X46254954Y-161131099D02*
X46643183Y-162579988D01*
X45634002Y-161297483D02*
X45837360Y-162056425D01*
X45943329Y-162175927D01*
X46099805Y-162207948D01*
X46306789Y-162152487D01*
X46426292Y-162046518D01*
X46476799Y-161959036D01*
X44323103Y-161648738D02*
X44526461Y-162407679D01*
X44632429Y-162527182D01*
X44788906Y-162559202D01*
X45064885Y-162485254D01*
X45184387Y-162379285D01*
X44341590Y-161717732D02*
X44461092Y-161611763D01*
X44806066Y-161519328D01*
X44962542Y-161551349D01*
X45068511Y-161670851D01*
X45105485Y-161808840D01*
X45073465Y-161965317D01*
X44953962Y-162071286D01*
X44608989Y-162163721D01*
X44489486Y-162269690D01*
X43891975Y-162799534D02*
X43633156Y-161833608D01*
X43855001Y-162661545D02*
X43804493Y-162749027D01*
X43684991Y-162854995D01*
X43478007Y-162910457D01*
X43321530Y-162878436D01*
X43215561Y-162758934D01*
X43012203Y-161999992D01*
X41701304Y-162351246D02*
X42089533Y-163800135D01*
X41719791Y-162420241D02*
X41839293Y-162314272D01*
X42115272Y-162240324D01*
X42271749Y-162272345D01*
X42359231Y-162322852D01*
X42465199Y-162442354D01*
X42576122Y-162856323D01*
X42544101Y-163012799D01*
X42493594Y-163100281D01*
X42374091Y-163206250D01*
X42098113Y-163280198D01*
X41941636Y-163248178D01*
X55861832Y-162458868D02*
X56250060Y-163907757D01*
X55489791Y-163002246D01*
X55284135Y-164166576D01*
X54895906Y-162717687D01*
X53998975Y-162958019D02*
X54155451Y-162990040D01*
X54242933Y-163040547D01*
X54348902Y-163160050D01*
X54459824Y-163574018D01*
X54427804Y-163730494D01*
X54377296Y-163817976D01*
X54257794Y-163923945D01*
X54050810Y-163979406D01*
X53894333Y-163947386D01*
X53806852Y-163896878D01*
X53700883Y-163777376D01*
X53589960Y-163363408D01*
X53621981Y-163206931D01*
X53672488Y-163119449D01*
X53791991Y-163013480D01*
X53998975Y-162958019D01*
X52688076Y-163309274D02*
X52844552Y-163341294D01*
X52932034Y-163391802D01*
X53038003Y-163511304D01*
X53148925Y-163925272D01*
X53116905Y-164081749D01*
X53066397Y-164169231D01*
X52946895Y-164275199D01*
X52739911Y-164330661D01*
X52583434Y-164298640D01*
X52495952Y-164248133D01*
X52389983Y-164128630D01*
X52279061Y-163714662D01*
X52311082Y-163558186D01*
X52361589Y-163470704D01*
X52481091Y-163364735D01*
X52688076Y-163309274D01*
X51842979Y-164570993D02*
X51584160Y-163605067D01*
X51806005Y-164433003D02*
X51755498Y-164520485D01*
X51635995Y-164626454D01*
X51429011Y-164681915D01*
X51272535Y-164649895D01*
X51166566Y-164530392D01*
X50963208Y-163771451D01*
X49971543Y-165590081D02*
X50661490Y-165405210D01*
X50545614Y-164696776D01*
X50495106Y-164784258D01*
X50375604Y-164890227D01*
X50030630Y-164982662D01*
X49874154Y-164950641D01*
X49786672Y-164900134D01*
X49680703Y-164780631D01*
X49588268Y-164435658D01*
X49620288Y-164279181D01*
X49670796Y-164191700D01*
X49790298Y-164085731D01*
X50135272Y-163993295D01*
X50291748Y-164025316D01*
X50379230Y-164075824D01*
X49005617Y-165848900D02*
X48867627Y-165885874D01*
X48711151Y-165853853D01*
X48623669Y-165803346D01*
X48517700Y-165683843D01*
X48374757Y-165426352D01*
X48282322Y-165081378D01*
X48277368Y-164786912D01*
X48309389Y-164630436D01*
X48359896Y-164542954D01*
X48479399Y-164436985D01*
X48617388Y-164400011D01*
X48773865Y-164432032D01*
X48861346Y-164482539D01*
X48967315Y-164602042D01*
X49110258Y-164859533D01*
X49202694Y-165204507D01*
X49207647Y-165498973D01*
X49175627Y-165655449D01*
X49125119Y-165742931D01*
X49005617Y-165848900D01*
X46409558Y-164991597D02*
X46668377Y-165957523D01*
X46594428Y-165681544D02*
X46562408Y-165838021D01*
X46511900Y-165925503D01*
X46392398Y-166031472D01*
X46254409Y-166068446D01*
X44979156Y-165448821D02*
X45098658Y-165342852D01*
X45374637Y-165268904D01*
X45531114Y-165300924D01*
X45637083Y-165420426D01*
X45784979Y-165972384D01*
X45752959Y-166128861D01*
X45633456Y-166234829D01*
X45357477Y-166308778D01*
X45201001Y-166276757D01*
X45095032Y-166157255D01*
X45058058Y-166019265D01*
X45711031Y-165696405D01*
X44667530Y-166493648D02*
X44063738Y-165620158D01*
X43977583Y-166678519D01*
X43203781Y-165998479D02*
X43116299Y-165947972D01*
X43166807Y-165860490D01*
X43254289Y-165910998D01*
X43203781Y-165998479D01*
X43166807Y-165860490D01*
X41717918Y-166248719D02*
X42545854Y-166026874D01*
X42131886Y-166137796D02*
X42520115Y-167586685D01*
X42602643Y-167342727D01*
X42703658Y-167167763D01*
X42823161Y-167061794D01*
D11*
X34354128Y-137665554D02*
X34980998Y-141220710D01*
X30460199Y-138352159D02*
X34345265Y-137667117D01*
X30428649Y-149425872D02*
X28930934Y-140931906D01*
X34277278Y-148747255D02*
X30428649Y-149425872D01*
X34322579Y-148739268D02*
X33490957Y-143758001D01*
X30393172Y-138375148D02*
G75*
G03X28930934Y-140931906I547260J-2009498D01*
G01*
X34958231Y-141229802D02*
G75*
G03X33499237Y-143781926I546565J-2005559D01*
G01*
X44790863Y-144329474D02*
X44000764Y-139848599D01*
X40211507Y-145136938D02*
X39768704Y-142625679D01*
X37202737Y-140742647D02*
X36386590Y-136114050D01*
X41621468Y-139024236D02*
X40965946Y-135306586D01*
X40240469Y-145157217D02*
X44770584Y-144358436D01*
X36411210Y-136109709D02*
X40936985Y-135286307D01*
X37228225Y-140743230D02*
G75*
G02X39776804Y-142700407I295701J-2252878D01*
G01*
X43236670Y-139978253D02*
G75*
G02X41626392Y-139023367I-327696J1282582D01*
G01*
X43285910Y-139969570D02*
X43975276Y-139848016D01*
X44875337Y-52146610D02*
X43881110Y-52414028D01*
X43881110Y-52414028D02*
X44123032Y-51443732D01*
X44123032Y-51443732D02*
X44875337Y-52146610D01*
X44851406Y-52655950D02*
X45093328Y-51685654D01*
X39001030Y-76622087D02*
X38119028Y-77153192D01*
X38119028Y-77153192D02*
X38084129Y-76153801D01*
X38084129Y-76153801D02*
X39001030Y-76622087D01*
X39118419Y-77118293D02*
X39083520Y-76118902D01*
X28380308Y-48033935D02*
X27386081Y-48301353D01*
X27386081Y-48301353D02*
X27628003Y-47331057D01*
X27628003Y-47331057D02*
X28380308Y-48033935D01*
X28356377Y-48543275D02*
X28598299Y-47572979D01*
X84735641Y-98849582D02*
X84672638Y-102459032D01*
X80782243Y-98780575D02*
X84726643Y-98849425D01*
X78638310Y-109644813D02*
X78788837Y-101021126D01*
X82545715Y-109713017D02*
X78638310Y-109644813D01*
X82591708Y-109713820D02*
X82725835Y-104665392D01*
X80712063Y-98790352D02*
G75*
G03X78788837Y-101021126I153774J-2077000D01*
G01*
X84648554Y-102463612D02*
G75*
G03X82729398Y-104690458I153845J-2073001D01*
G01*
X93709088Y-107382490D02*
X93788497Y-102833183D01*
X89059796Y-107301336D02*
X89104300Y-104751724D01*
X86944776Y-102413679D02*
X87026802Y-97714395D01*
X91610211Y-101569974D02*
X91676094Y-97795549D01*
X89084356Y-107326768D02*
X93683656Y-107407049D01*
X87051798Y-97714831D02*
X91651534Y-97770116D01*
X86969685Y-102419115D02*
G75*
G02X89097992Y-104826626I-139602J-2267909D01*
G01*
X93013702Y-102814657D02*
G75*
G02X91615210Y-101570061I-76948J1321544D01*
G01*
X93063694Y-102815530D02*
X93763588Y-102827747D01*
X43857027Y-115049613D02*
X43046325Y-115684248D01*
X43046325Y-115684248D02*
X42889891Y-114696560D01*
X42889891Y-114696560D02*
X43857027Y-115049613D01*
X44034013Y-115527814D02*
X43877579Y-114540126D01*
X60896423Y-18463062D02*
X59897681Y-18713087D01*
X59897681Y-18713087D02*
X60156500Y-17747162D01*
X60156500Y-17747162D02*
X60896423Y-18463062D01*
X60863606Y-18971906D02*
X61122425Y-18005981D01*
X31274451Y-135771561D02*
X30474948Y-136420248D01*
X30474948Y-136420248D02*
X30301300Y-135435440D01*
X30301300Y-135435440D02*
X31274451Y-135771561D01*
X31459756Y-136246600D02*
X31286108Y-135261792D01*
X51095859Y-134713534D02*
X51722729Y-138268690D01*
X47201930Y-135400139D02*
X51086996Y-134715097D01*
X47170380Y-146473852D02*
X45672665Y-137979886D01*
X51019009Y-145795235D02*
X47170380Y-146473852D01*
X51064310Y-145787248D02*
X50232688Y-140805981D01*
X47134903Y-135423128D02*
G75*
G03X45672665Y-137979886I547260J-2009498D01*
G01*
X51699962Y-138277782D02*
G75*
G03X50240968Y-140829906I546565J-2005559D01*
G01*
X61532594Y-141377454D02*
X60742495Y-136896579D01*
X56953238Y-142184918D02*
X56510435Y-139673659D01*
X53944468Y-137790627D02*
X53128321Y-133162030D01*
X58363199Y-136072216D02*
X57707677Y-132354566D01*
X56982200Y-142205197D02*
X61512315Y-141406416D01*
X53152941Y-133157689D02*
X57678716Y-132334287D01*
X53969956Y-137791210D02*
G75*
G02X56518535Y-139748387I295701J-2252878D01*
G01*
X59978401Y-137026233D02*
G75*
G02X58368123Y-136071347I-327696J1282582D01*
G01*
X60027641Y-137017550D02*
X60717007Y-136895996D01*
X72802050Y-150490773D02*
X72183228Y-151313609D01*
X72183228Y-151313609D02*
X71776491Y-150400064D01*
X71776491Y-150400064D02*
X72802050Y-150490773D01*
X73096773Y-150906872D02*
X72690036Y-149993327D01*
X104361302Y-166427308D02*
X106633148Y-169232805D01*
X101288467Y-168915641D02*
X104354308Y-166432972D01*
X106629516Y-178616224D02*
X101201627Y-171913340D01*
X109666602Y-176156839D02*
X106629516Y-178616224D01*
X109702351Y-176127891D02*
X106560032Y-172174355D01*
X101240988Y-168968241D02*
G75*
G03X101201627Y-171913340I1452869J-1492230D01*
G01*
X106617643Y-169251794D02*
G75*
G03X106578873Y-172191266I1450351J-1489121D01*
G01*
X116720208Y-167195874D02*
X113856801Y-163659860D01*
X113106480Y-170122214D02*
X111501713Y-168140491D01*
X108344555Y-167737561D02*
X105386749Y-164084975D01*
X111376162Y-164092361D02*
X109000478Y-161158635D01*
X113141641Y-170125909D02*
X116716513Y-167231036D01*
X105406178Y-164069242D02*
X108965316Y-161154939D01*
X108367130Y-167725714D02*
G75*
G02X111545026Y-168201924I1350843J-1827053D01*
G01*
X113251365Y-164143697D02*
G75*
G02X111380048Y-164089214I-908417J962900D01*
G01*
X113290223Y-164112231D02*
X113834225Y-163671707D01*
X72597175Y-38791432D02*
X71598433Y-39041457D01*
X71598433Y-39041457D02*
X71857252Y-38075532D01*
X71857252Y-38075532D02*
X72597175Y-38791432D01*
X72564358Y-39300276D02*
X72823177Y-38334351D01*
X76222040Y-151573328D02*
X77690359Y-154871227D01*
X72609881Y-153181564D02*
X76213818Y-151576988D01*
X75258243Y-163933973D02*
X71750139Y-156054644D01*
X78828378Y-162344447D02*
X75258243Y-163933973D01*
X78870401Y-162325737D02*
X76858404Y-157693622D01*
X72550406Y-153220085D02*
G75*
G03X71750139Y-156054644I1017146J-1817413D01*
G01*
X77670467Y-154885556D02*
G75*
G03X76872227Y-157714834I1015519J-1813759D01*
G01*
X87960907Y-155514426D02*
X86110256Y-151357794D01*
X83712921Y-157405751D02*
X82675742Y-155076211D01*
X79730448Y-153869877D02*
X77818786Y-149576213D01*
X83602203Y-151133522D02*
X82066772Y-147684888D01*
X83745928Y-157418422D02*
X87948237Y-155547433D01*
X77841625Y-149566044D02*
X82033765Y-147672217D01*
X79755320Y-153864276D02*
G75*
G02X82701680Y-155146760I831938J-2114422D01*
G01*
X85400224Y-151668447D02*
G75*
G02X83606771Y-151131488I-628247J1165206D01*
G01*
X85445901Y-151648111D02*
X86085383Y-151363395D01*
X64757915Y-129867521D02*
X63958412Y-130516208D01*
X63958412Y-130516208D02*
X63784764Y-129531400D01*
X63784764Y-129531400D02*
X64757915Y-129867521D01*
X64943220Y-130342560D02*
X64769572Y-129357752D01*
X26993591Y-117610348D02*
X26182889Y-118244983D01*
X26182889Y-118244983D02*
X26026455Y-117257295D01*
X26026455Y-117257295D02*
X26993591Y-117610348D01*
X27170577Y-118088549D02*
X27014143Y-117100861D01*
X100737858Y-166355272D02*
X100353087Y-167310233D01*
X100353087Y-167310233D02*
X99723767Y-166533087D01*
X99723767Y-166533087D02*
X100737858Y-166355272D01*
X101130233Y-166680913D02*
X100500913Y-165903767D01*
X50443260Y-36563875D02*
X50693285Y-37562617D01*
X50693285Y-37562617D02*
X49727360Y-37303798D01*
X49727360Y-37303798D02*
X50443260Y-36563875D01*
X50952104Y-36596692D02*
X49986179Y-36337873D01*
X74265388Y-173950927D02*
X74684181Y-185943617D01*
X68269043Y-174160324D02*
X74265388Y-173950927D01*
X68687837Y-186153013D02*
X68269043Y-174160324D01*
X74684181Y-185943617D02*
X68687837Y-186153013D01*
X22011387Y-77215377D02*
X21129385Y-77746482D01*
X21129385Y-77746482D02*
X21094486Y-76747091D01*
X21094486Y-76747091D02*
X22011387Y-77215377D01*
X22128776Y-77711583D02*
X22093877Y-76712192D01*
X39417718Y-95737810D02*
X38574912Y-96329146D01*
X38574912Y-96329146D02*
X38470384Y-95334624D01*
X38470384Y-95334624D02*
X39417718Y-95737810D01*
X39569434Y-96224618D02*
X39464906Y-95230096D01*
X22313211Y-97786939D02*
X21470405Y-98378275D01*
X21470405Y-98378275D02*
X21365877Y-97383753D01*
X21365877Y-97383753D02*
X22313211Y-97786939D01*
X22464927Y-98273747D02*
X22360399Y-97279225D01*
X88632610Y-134404619D02*
X89807911Y-137817941D01*
X84894029Y-135691915D02*
X88624100Y-134407549D01*
X86595179Y-146634228D02*
X83787153Y-138479130D01*
X90290265Y-145361908D02*
X86595179Y-146634228D01*
X90333759Y-145346931D02*
X88733134Y-140557086D01*
X84831424Y-135725105D02*
G75*
G03X83787153Y-138479130I854877J-1899148D01*
G01*
X89786847Y-137830482D02*
G75*
G03X88745055Y-140579422I853574J-1895366D01*
G01*
X99983318Y-139353830D02*
X98501983Y-135051720D01*
X95586656Y-140867722D02*
X94756458Y-138456649D01*
X91927510Y-136998206D02*
X90397340Y-132554269D01*
X96023021Y-134609710D02*
X94794001Y-131040377D01*
X95618434Y-140883220D02*
X99967819Y-139385607D01*
X90420978Y-132546130D02*
X94762224Y-131024878D01*
X91952776Y-136994795D02*
G75*
G02X94776148Y-138529191I644488J-2178884D01*
G01*
X97767578Y-135299308D02*
G75*
G02X96027748Y-134608082I-524302J1215528D01*
G01*
X97814854Y-135283029D02*
X98476717Y-135055132D01*
X42169322Y-97962375D02*
X42546670Y-101552599D01*
X38236982Y-98375680D02*
X42160371Y-97963316D01*
X37433047Y-109420218D02*
X36531489Y-100842466D01*
X41319638Y-109011721D02*
X37433047Y-109420218D01*
X41365386Y-109006912D02*
X40883265Y-103979768D01*
X38168516Y-98393937D02*
G75*
G03X36531489Y-100842466I405751J-2042778D01*
G01*
X42523324Y-101560080D02*
G75*
G03X40889857Y-104004213I405333J-2038800D01*
G01*
X52115782Y-105338092D02*
X51640177Y-100813017D01*
X47491255Y-105824149D02*
X47224707Y-103288118D01*
X44796344Y-101230680D02*
X44305060Y-96556428D01*
X49324182Y-99824690D02*
X48929587Y-96070370D01*
X47518731Y-105846399D02*
X52093532Y-105365568D01*
X44329923Y-96553814D02*
X48902111Y-96048120D01*
X44821730Y-101233040D02*
G75*
G02X47227574Y-103363230I137827J-2268017D01*
G01*
X50868900Y-100889054D02*
G75*
G02X49329154Y-99824168I-237430J1302316D01*
G01*
X50918626Y-100883828D02*
X51614792Y-100810658D01*
X91413799Y-150437291D02*
X90869046Y-151310930D01*
X90869046Y-151310930D02*
X90384236Y-150436310D01*
X90384236Y-150436310D02*
X91413799Y-150437291D01*
X91743666Y-150826120D02*
X91258856Y-149951500D01*
X60574994Y-112291580D02*
X59764292Y-112926215D01*
X59764292Y-112926215D02*
X59607858Y-111938527D01*
X59607858Y-111938527D02*
X60574994Y-112291580D01*
X60751980Y-112769781D02*
X60595546Y-111782093D01*
X62887121Y-21481132D02*
X61952784Y-24968124D01*
X59067850Y-20457761D02*
X62878427Y-21478802D01*
X54359303Y-30480620D02*
X56591618Y-22149510D01*
X58134141Y-31492085D02*
X54359303Y-30480620D01*
X58178574Y-31503991D02*
X59530043Y-26637971D01*
X58997388Y-20450270D02*
G75*
G03X56591618Y-22149510I-353265J-2052505D01*
G01*
X61928308Y-24966742D02*
G75*
G03X59527436Y-26663154I-352230J-2048642D01*
G01*
X69529721Y-31931449D02*
X70707347Y-27536486D01*
X65038166Y-30727940D02*
X65698154Y-28264829D01*
X64168401Y-25473798D02*
X65384851Y-20933947D01*
X68899364Y-25783825D02*
X69876406Y-22137455D01*
X65055843Y-30758559D02*
X69499102Y-31949127D01*
X65408999Y-20940417D02*
X69858728Y-22106837D01*
X64191255Y-25485098D02*
G75*
G02X65673913Y-28335980I-684112J-2166770D01*
G01*
X69960048Y-27331072D02*
G75*
G02X68904193Y-25785119I245049J1300904D01*
G01*
X70008345Y-27344013D02*
X70684493Y-27525186D01*
X58679366Y-78305421D02*
X58805353Y-81913222D01*
X54727775Y-78443414D02*
X58670371Y-78305735D01*
X53155369Y-89404967D02*
X52854361Y-80785221D01*
X57060989Y-89268580D02*
X53155369Y-89404967D01*
X57106961Y-89266975D02*
X56976690Y-84218445D01*
X54658201Y-78456849D02*
G75*
G03X52854361Y-80785221I262266J-2066106D01*
G01*
X58781541Y-81919056D02*
G75*
G03X56981560Y-84243291I262127J-2062108D01*
G01*
X68087093Y-86357001D02*
X67928300Y-81809773D01*
X63439926Y-86519283D02*
X63350932Y-83970837D01*
X61072003Y-81749017D02*
X60907976Y-77051880D01*
X65686888Y-80662298D02*
X65555143Y-76889597D01*
X63465783Y-86543396D02*
X68062981Y-86382858D01*
X60932960Y-77051007D02*
X65529286Y-76865485D01*
X61097163Y-81753141D02*
G75*
G02X63348552Y-84045966I-20718J-2272107D01*
G01*
X67153597Y-81831823D02*
G75*
G02X65691885Y-80662123I-146006J1315706D01*
G01*
X67203567Y-81830078D02*
X67903141Y-81805648D01*
X95099603Y-151098571D02*
X96849766Y-154255948D01*
X91641357Y-153015508D02*
X95091731Y-151102934D01*
X95216775Y-163496181D02*
X91035292Y-155952586D01*
X98634789Y-161601545D02*
X95216775Y-163496181D01*
X98675021Y-161579244D02*
X96266965Y-157140113D01*
X91585466Y-153059066D02*
G75*
G03X91035292Y-155952586I1171673J-1721847D01*
G01*
X96831199Y-154271957D02*
G75*
G03X96282584Y-157160040I1169734J-1718349D01*
G01*
X107137290Y-154001563D02*
X104931406Y-150022043D01*
X103070308Y-156255927D02*
X101834044Y-154025647D01*
X98794818Y-153080603D02*
X96516213Y-148969890D01*
X102413351Y-150017215D02*
X100583195Y-146715526D01*
X103104294Y-156265673D02*
X107127545Y-154035548D01*
X96538079Y-148957770D02*
X100549209Y-146705780D01*
X98819108Y-153072857D02*
G75*
G02X101866031Y-154093668I1013056J-2033867D01*
G01*
X104251152Y-150393397D02*
G75*
G02X102417724Y-150014791I-727411J1106017D01*
G01*
X104294883Y-150369157D02*
X104907117Y-150029790D01*
X46830443Y-116898417D02*
X47395171Y-120463972D01*
X42925123Y-117516959D02*
X46821554Y-116899825D01*
X42700316Y-128588435D02*
X41351069Y-120069623D01*
X46560202Y-127977089D02*
X42700316Y-128588435D01*
X46605636Y-127969893D02*
X45861075Y-122974871D01*
X42857706Y-117538774D02*
G75*
G03X41351069Y-120069623I512106J-2018743D01*
G01*
X47372248Y-120472665D02*
G75*
G03X45868937Y-122998938I511481J-2014792D01*
G01*
X57149287Y-123743468D02*
X56437510Y-119249487D01*
X52556536Y-124470889D02*
X52157628Y-121952283D01*
X49624915Y-120024756D02*
X48889673Y-115382621D01*
X54072964Y-118383724D02*
X53482424Y-114655201D01*
X52585139Y-124491670D02*
X57128506Y-123772072D01*
X48914365Y-115378710D02*
X53453820Y-114634419D01*
X49650389Y-120025785D02*
G75*
G02X52164422Y-122027142I256338J-2257695D01*
G01*
X55671269Y-119365785D02*
G75*
G02X54077902Y-118382942I-305262J1288105D01*
G01*
X55720654Y-119357963D02*
X56412036Y-119248459D01*
X55990675Y-76028794D02*
X55108673Y-76559899D01*
X55108673Y-76559899D02*
X55073774Y-75560508D01*
X55073774Y-75560508D02*
X55990675Y-76028794D01*
X56108064Y-76525000D02*
X56073165Y-75525609D01*
X74650975Y-41715302D02*
X73716638Y-45202294D01*
X70831704Y-40691931D02*
X74642281Y-41712972D01*
X66123157Y-50714790D02*
X68355472Y-42383680D01*
X69897995Y-51726255D02*
X66123157Y-50714790D01*
X69942428Y-51738161D02*
X71293897Y-46872141D01*
X70761242Y-40684440D02*
G75*
G03X68355472Y-42383680I-353265J-2052505D01*
G01*
X73692162Y-45200912D02*
G75*
G03X71291290Y-46897324I-352230J-2048642D01*
G01*
X81293575Y-52165619D02*
X82471201Y-47770656D01*
X76802020Y-50962110D02*
X77462008Y-48498999D01*
X75932255Y-45707968D02*
X77148705Y-41168117D01*
X80663218Y-46017995D02*
X81640260Y-42371625D01*
X76819697Y-50992729D02*
X81262956Y-52183297D01*
X77172853Y-41174587D02*
X81622582Y-42341007D01*
X75955109Y-45719268D02*
G75*
G02X77437767Y-48570150I-684112J-2166770D01*
G01*
X81723902Y-47565242D02*
G75*
G02X80668047Y-46019289I245049J1300904D01*
G01*
X81772199Y-47578183D02*
X82448347Y-47759356D01*
X63328498Y-59169437D02*
X62455160Y-62672205D01*
X59491948Y-58212878D02*
X63319765Y-59167260D01*
X54959042Y-68316386D02*
X57045618Y-59947585D01*
X58750957Y-69261817D02*
X54959042Y-68316386D01*
X58795591Y-69272945D02*
X60061930Y-64384080D01*
X59421367Y-58206616D02*
G75*
G03X57045618Y-59947585I-317390J-2058359D01*
G01*
X62430663Y-62671249D02*
G75*
G03X60059763Y-64409305I-316422J-2054478D01*
G01*
X70152469Y-69502233D02*
X71253214Y-65087388D01*
X65640594Y-68377297D02*
X66257495Y-65903042D01*
X64679265Y-63139134D02*
X65816297Y-58578744D01*
X69414917Y-63366547D02*
X70328173Y-59703681D01*
X65658803Y-68407602D02*
X70122164Y-69520443D01*
X65840555Y-58584792D02*
X70309963Y-59673376D01*
X64702312Y-63150034D02*
G75*
G02X66234499Y-65974605I-646192J-2178379D01*
G01*
X70502444Y-64895046D02*
G75*
G02X69419769Y-63367757I222307J1304982D01*
G01*
X70550959Y-64907143D02*
X71230166Y-65076488D01*
X25262446Y-99739356D02*
X25639794Y-103329580D01*
X21330106Y-100152661D02*
X25253495Y-99740297D01*
X20526171Y-111197199D02*
X19624613Y-102619447D01*
X24412762Y-110788702D02*
X20526171Y-111197199D01*
X24458510Y-110783893D02*
X23976389Y-105756749D01*
X21261640Y-100170918D02*
G75*
G03X19624613Y-102619447I405751J-2042778D01*
G01*
X25616448Y-103337061D02*
G75*
G03X23982981Y-105781194I405333J-2038800D01*
G01*
X35208906Y-107115073D02*
X34733301Y-102589998D01*
X30584379Y-107601130D02*
X30317831Y-105065099D01*
X27889468Y-103007661D02*
X27398184Y-98333409D01*
X32417306Y-101601671D02*
X32022711Y-97847351D01*
X30611855Y-107623380D02*
X35186656Y-107142549D01*
X27423047Y-98330795D02*
X31995235Y-97825101D01*
X27914854Y-103010021D02*
G75*
G02X30320698Y-105140211I137827J-2268017D01*
G01*
X33962024Y-102666035D02*
G75*
G02X32422278Y-101601149I-237430J1302316D01*
G01*
X34011750Y-102660809D02*
X34707916Y-102587639D01*
X59076194Y-96185391D02*
X59453542Y-99775615D01*
X55143854Y-96598696D02*
X59067243Y-96186332D01*
X54339919Y-107643234D02*
X53438361Y-99065482D01*
X58226510Y-107234737D02*
X54339919Y-107643234D01*
X58272258Y-107229928D02*
X57790137Y-102202784D01*
X55075388Y-96616953D02*
G75*
G03X53438361Y-99065482I405751J-2042778D01*
G01*
X59430196Y-99783096D02*
G75*
G03X57796729Y-102227229I405333J-2038800D01*
G01*
X69022654Y-103561108D02*
X68547049Y-99036033D01*
X64398127Y-104047165D02*
X64131579Y-101511134D01*
X61703216Y-99453696D02*
X61211932Y-94779444D01*
X66231054Y-98047706D02*
X65836459Y-94293386D01*
X64425603Y-104069415D02*
X69000404Y-103588584D01*
X61236795Y-94776830D02*
X65808983Y-94271136D01*
X61728602Y-99456056D02*
G75*
G02X64134446Y-101586246I137827J-2268017D01*
G01*
X67775772Y-99112070D02*
G75*
G02X66236026Y-98047184I-237430J1302316D01*
G01*
X67825498Y-99106844D02*
X68521664Y-99033674D01*
X35581972Y-175915994D02*
X34924572Y-173462542D01*
X34924572Y-173462542D02*
X64365991Y-165573738D01*
X64365991Y-165573738D02*
X65023391Y-168027189D01*
X65023391Y-168027189D02*
X35581972Y-175915994D01*
X31642746Y-161214603D02*
X30985346Y-158761151D01*
X30985346Y-158761151D02*
X60426765Y-150872347D01*
X60426765Y-150872347D02*
X61084165Y-153325798D01*
X61084165Y-153325798D02*
X31642746Y-161214603D01*
X41886034Y-78892786D02*
X42012021Y-82500587D01*
X37934443Y-79030779D02*
X41877039Y-78893100D01*
X36362037Y-89992332D02*
X36061029Y-81372586D01*
X40267657Y-89855945D02*
X36362037Y-89992332D01*
X40313629Y-89854340D02*
X40183358Y-84805810D01*
X37864869Y-79044214D02*
G75*
G03X36061029Y-81372586I262266J-2066106D01*
G01*
X41988209Y-82506421D02*
G75*
G03X40188228Y-84830656I262127J-2062108D01*
G01*
X51293761Y-86944366D02*
X51134968Y-82397138D01*
X46646594Y-87106648D02*
X46557600Y-84558202D01*
X44278671Y-82336382D02*
X44114644Y-77639245D01*
X48893556Y-81249663D02*
X48761811Y-77476962D01*
X46672451Y-87130761D02*
X51269649Y-86970223D01*
X44139628Y-77638372D02*
X48735954Y-77452850D01*
X44303831Y-82340506D02*
G75*
G02X46555220Y-84633331I-20718J-2272107D01*
G01*
X50360265Y-82419188D02*
G75*
G02X48898553Y-81249488I-146006J1315706D01*
G01*
X50410235Y-82417443D02*
X51109809Y-82393013D01*
X61370364Y-56259279D02*
X60376137Y-56526697D01*
X60376137Y-56526697D02*
X60618059Y-55556401D01*
X60618059Y-55556401D02*
X61370364Y-56259279D01*
X61346433Y-56768619D02*
X61588355Y-55798323D01*
X85125969Y-116796422D02*
X85690697Y-120361977D01*
X81220649Y-117414964D02*
X85117080Y-116797830D01*
X80995842Y-128486440D02*
X79646595Y-119967628D01*
X84855728Y-127875094D02*
X80995842Y-128486440D01*
X84901162Y-127867898D02*
X84156601Y-122872876D01*
X81153232Y-117436779D02*
G75*
G03X79646595Y-119967628I512106J-2018743D01*
G01*
X85667774Y-120370670D02*
G75*
G03X84164463Y-122896943I511481J-2014792D01*
G01*
X95444813Y-123641473D02*
X94733036Y-119147492D01*
X90852062Y-124368894D02*
X90453154Y-121850288D01*
X87920441Y-119922761D02*
X87185199Y-115280626D01*
X92368490Y-118281729D02*
X91777950Y-114553206D01*
X90880665Y-124389675D02*
X95424032Y-123670077D01*
X87209891Y-115276715D02*
X91749346Y-114532424D01*
X87945915Y-119923790D02*
G75*
G02X90459948Y-121925147I256338J-2257695D01*
G01*
X93966795Y-119263790D02*
G75*
G02X92373428Y-118280947I-305262J1288105D01*
G01*
X94016180Y-119255968D02*
X94707562Y-119146464D01*
X84382635Y-167838004D02*
X86401321Y-170830829D01*
X81104620Y-170049052D02*
X84375173Y-167843036D01*
X85579883Y-180178225D02*
X80756845Y-173027776D01*
X88819762Y-177992899D02*
X85579883Y-180178225D01*
X88857898Y-177967176D02*
X86072109Y-173754814D01*
X81052739Y-170097316D02*
G75*
G03X80756845Y-173027776I1317283J-1613177D01*
G01*
X86384220Y-170848394D02*
G75*
G03X86089405Y-173773303I1315047J-1609862D01*
G01*
X96627527Y-169680795D02*
X94083199Y-165908674D01*
X92772502Y-172281042D02*
X91346560Y-170166996D01*
X88236534Y-169490434D02*
X85608327Y-165593957D01*
X91574305Y-166123327D02*
X89463352Y-162993710D01*
X92807208Y-172287788D02*
X96620781Y-169715501D01*
X85629053Y-165579978D02*
X89428646Y-162986964D01*
X88260056Y-169480599D02*
G75*
G02X91384355Y-170231970I1186464J-1937835D01*
G01*
X93437899Y-166337904D02*
G75*
G02X91578450Y-166120531I-821038J1038411D01*
G01*
X93479351Y-166309944D02*
X94059677Y-165918509D01*
X67837590Y-131761517D02*
X68464460Y-135316673D01*
X63943661Y-132448122D02*
X67828727Y-131763080D01*
X63912111Y-143521835D02*
X62414396Y-135027869D01*
X67760740Y-142843218D02*
X63912111Y-143521835D01*
X67806041Y-142835231D02*
X66974419Y-137853964D01*
X63876634Y-132471111D02*
G75*
G03X62414396Y-135027869I547260J-2009498D01*
G01*
X68441693Y-135325765D02*
G75*
G03X66982699Y-137877889I546565J-2005559D01*
G01*
X78274325Y-138425437D02*
X77484226Y-133944562D01*
X73694969Y-139232901D02*
X73252166Y-136721642D01*
X70686199Y-134838610D02*
X69870052Y-130210013D01*
X75104930Y-133120199D02*
X74449408Y-129402549D01*
X73723931Y-139253180D02*
X78254046Y-138454399D01*
X69894672Y-130205672D02*
X74420447Y-129382270D01*
X70711687Y-134839193D02*
G75*
G02X73260266Y-136796370I295701J-2252878D01*
G01*
X76720132Y-134074216D02*
G75*
G02X75109854Y-133119330I-327696J1282582D01*
G01*
X76769372Y-134065533D02*
X77458738Y-133943979D01*
X58713202Y-37444790D02*
X57778865Y-40931782D01*
X54893931Y-36421419D02*
X58704508Y-37442460D01*
X50185384Y-46444278D02*
X52417699Y-38113168D01*
X53960222Y-47455743D02*
X50185384Y-46444278D01*
X54004655Y-47467649D02*
X55356124Y-42601629D01*
X54823469Y-36413928D02*
G75*
G03X52417699Y-38113168I-353265J-2052505D01*
G01*
X57754389Y-40930400D02*
G75*
G03X55353517Y-42626812I-352230J-2048642D01*
G01*
X65355802Y-47895107D02*
X66533428Y-43500144D01*
X60864247Y-46691598D02*
X61524235Y-44228487D01*
X59994482Y-41437456D02*
X61210932Y-36897605D01*
X64725445Y-41747483D02*
X65702487Y-38101113D01*
X60881924Y-46722217D02*
X65325183Y-47912785D01*
X61235080Y-36904075D02*
X65684809Y-38070495D01*
X60017336Y-41448756D02*
G75*
G02X61499994Y-44299638I-684112J-2166770D01*
G01*
X65786129Y-43294730D02*
G75*
G02X64730274Y-41748777I245049J1300904D01*
G01*
X65834426Y-43307671D02*
X66510574Y-43488844D01*
X80851881Y-167421102D02*
X80385344Y-168338894D01*
X80385344Y-168338894D02*
X79826151Y-167509857D01*
X79826151Y-167509857D02*
X80851881Y-167421102D01*
X81214381Y-167779701D02*
X80655188Y-166950664D01*
X30340863Y-50934394D02*
X29467525Y-54437162D01*
X26504313Y-49977835D02*
X30332130Y-50932217D01*
X21971407Y-60081343D02*
X24057983Y-51712542D01*
X25763322Y-61026774D02*
X21971407Y-60081343D01*
X25807956Y-61037902D02*
X27074295Y-56149037D01*
X26433732Y-49971573D02*
G75*
G03X24057983Y-51712542I-317390J-2058359D01*
G01*
X29443028Y-54436206D02*
G75*
G03X27072128Y-56174262I-316422J-2054478D01*
G01*
X37164834Y-61267190D02*
X38265579Y-56852345D01*
X32652959Y-60142254D02*
X33269860Y-57667999D01*
X31691630Y-54904091D02*
X32828662Y-50343701D01*
X36427282Y-55131504D02*
X37340538Y-51468638D01*
X32671168Y-60172559D02*
X37134529Y-61285400D01*
X32852920Y-50349749D02*
X37322328Y-51438333D01*
X31714677Y-54914991D02*
G75*
G02X33246864Y-57739562I-646192J-2178379D01*
G01*
X37514809Y-56660003D02*
G75*
G02X36432134Y-55132714I222307J1304982D01*
G01*
X37563324Y-56672100D02*
X38242531Y-56841445D01*
X46833471Y-55056766D02*
X45960133Y-58559534D01*
X42996921Y-54100207D02*
X46824738Y-55054589D01*
X38464015Y-64203715D02*
X40550591Y-55834914D01*
X42255930Y-65149146D02*
X38464015Y-64203715D01*
X42300564Y-65160274D02*
X43566903Y-60271409D01*
X42926340Y-54093945D02*
G75*
G03X40550591Y-55834914I-317390J-2058359D01*
G01*
X45935636Y-58558578D02*
G75*
G03X43564736Y-60296634I-316422J-2054478D01*
G01*
X53657442Y-65389562D02*
X54758187Y-60974717D01*
X49145567Y-64264626D02*
X49762468Y-61790371D01*
X48184238Y-59026463D02*
X49321270Y-54466073D01*
X52919890Y-59253876D02*
X53833146Y-55591010D01*
X49163776Y-64294931D02*
X53627137Y-65407772D01*
X49345528Y-54472121D02*
X53814936Y-55560705D01*
X48207285Y-59037363D02*
G75*
G02X49739472Y-61861934I-646192J-2178379D01*
G01*
X54007417Y-60782375D02*
G75*
G02X52924742Y-59255086I222307J1304982D01*
G01*
X54055932Y-60794472D02*
X54735139Y-60963817D01*
X30039744Y-119557803D02*
X30604472Y-123123358D01*
X26134424Y-120176345D02*
X30030855Y-119559211D01*
X25909617Y-131247821D02*
X24560370Y-122729009D01*
X29769503Y-130636475D02*
X25909617Y-131247821D01*
X29814937Y-130629279D02*
X29070376Y-125634257D01*
X26067007Y-120198160D02*
G75*
G03X24560370Y-122729009I512106J-2018743D01*
G01*
X30581549Y-123132051D02*
G75*
G03X29078238Y-125658324I511481J-2014792D01*
G01*
X40358588Y-126402854D02*
X39646811Y-121908873D01*
X35765837Y-127130275D02*
X35366929Y-124611669D01*
X32834216Y-122684142D02*
X32098974Y-118042007D01*
X37282265Y-121043110D02*
X36691725Y-117314587D01*
X35794440Y-127151056D02*
X40337807Y-126431458D01*
X32123666Y-118038096D02*
X36663121Y-117293805D01*
X32859690Y-122685171D02*
G75*
G02X35373723Y-124686528I256338J-2257695D01*
G01*
X38880570Y-122025171D02*
G75*
G02X37287203Y-121042328I-305262J1288105D01*
G01*
X38929955Y-122017349D02*
X39621337Y-121907845D01*
X56102089Y-94235588D02*
X55259283Y-94826924D01*
X55259283Y-94826924D02*
X55154755Y-93832402D01*
X55154755Y-93832402D02*
X56102089Y-94235588D01*
X56253805Y-94722396D02*
X56149277Y-93727874D01*
X82024826Y-96549592D02*
X81116237Y-97033809D01*
X81116237Y-97033809D02*
X81133689Y-96033961D01*
X81133689Y-96033961D02*
X82024826Y-96549592D01*
X82116085Y-97051261D02*
X82133537Y-96051413D01*
X81960206Y-114903259D02*
X81149504Y-115537894D01*
X81149504Y-115537894D02*
X80993070Y-114550206D01*
X80993070Y-114550206D02*
X81960206Y-114903259D01*
X82137192Y-115381460D02*
X81980758Y-114393772D01*
X85243671Y-133012601D02*
X84555489Y-133778371D01*
X84555489Y-133778371D02*
X84229921Y-132832853D01*
X84229921Y-132832853D02*
X85243671Y-133012601D01*
X85501007Y-133452803D02*
X85175439Y-132507285D01*
X63621143Y-114239031D02*
X64185871Y-117804586D01*
X59715823Y-114857573D02*
X63612254Y-114240439D01*
X59491016Y-125929049D02*
X58141769Y-117410237D01*
X63350902Y-125317703D02*
X59491016Y-125929049D01*
X63396336Y-125310507D02*
X62651775Y-120315485D01*
X59648406Y-114879388D02*
G75*
G03X58141769Y-117410237I512106J-2018743D01*
G01*
X64162948Y-117813279D02*
G75*
G03X62659637Y-120339552I511481J-2014792D01*
G01*
X73939987Y-121084082D02*
X73228210Y-116590101D01*
X69347236Y-121811503D02*
X68948328Y-119292897D01*
X66415615Y-117365370D02*
X65680373Y-112723235D01*
X70863664Y-115724338D02*
X70273124Y-111995815D01*
X69375839Y-121832284D02*
X73919206Y-121112686D01*
X65705065Y-112719324D02*
X70244520Y-111975033D01*
X66441089Y-117366399D02*
G75*
G02X68955122Y-119367756I256338J-2257695D01*
G01*
X72461969Y-116706399D02*
G75*
G02X70868602Y-115723556I-305262J1288105D01*
G01*
X72511354Y-116698577D02*
X73202736Y-116589073D01*
X24896392Y-79486077D02*
X25022379Y-83093878D01*
X20944801Y-79624070D02*
X24887397Y-79486391D01*
X19372395Y-90585623D02*
X19071387Y-81965877D01*
X23278015Y-90449236D02*
X19372395Y-90585623D01*
X23323987Y-90447631D02*
X23193716Y-85399101D01*
X20875227Y-79637505D02*
G75*
G03X19071387Y-81965877I262266J-2066106D01*
G01*
X24998567Y-83099712D02*
G75*
G03X23198586Y-85423947I262127J-2062108D01*
G01*
X34304119Y-87537657D02*
X34145326Y-82990429D01*
X29656952Y-87699939D02*
X29567958Y-85151493D01*
X27289029Y-82929673D02*
X27125002Y-78232536D01*
X31903914Y-81842954D02*
X31772169Y-78070253D01*
X29682809Y-87724052D02*
X34280007Y-87563514D01*
X27149986Y-78231663D02*
X31746312Y-78046141D01*
X27314189Y-82933797D02*
G75*
G02X29565578Y-85226622I-20718J-2272107D01*
G01*
X33370623Y-83012479D02*
G75*
G02X31908911Y-81842779I-146006J1315706D01*
G01*
X33420593Y-83010734D02*
X34120167Y-82986304D01*
X63924604Y-176765448D02*
X63963712Y-177012371D01*
X58294780Y-177657125D02*
X63924604Y-176765448D01*
X58294780Y-177657125D02*
X58333889Y-177904047D01*
X58795370Y-180817728D02*
X58756262Y-180570805D01*
X64425194Y-179926051D02*
X64386085Y-179679129D01*
X58795370Y-180817728D02*
X64425194Y-179926051D01*
X47903075Y-132950426D02*
X47092373Y-133585061D01*
X47092373Y-133585061D02*
X46935939Y-132597373D01*
X46935939Y-132597373D02*
X47903075Y-132950426D01*
X48080061Y-133428627D02*
X47923627Y-132440939D01*
X70430506Y-179090274D02*
X71001587Y-179070331D01*
X70750946Y-180079693D02*
X70716047Y-179080302D01*
X71940697Y-180038146D02*
X71590948Y-179573879D01*
X71369617Y-180058089D02*
X71334717Y-179058698D01*
X71715437Y-179045403D01*
X71812279Y-179089669D01*
X71861531Y-179135597D01*
X71912445Y-179229115D01*
X71917431Y-179371886D01*
X71873165Y-179468728D01*
X71827236Y-179517979D01*
X71733718Y-179568893D01*
X71352998Y-179582188D01*
X72940088Y-180003247D02*
X72590339Y-179538979D01*
X72369007Y-180023189D02*
X72334108Y-179023798D01*
X72714828Y-179010503D01*
X72811670Y-179054770D01*
X72860922Y-179100698D01*
X72911836Y-179194216D01*
X72916822Y-179336986D01*
X72872555Y-179433828D01*
X72826627Y-179483080D01*
X72733109Y-179533994D01*
X72352389Y-179547289D01*
X73319146Y-179942362D02*
X73463578Y-179984966D01*
X73701529Y-179976657D01*
X73795047Y-179925743D01*
X73840975Y-179876491D01*
X73885241Y-179779649D01*
X73881917Y-179684469D01*
X73831004Y-179590951D01*
X73781752Y-179545022D01*
X73684910Y-179500756D01*
X73492888Y-179459814D01*
X73396046Y-179415547D01*
X73346794Y-179369619D01*
X73295880Y-179276101D01*
X73292556Y-179180921D01*
X73336823Y-179084079D01*
X73382751Y-179034827D01*
X73476269Y-178983913D01*
X73714219Y-178975604D01*
X73858651Y-179018208D01*
X70430506Y-179090274D02*
X71001587Y-179070331D01*
X70750946Y-180079693D02*
X70716047Y-179080302D01*
X71940697Y-180038146D02*
X71590948Y-179573879D01*
X71369617Y-180058089D02*
X71334717Y-179058698D01*
X71715437Y-179045403D01*
X71812279Y-179089669D01*
X71861531Y-179135597D01*
X71912445Y-179229115D01*
X71917431Y-179371886D01*
X71873165Y-179468728D01*
X71827236Y-179517979D01*
X71733718Y-179568893D01*
X71352998Y-179582188D01*
X72940088Y-180003247D02*
X72590339Y-179538979D01*
X72369007Y-180023189D02*
X72334108Y-179023798D01*
X72714828Y-179010503D01*
X72811670Y-179054770D01*
X72860922Y-179100698D01*
X72911836Y-179194216D01*
X72916822Y-179336986D01*
X72872555Y-179433828D01*
X72826627Y-179483080D01*
X72733109Y-179533994D01*
X72352389Y-179547289D01*
X73319146Y-179942362D02*
X73463578Y-179984966D01*
X73701529Y-179976657D01*
X73795047Y-179925743D01*
X73840975Y-179876491D01*
X73885241Y-179779649D01*
X73881917Y-179684469D01*
X73831004Y-179590951D01*
X73781752Y-179545022D01*
X73684910Y-179500756D01*
X73492888Y-179459814D01*
X73396046Y-179415547D01*
X73346794Y-179369619D01*
X73295880Y-179276101D01*
X73292556Y-179180921D01*
X73336823Y-179084079D01*
X73382751Y-179034827D01*
X73476269Y-178983913D01*
X73714219Y-178975604D01*
X73858651Y-179018208D01*
D12*
X36619870Y-176193483D02*
X36921707Y-175940060D01*
X36545922Y-175917504D02*
X37270367Y-175723390D01*
X37319665Y-175907375D01*
X37297493Y-175962615D01*
X37269158Y-175994857D01*
X37206325Y-176036343D01*
X37102833Y-176064073D01*
X37027676Y-176059562D01*
X36987017Y-176045807D01*
X36940195Y-176009054D01*
X36890896Y-175825069D01*
X36876153Y-176322007D02*
X36937777Y-176551990D01*
X36656845Y-176331472D02*
X37424425Y-176298345D01*
X36743118Y-176653447D01*
X37498374Y-176574324D02*
X36804741Y-176883430D01*
X37346851Y-176836770D01*
X36854040Y-177067416D01*
X37609296Y-176988292D01*
X32687972Y-161519436D02*
X32626348Y-161289454D01*
X33350793Y-161095339D01*
X33110579Y-161578745D02*
X33153716Y-161739732D01*
X32792732Y-161910406D02*
X32731108Y-161680424D01*
X33455553Y-161486309D01*
X33517176Y-161716292D01*
X32848193Y-162117390D02*
X33572638Y-161923276D01*
X33603449Y-162038267D01*
X33587439Y-162116505D01*
X33530769Y-162180989D01*
X33467937Y-162222474D01*
X33336110Y-162282446D01*
X33232618Y-162310177D01*
X33088466Y-162324153D01*
X33013309Y-162319642D01*
X32931989Y-162292132D01*
X32879005Y-162232381D01*
X32848193Y-162117390D01*
X39754026Y-175316714D02*
X39776199Y-175261474D01*
X39757712Y-175192479D01*
X39704727Y-175132728D01*
X39623408Y-175105218D01*
X39548251Y-175100707D01*
X39404099Y-175114683D01*
X39300607Y-175142414D01*
X39168780Y-175202386D01*
X39105947Y-175243871D01*
X39049277Y-175308355D01*
X39033267Y-175386593D01*
X39045592Y-175432590D01*
X39098576Y-175492341D01*
X39139236Y-175506096D01*
X39380717Y-175441391D01*
X39356068Y-175349398D01*
X39125703Y-175731567D02*
X39850147Y-175537452D01*
X39199651Y-176007546D01*
X39924095Y-175813431D01*
X39261274Y-176237528D02*
X39985719Y-176043414D01*
X40016531Y-176158405D01*
X40000520Y-176236643D01*
X39943850Y-176301127D01*
X39881018Y-176342612D01*
X39749191Y-176402584D01*
X39645699Y-176430315D01*
X39501547Y-176444291D01*
X39426390Y-176439780D01*
X39345071Y-176412270D01*
X39292086Y-176352519D01*
X39261274Y-176237528D01*
X35057732Y-160596062D02*
X35782177Y-160401947D01*
X35812989Y-160516939D01*
X35796978Y-160595177D01*
X35740308Y-160659660D01*
X35677476Y-160701146D01*
X35545649Y-160761118D01*
X35442157Y-160788849D01*
X35298005Y-160802825D01*
X35222848Y-160798313D01*
X35141529Y-160770804D01*
X35088544Y-160711053D01*
X35057732Y-160596062D01*
X35387964Y-161000565D02*
X35449587Y-161230548D01*
X35168655Y-161010030D02*
X35936236Y-160976903D01*
X35254928Y-161332005D01*
X36004022Y-161229884D02*
X36077970Y-161505863D01*
X35316551Y-161561988D02*
X36040996Y-161367873D01*
X35597484Y-161782505D02*
X35659107Y-162012487D01*
X35378175Y-161791970D02*
X36145756Y-161758843D01*
X35464448Y-162113945D01*
X41606598Y-174931241D02*
X41908435Y-174677818D01*
X41532649Y-174655263D02*
X42257094Y-174461148D01*
X42306392Y-174645134D01*
X42284220Y-174700374D01*
X42255885Y-174732616D01*
X42193053Y-174774101D01*
X42089560Y-174801832D01*
X42014403Y-174797321D01*
X41973744Y-174783566D01*
X41926922Y-174746813D01*
X41877623Y-174562827D01*
X41690394Y-175105984D02*
X41674383Y-175184222D01*
X41705195Y-175299213D01*
X41752017Y-175335966D01*
X41792677Y-175349721D01*
X41867834Y-175354232D01*
X41936829Y-175335745D01*
X41999661Y-175294260D01*
X42027996Y-175262018D01*
X42050169Y-175206778D01*
X42060017Y-175105541D01*
X42082189Y-175050301D01*
X42110524Y-175018060D01*
X42173357Y-174976574D01*
X42242351Y-174958087D01*
X42317508Y-174962598D01*
X42358168Y-174976353D01*
X42404990Y-175013106D01*
X42435802Y-175128097D01*
X42419792Y-175206335D01*
X42491263Y-175335081D02*
X42565212Y-175611060D01*
X41803793Y-175667185D02*
X42528237Y-175473071D01*
X38324412Y-159922169D02*
X38346585Y-159866929D01*
X38328098Y-159797934D01*
X38275113Y-159738183D01*
X38193794Y-159710673D01*
X38118637Y-159706162D01*
X37974485Y-159720138D01*
X37870993Y-159747869D01*
X37739166Y-159807841D01*
X37676333Y-159849326D01*
X37619663Y-159913810D01*
X37603653Y-159992048D01*
X37615978Y-160038045D01*
X37668962Y-160097796D01*
X37709622Y-160111551D01*
X37951103Y-160046846D01*
X37926454Y-159954853D01*
X37696089Y-160337022D02*
X38420533Y-160142907D01*
X37770037Y-160613001D01*
X38494481Y-160418886D01*
X37831660Y-160842983D02*
X38556105Y-160648869D01*
X38586917Y-160763860D01*
X38570906Y-160842098D01*
X38514236Y-160906582D01*
X38451404Y-160948067D01*
X38319577Y-161008039D01*
X38216085Y-161035770D01*
X38071933Y-161049746D01*
X37996776Y-161045235D01*
X37915457Y-161017725D01*
X37862472Y-160957974D01*
X37831660Y-160842983D01*
X44621478Y-173716690D02*
X43940170Y-174071792D01*
X44707751Y-174038666D01*
X44169386Y-174651259D02*
X44128726Y-174637505D01*
X44075742Y-174577753D01*
X44063417Y-174531757D01*
X44079428Y-174453519D01*
X44136098Y-174389035D01*
X44198930Y-174347550D01*
X44330757Y-174287577D01*
X44434249Y-174259847D01*
X44578401Y-174245871D01*
X44653558Y-174250382D01*
X44734877Y-174277891D01*
X44787862Y-174337643D01*
X44800186Y-174383639D01*
X44784176Y-174461877D01*
X44755841Y-174494119D01*
X44298796Y-175134222D02*
X44258136Y-175120467D01*
X44205152Y-175060716D01*
X44192827Y-175014720D01*
X44208837Y-174936482D01*
X44265507Y-174871998D01*
X44328339Y-174830513D01*
X44460166Y-174770540D01*
X44563659Y-174742810D01*
X44707810Y-174728834D01*
X44782967Y-174733345D01*
X44864287Y-174760854D01*
X44917271Y-174820605D01*
X44929596Y-174866602D01*
X44913586Y-174944840D01*
X44885251Y-174977082D01*
X40794298Y-159326105D02*
X40816471Y-159270865D01*
X40797984Y-159201870D01*
X40744999Y-159142119D01*
X40663680Y-159114609D01*
X40588523Y-159110098D01*
X40444371Y-159124074D01*
X40340879Y-159151805D01*
X40209052Y-159211777D01*
X40146219Y-159253262D01*
X40089549Y-159317746D01*
X40073539Y-159395984D01*
X40085864Y-159441981D01*
X40138848Y-159501732D01*
X40179508Y-159515487D01*
X40420989Y-159450782D01*
X40396340Y-159358789D01*
X40165975Y-159740958D02*
X40890419Y-159546843D01*
X40239923Y-160016937D01*
X40964367Y-159822822D01*
X40301546Y-160246919D02*
X41025991Y-160052805D01*
X41056803Y-160167796D01*
X41040792Y-160246034D01*
X40984122Y-160310518D01*
X40921290Y-160352003D01*
X40789463Y-160411975D01*
X40685971Y-160439706D01*
X40541819Y-160453682D01*
X40466662Y-160449171D01*
X40385343Y-160421661D01*
X40332358Y-160361910D01*
X40301546Y-160246919D01*
X53930645Y-171640090D02*
X53889985Y-171626335D01*
X53837001Y-171566584D01*
X53824676Y-171520587D01*
X53840687Y-171442349D01*
X53897357Y-171377866D01*
X53960189Y-171336380D01*
X54092016Y-171276408D01*
X54195508Y-171248677D01*
X54339660Y-171234701D01*
X54414817Y-171239212D01*
X54496136Y-171266722D01*
X54549121Y-171326473D01*
X54561445Y-171372470D01*
X54545435Y-171450708D01*
X54517100Y-171482950D01*
X54666205Y-171763439D02*
X54690855Y-171855432D01*
X54668682Y-171910672D01*
X54612012Y-171975156D01*
X54480185Y-172035128D01*
X54238704Y-172099833D01*
X54094552Y-172113809D01*
X54013233Y-172086300D01*
X53966411Y-172049547D01*
X53941761Y-171957554D01*
X53963934Y-171902314D01*
X54020604Y-171837830D01*
X54152431Y-171777858D01*
X54393912Y-171713153D01*
X54538064Y-171699177D01*
X54619383Y-171726687D01*
X54666205Y-171763439D01*
X54114307Y-172601504D02*
X54052684Y-172371522D01*
X54777128Y-172177408D01*
X54869563Y-172522381D02*
X54949674Y-172821358D01*
X54630559Y-172734319D01*
X54649046Y-172803314D01*
X54626873Y-172858554D01*
X54598538Y-172890795D01*
X54535706Y-172932281D01*
X54363219Y-172978498D01*
X54288062Y-172973987D01*
X54247402Y-172960233D01*
X54200580Y-172923480D01*
X54163606Y-172785490D01*
X54185779Y-172730250D01*
X54214114Y-172698008D01*
X47442922Y-157555999D02*
X47744759Y-157302576D01*
X47368974Y-157280020D02*
X48093418Y-157085906D01*
X48142717Y-157269892D01*
X48120544Y-157325132D01*
X48092209Y-157357373D01*
X48029377Y-157398859D01*
X47925885Y-157426589D01*
X47850728Y-157422078D01*
X47810068Y-157408324D01*
X47763246Y-157371571D01*
X47713947Y-157187585D01*
X48247477Y-157660862D02*
X48272127Y-157752855D01*
X48249954Y-157808095D01*
X48193284Y-157872578D01*
X48061457Y-157932551D01*
X47819976Y-157997255D01*
X47675824Y-158011231D01*
X47594504Y-157983722D01*
X47547682Y-157946969D01*
X47523033Y-157854976D01*
X47545205Y-157799736D01*
X47601875Y-157735252D01*
X47733702Y-157675280D01*
X47975184Y-157610575D01*
X48119336Y-157596599D01*
X48200655Y-157624109D01*
X48247477Y-157660862D01*
X48346075Y-158028833D02*
X47652442Y-158337939D01*
X48194552Y-158291279D01*
X47701741Y-158521925D01*
X48456997Y-158442802D01*
X48530946Y-158718780D02*
X48543270Y-158764777D01*
X48521098Y-158820017D01*
X48492763Y-158852259D01*
X48429930Y-158893744D01*
X48298103Y-158953716D01*
X48125617Y-158999934D01*
X47981465Y-159013910D01*
X47906308Y-159009399D01*
X47865648Y-158995644D01*
X47818826Y-158958891D01*
X47806501Y-158912895D01*
X47828674Y-158857655D01*
X47857009Y-158825413D01*
X47919841Y-158783928D01*
X48051668Y-158723955D01*
X48224155Y-158677738D01*
X48368307Y-158663762D01*
X48443464Y-158668273D01*
X48484124Y-158682027D01*
X48530946Y-158718780D01*
X51404947Y-172213322D02*
X51364287Y-172199567D01*
X51311303Y-172139816D01*
X51298978Y-172093819D01*
X51314989Y-172015581D01*
X51371659Y-171951098D01*
X51434491Y-171909612D01*
X51566318Y-171849640D01*
X51669810Y-171821909D01*
X51813962Y-171807933D01*
X51889119Y-171812444D01*
X51970438Y-171839954D01*
X52023423Y-171899705D01*
X52035747Y-171945702D01*
X52019737Y-172023940D01*
X51991402Y-172056182D01*
X52140507Y-172336671D02*
X52165157Y-172428664D01*
X52142984Y-172483904D01*
X52086314Y-172548388D01*
X51954487Y-172608360D01*
X51713006Y-172673065D01*
X51568854Y-172687041D01*
X51487535Y-172659532D01*
X51440713Y-172622779D01*
X51416063Y-172530786D01*
X51438236Y-172475546D01*
X51494906Y-172411062D01*
X51626733Y-172351090D01*
X51868214Y-172286385D01*
X52012366Y-172272409D01*
X52093685Y-172299919D01*
X52140507Y-172336671D01*
X51588609Y-173174736D02*
X51526986Y-172944754D01*
X52251430Y-172750640D01*
X52281033Y-173137099D02*
X52321693Y-173150853D01*
X52368515Y-173187606D01*
X52399326Y-173302597D01*
X52377154Y-173357837D01*
X52348819Y-173390079D01*
X52285987Y-173431564D01*
X52216992Y-173450051D01*
X52107337Y-173454784D01*
X51619421Y-173289727D01*
X51699532Y-173588705D01*
X44928954Y-157996382D02*
X44912944Y-158074620D01*
X44943756Y-158189611D01*
X44990578Y-158226364D01*
X45031237Y-158240119D01*
X45106394Y-158244630D01*
X45175389Y-158226143D01*
X45238221Y-158184658D01*
X45266556Y-158152416D01*
X45288729Y-158097176D01*
X45298577Y-157995939D01*
X45320750Y-157940699D01*
X45349085Y-157908458D01*
X45411917Y-157866972D01*
X45480912Y-157848485D01*
X45556069Y-157852996D01*
X45596728Y-157866751D01*
X45643551Y-157903504D01*
X45674362Y-158018495D01*
X45658352Y-158096733D01*
X45166809Y-158746080D02*
X45126150Y-158732325D01*
X45073165Y-158672574D01*
X45060840Y-158626578D01*
X45076851Y-158548339D01*
X45133521Y-158483856D01*
X45196353Y-158442370D01*
X45328180Y-158382398D01*
X45431672Y-158354667D01*
X45575824Y-158340692D01*
X45650981Y-158345203D01*
X45732300Y-158372712D01*
X45785285Y-158432463D01*
X45797609Y-158478460D01*
X45781599Y-158556698D01*
X45753264Y-158588940D01*
X45214899Y-159201533D02*
X45153276Y-158971551D01*
X45877720Y-158777437D01*
X48938554Y-172822426D02*
X48897894Y-172808671D01*
X48844910Y-172748920D01*
X48832585Y-172702923D01*
X48848596Y-172624685D01*
X48905266Y-172560202D01*
X48968098Y-172518716D01*
X49099925Y-172458744D01*
X49203417Y-172431013D01*
X49347569Y-172417037D01*
X49422726Y-172421548D01*
X49504045Y-172449058D01*
X49557030Y-172508809D01*
X49569354Y-172554806D01*
X49553344Y-172633044D01*
X49525009Y-172665286D01*
X49674114Y-172945775D02*
X49698764Y-173037768D01*
X49676591Y-173093008D01*
X49619921Y-173157492D01*
X49488094Y-173217464D01*
X49246613Y-173282169D01*
X49102461Y-173296145D01*
X49021142Y-173268636D01*
X48974320Y-173231883D01*
X48949670Y-173139890D01*
X48971843Y-173084650D01*
X49028513Y-173020166D01*
X49160340Y-172960194D01*
X49401821Y-172895489D01*
X49545973Y-172881513D01*
X49627292Y-172909023D01*
X49674114Y-172945775D01*
X49122216Y-173783840D02*
X49060593Y-173553858D01*
X49785037Y-173359744D01*
X49233139Y-174197809D02*
X49159190Y-173921830D01*
X49196164Y-174059819D02*
X49920609Y-173865705D01*
X49804792Y-173847439D01*
X49723473Y-173819930D01*
X49676651Y-173783177D01*
X42472421Y-158642284D02*
X42456411Y-158720522D01*
X42487222Y-158835513D01*
X42534044Y-158872266D01*
X42574704Y-158886021D01*
X42649861Y-158890532D01*
X42718856Y-158872045D01*
X42781688Y-158830559D01*
X42810023Y-158798318D01*
X42832196Y-158743078D01*
X42842044Y-158641841D01*
X42864216Y-158586601D01*
X42892551Y-158554359D01*
X42955384Y-158512874D01*
X43024378Y-158494387D01*
X43099536Y-158498898D01*
X43140195Y-158512653D01*
X43187017Y-158549406D01*
X43217829Y-158664397D01*
X43201819Y-158742635D01*
X42567333Y-159134490D02*
X43291777Y-158940376D01*
X43322589Y-159055367D01*
X43306579Y-159133605D01*
X43249909Y-159198089D01*
X43187077Y-159239574D01*
X43055250Y-159299546D01*
X42951758Y-159327277D01*
X42807606Y-159341253D01*
X42732449Y-159336742D01*
X42651129Y-159309232D01*
X42598145Y-159249481D01*
X42567333Y-159134490D01*
X42897564Y-159538994D02*
X42959188Y-159768976D01*
X42678256Y-159548458D02*
X43445836Y-159515332D01*
X42764529Y-159870434D01*
X46515430Y-173523464D02*
X46474770Y-173509709D01*
X46421786Y-173449958D01*
X46409461Y-173403961D01*
X46425472Y-173325723D01*
X46482142Y-173261240D01*
X46544974Y-173219754D01*
X46676801Y-173159782D01*
X46780293Y-173132051D01*
X46924445Y-173118075D01*
X46999602Y-173122586D01*
X47080921Y-173150096D01*
X47133906Y-173209847D01*
X47146230Y-173255844D01*
X47130220Y-173334082D01*
X47101885Y-173366324D01*
X47250990Y-173646813D02*
X47275640Y-173738806D01*
X47253467Y-173794046D01*
X47196797Y-173858530D01*
X47064970Y-173918502D01*
X46823489Y-173983207D01*
X46679337Y-173997183D01*
X46598018Y-173969674D01*
X46551196Y-173932921D01*
X46526546Y-173840928D01*
X46548719Y-173785688D01*
X46605389Y-173721204D01*
X46737216Y-173661232D01*
X46978697Y-173596527D01*
X47122849Y-173582551D01*
X47204168Y-173610061D01*
X47250990Y-173646813D01*
X46699092Y-174484878D02*
X46637469Y-174254896D01*
X47361913Y-174060782D01*
X47491322Y-174543745D02*
X47503647Y-174589741D01*
X47481475Y-174644981D01*
X47453140Y-174677223D01*
X47390307Y-174718708D01*
X47258480Y-174778681D01*
X47085993Y-174824898D01*
X46941842Y-174838874D01*
X46866685Y-174834363D01*
X46826025Y-174820608D01*
X46779203Y-174783855D01*
X46766878Y-174737859D01*
X46789051Y-174682619D01*
X46817386Y-174650377D01*
X46880218Y-174608892D01*
X47012045Y-174548919D01*
X47184532Y-174502702D01*
X47328684Y-174488726D01*
X47403841Y-174493237D01*
X47444500Y-174506992D01*
X47491322Y-174543745D01*
X64147563Y-169311655D02*
X64131553Y-169389893D01*
X64103218Y-169422135D01*
X64040386Y-169463621D01*
X63936894Y-169491351D01*
X63861737Y-169486840D01*
X63821077Y-169473085D01*
X63774255Y-169436332D01*
X63724956Y-169252346D01*
X64449400Y-169058232D01*
X64492537Y-169219220D01*
X64470364Y-169274460D01*
X64442029Y-169306702D01*
X64379197Y-169348187D01*
X64310202Y-169366674D01*
X64235045Y-169362163D01*
X64194386Y-169348408D01*
X64147563Y-169311655D01*
X64104427Y-169150668D01*
X64634271Y-169748179D02*
X64609622Y-169656186D01*
X64562800Y-169619433D01*
X64522140Y-169605679D01*
X64406323Y-169587413D01*
X64262171Y-169601389D01*
X63986193Y-169675337D01*
X63923360Y-169716822D01*
X63895025Y-169749064D01*
X63872853Y-169804304D01*
X63897502Y-169896297D01*
X63944324Y-169933050D01*
X63984984Y-169946805D01*
X64060141Y-169951316D01*
X64232628Y-169905098D01*
X64295460Y-169863613D01*
X64323795Y-169831371D01*
X64345968Y-169776131D01*
X64321318Y-169684138D01*
X64274496Y-169647385D01*
X64233836Y-169633630D01*
X64158679Y-169629119D01*
X60225204Y-154574687D02*
X60209194Y-154652925D01*
X60180859Y-154685167D01*
X60118027Y-154726653D01*
X60014535Y-154754383D01*
X59939378Y-154749872D01*
X59898718Y-154736117D01*
X59851896Y-154699364D01*
X59802597Y-154515378D01*
X60527041Y-154321264D01*
X60570178Y-154482252D01*
X60548005Y-154537492D01*
X60519670Y-154569734D01*
X60456838Y-154611219D01*
X60387843Y-154629706D01*
X60312686Y-154625195D01*
X60272027Y-154611440D01*
X60225204Y-154574687D01*
X60182068Y-154413700D01*
X60718075Y-155034209D02*
X60656451Y-154804227D01*
X60305315Y-154873664D01*
X60345975Y-154887419D01*
X60392797Y-154924172D01*
X60423609Y-155039163D01*
X60401436Y-155094403D01*
X60373101Y-155126645D01*
X60310269Y-155168130D01*
X60137782Y-155214348D01*
X60062625Y-155209837D01*
X60021965Y-155196082D01*
X59975143Y-155159329D01*
X59944331Y-155044338D01*
X59966504Y-154989098D01*
X59994839Y-154956856D01*
X57710416Y-155248522D02*
X57694406Y-155326760D01*
X57666071Y-155359002D01*
X57603239Y-155400488D01*
X57499747Y-155428218D01*
X57424590Y-155423707D01*
X57383930Y-155409952D01*
X57337108Y-155373199D01*
X57287809Y-155189213D01*
X58012253Y-154995099D01*
X58055390Y-155156087D01*
X58033217Y-155211327D01*
X58004882Y-155243569D01*
X57942050Y-155285054D01*
X57873055Y-155303541D01*
X57797898Y-155299030D01*
X57757239Y-155285275D01*
X57710416Y-155248522D01*
X57667280Y-155087535D01*
X57955643Y-155749751D02*
X57472680Y-155879160D01*
X58200810Y-155560812D02*
X57652538Y-155584473D01*
X57732648Y-155883450D01*
X61658570Y-169875051D02*
X61642560Y-169953289D01*
X61614225Y-169985531D01*
X61551393Y-170027017D01*
X61447901Y-170054747D01*
X61372744Y-170050236D01*
X61332084Y-170036481D01*
X61285262Y-169999728D01*
X61235963Y-169815742D01*
X61960407Y-169621628D01*
X62003544Y-169782616D01*
X61981371Y-169837856D01*
X61953036Y-169870098D01*
X61890204Y-169911583D01*
X61821209Y-169930070D01*
X61746052Y-169925559D01*
X61705393Y-169911804D01*
X61658570Y-169875051D01*
X61615434Y-169714064D01*
X62014660Y-170100080D02*
X62055320Y-170113835D01*
X62102142Y-170150588D01*
X62132954Y-170265579D01*
X62110781Y-170320819D01*
X62082446Y-170353061D01*
X62019614Y-170394546D01*
X61950619Y-170413033D01*
X61840964Y-170417765D01*
X61353048Y-170252709D01*
X61433159Y-170551686D01*
X54827908Y-155577198D02*
X55129745Y-155323775D01*
X54753960Y-155301219D02*
X55478404Y-155107105D01*
X55527703Y-155291091D01*
X55505530Y-155346331D01*
X55477195Y-155378572D01*
X55414363Y-155420058D01*
X55310871Y-155447788D01*
X55235714Y-155443277D01*
X55195054Y-155429523D01*
X55148232Y-155392770D01*
X55098933Y-155208784D01*
X55632463Y-155682061D02*
X55657113Y-155774054D01*
X55634940Y-155829294D01*
X55578270Y-155893777D01*
X55446443Y-155953750D01*
X55204962Y-156018454D01*
X55060810Y-156032430D01*
X54979490Y-156004921D01*
X54932668Y-155968168D01*
X54908019Y-155876175D01*
X54930191Y-155820935D01*
X54986861Y-155756451D01*
X55118688Y-155696479D01*
X55360170Y-155631774D01*
X55504322Y-155617798D01*
X55585641Y-155645308D01*
X55632463Y-155682061D01*
X55731061Y-156050032D02*
X55037428Y-156359138D01*
X55579538Y-156312478D01*
X55086727Y-156543124D01*
X55841983Y-156464001D01*
X55878958Y-156601990D02*
X55959068Y-156900967D01*
X55639953Y-156813928D01*
X55658440Y-156882922D01*
X55636267Y-156938162D01*
X55607932Y-156970404D01*
X55545100Y-157011890D01*
X55372613Y-157058107D01*
X55297456Y-157053596D01*
X55256796Y-157039841D01*
X55209974Y-157003088D01*
X55173000Y-156865099D01*
X55195173Y-156809859D01*
X55223508Y-156777617D01*
X58839579Y-170272982D02*
X58798919Y-170259227D01*
X58745935Y-170199476D01*
X58733610Y-170153479D01*
X58749621Y-170075241D01*
X58806291Y-170010758D01*
X58869123Y-169969272D01*
X59000950Y-169909300D01*
X59104442Y-169881569D01*
X59248594Y-169867593D01*
X59323751Y-169872104D01*
X59405070Y-169899614D01*
X59458055Y-169959365D01*
X59470379Y-170005362D01*
X59454369Y-170083600D01*
X59426034Y-170115842D01*
X59575139Y-170396331D02*
X59599789Y-170488324D01*
X59577616Y-170543564D01*
X59520946Y-170608048D01*
X59389119Y-170668020D01*
X59147638Y-170732725D01*
X59003486Y-170746701D01*
X58922167Y-170719192D01*
X58875345Y-170682439D01*
X58850695Y-170590446D01*
X58872868Y-170535206D01*
X58929538Y-170470722D01*
X59061365Y-170410750D01*
X59302846Y-170346045D01*
X59446998Y-170332069D01*
X59528317Y-170359579D01*
X59575139Y-170396331D01*
X59023241Y-171234396D02*
X58961618Y-171004414D01*
X59686062Y-170810300D01*
X59852446Y-171431252D02*
X59790822Y-171201270D01*
X59439686Y-171270707D01*
X59480346Y-171284462D01*
X59527168Y-171321214D01*
X59557980Y-171436206D01*
X59535807Y-171491446D01*
X59507472Y-171523687D01*
X59444640Y-171565173D01*
X59272153Y-171611390D01*
X59196996Y-171606879D01*
X59156336Y-171593125D01*
X59109514Y-171556372D01*
X59078702Y-171441380D01*
X59100875Y-171386140D01*
X59129210Y-171353899D01*
X52320847Y-156248963D02*
X52622684Y-155995540D01*
X52246899Y-155972984D02*
X52971343Y-155778870D01*
X53020642Y-155962856D01*
X52998469Y-156018096D01*
X52970134Y-156050337D01*
X52907302Y-156091823D01*
X52803810Y-156119553D01*
X52728653Y-156115042D01*
X52687993Y-156101288D01*
X52641171Y-156064535D01*
X52591872Y-155880549D01*
X53125402Y-156353826D02*
X53150052Y-156445819D01*
X53127879Y-156501059D01*
X53071209Y-156565542D01*
X52939382Y-156625515D01*
X52697901Y-156690219D01*
X52553749Y-156704195D01*
X52472429Y-156676686D01*
X52425607Y-156639933D01*
X52400958Y-156547940D01*
X52423130Y-156492700D01*
X52479800Y-156428216D01*
X52611627Y-156368244D01*
X52853109Y-156303539D01*
X52997261Y-156289563D01*
X53078580Y-156317073D01*
X53125402Y-156353826D01*
X53224000Y-156721797D02*
X52530367Y-157030903D01*
X53072477Y-156984243D01*
X52579666Y-157214889D01*
X53334922Y-157135766D01*
X53309064Y-157315240D02*
X53349724Y-157328995D01*
X53396546Y-157365748D01*
X53427358Y-157480739D01*
X53405185Y-157535979D01*
X53376850Y-157568221D01*
X53314018Y-157609706D01*
X53245023Y-157628193D01*
X53135369Y-157632926D01*
X52647452Y-157467869D01*
X52727563Y-157766846D01*
X56332519Y-170944747D02*
X56291859Y-170930992D01*
X56238875Y-170871241D01*
X56226550Y-170825244D01*
X56242561Y-170747006D01*
X56299231Y-170682523D01*
X56362063Y-170641037D01*
X56493890Y-170581065D01*
X56597382Y-170553334D01*
X56741534Y-170539358D01*
X56816691Y-170543869D01*
X56898010Y-170571379D01*
X56950995Y-170631130D01*
X56963319Y-170677127D01*
X56947309Y-170755365D01*
X56918974Y-170787607D01*
X57068079Y-171068096D02*
X57092729Y-171160089D01*
X57070556Y-171215329D01*
X57013886Y-171279813D01*
X56882059Y-171339785D01*
X56640578Y-171404490D01*
X56496426Y-171418466D01*
X56415107Y-171390957D01*
X56368285Y-171354204D01*
X56343635Y-171262211D01*
X56365808Y-171206971D01*
X56422478Y-171142487D01*
X56554305Y-171082515D01*
X56795786Y-171017810D01*
X56939938Y-171003834D01*
X57021257Y-171031344D01*
X57068079Y-171068096D01*
X56516181Y-171906161D02*
X56454558Y-171676179D01*
X57179002Y-171482065D01*
X57097742Y-172144724D02*
X56614779Y-172274133D01*
X57342909Y-171955784D02*
X56794637Y-171979446D01*
X56874747Y-172278423D01*
X49846727Y-156860138D02*
X50148564Y-156606715D01*
X49772779Y-156584159D02*
X50497223Y-156390045D01*
X50546522Y-156574031D01*
X50524349Y-156629271D01*
X50496014Y-156661512D01*
X50433182Y-156702998D01*
X50329690Y-156730728D01*
X50254533Y-156726217D01*
X50213873Y-156712463D01*
X50167051Y-156675710D01*
X50117752Y-156491724D01*
X50651282Y-156965001D02*
X50675932Y-157056994D01*
X50653759Y-157112234D01*
X50597089Y-157176717D01*
X50465262Y-157236690D01*
X50223781Y-157301394D01*
X50079629Y-157315370D01*
X49998309Y-157287861D01*
X49951487Y-157251108D01*
X49926838Y-157159115D01*
X49949010Y-157103875D01*
X50005680Y-157039391D01*
X50137507Y-156979419D01*
X50378989Y-156914714D01*
X50523141Y-156900738D01*
X50604460Y-156928248D01*
X50651282Y-156965001D01*
X50749880Y-157332972D02*
X50056247Y-157642078D01*
X50598357Y-157595418D01*
X50105546Y-157826064D01*
X50860802Y-157746941D01*
X50253443Y-158378021D02*
X50179495Y-158102043D01*
X50216469Y-158240032D02*
X50940913Y-158045918D01*
X50825096Y-158027652D01*
X50743777Y-158000142D01*
X50696955Y-157963389D01*
X49846727Y-156860138D02*
X50148564Y-156606715D01*
X49772779Y-156584159D02*
X50497223Y-156390045D01*
X50546522Y-156574031D01*
X50524349Y-156629271D01*
X50496014Y-156661512D01*
X50433182Y-156702998D01*
X50329690Y-156730728D01*
X50254533Y-156726217D01*
X50213873Y-156712463D01*
X50167051Y-156675710D01*
X50117752Y-156491724D01*
X50651282Y-156965001D02*
X50675932Y-157056994D01*
X50653759Y-157112234D01*
X50597089Y-157176717D01*
X50465262Y-157236690D01*
X50223781Y-157301394D01*
X50079629Y-157315370D01*
X49998309Y-157287861D01*
X49951487Y-157251108D01*
X49926838Y-157159115D01*
X49949010Y-157103875D01*
X50005680Y-157039391D01*
X50137507Y-156979419D01*
X50378989Y-156914714D01*
X50523141Y-156900738D01*
X50604460Y-156928248D01*
X50651282Y-156965001D01*
X50749880Y-157332972D02*
X50056247Y-157642078D01*
X50598357Y-157595418D01*
X50105546Y-157826064D01*
X50860802Y-157746941D01*
X50253443Y-158378021D02*
X50179495Y-158102043D01*
X50216469Y-158240032D02*
X50940913Y-158045918D01*
X50825096Y-158027652D01*
X50743777Y-158000142D01*
X50696955Y-157963389D01*
X56332519Y-170944748D02*
X56291859Y-170930993D01*
X56238875Y-170871242D01*
X56226550Y-170825245D01*
X56242561Y-170747007D01*
X56299231Y-170682524D01*
X56362063Y-170641038D01*
X56493890Y-170581066D01*
X56597382Y-170553335D01*
X56741534Y-170539359D01*
X56816691Y-170543870D01*
X56898010Y-170571380D01*
X56950995Y-170631131D01*
X56963319Y-170677128D01*
X56947309Y-170755366D01*
X56918974Y-170787608D01*
X57068079Y-171068097D02*
X57092729Y-171160090D01*
X57070556Y-171215330D01*
X57013886Y-171279814D01*
X56882059Y-171339786D01*
X56640578Y-171404491D01*
X56496426Y-171418467D01*
X56415107Y-171390958D01*
X56368285Y-171354205D01*
X56343635Y-171262212D01*
X56365808Y-171206972D01*
X56422478Y-171142488D01*
X56554305Y-171082516D01*
X56795786Y-171017811D01*
X56939938Y-171003835D01*
X57021257Y-171031345D01*
X57068079Y-171068097D01*
X56516181Y-171906162D02*
X56454558Y-171676180D01*
X57179002Y-171482066D01*
X57097742Y-172144725D02*
X56614779Y-172274134D01*
X57342909Y-171955785D02*
X56794637Y-171979447D01*
X56874747Y-172278424D01*
X52320847Y-156248963D02*
X52622684Y-155995540D01*
X52246899Y-155972984D02*
X52971343Y-155778870D01*
X53020642Y-155962856D01*
X52998469Y-156018096D01*
X52970134Y-156050337D01*
X52907302Y-156091823D01*
X52803810Y-156119553D01*
X52728653Y-156115042D01*
X52687993Y-156101288D01*
X52641171Y-156064535D01*
X52591872Y-155880549D01*
X53125402Y-156353826D02*
X53150052Y-156445819D01*
X53127879Y-156501059D01*
X53071209Y-156565542D01*
X52939382Y-156625515D01*
X52697901Y-156690219D01*
X52553749Y-156704195D01*
X52472429Y-156676686D01*
X52425607Y-156639933D01*
X52400958Y-156547940D01*
X52423130Y-156492700D01*
X52479800Y-156428216D01*
X52611627Y-156368244D01*
X52853109Y-156303539D01*
X52997261Y-156289563D01*
X53078580Y-156317073D01*
X53125402Y-156353826D01*
X53224000Y-156721797D02*
X52530367Y-157030903D01*
X53072477Y-156984243D01*
X52579666Y-157214889D01*
X53334922Y-157135766D01*
X53309064Y-157315240D02*
X53349724Y-157328995D01*
X53396546Y-157365748D01*
X53427358Y-157480739D01*
X53405185Y-157535979D01*
X53376850Y-157568221D01*
X53314018Y-157609706D01*
X53245023Y-157628193D01*
X53135369Y-157632926D01*
X52647452Y-157467869D01*
X52727563Y-157766846D01*
X58839579Y-170272982D02*
X58798919Y-170259227D01*
X58745935Y-170199476D01*
X58733610Y-170153479D01*
X58749621Y-170075241D01*
X58806291Y-170010758D01*
X58869123Y-169969272D01*
X59000950Y-169909300D01*
X59104442Y-169881569D01*
X59248594Y-169867593D01*
X59323751Y-169872104D01*
X59405070Y-169899614D01*
X59458055Y-169959365D01*
X59470379Y-170005362D01*
X59454369Y-170083600D01*
X59426034Y-170115842D01*
X59575139Y-170396331D02*
X59599789Y-170488324D01*
X59577616Y-170543564D01*
X59520946Y-170608048D01*
X59389119Y-170668020D01*
X59147638Y-170732725D01*
X59003486Y-170746701D01*
X58922167Y-170719192D01*
X58875345Y-170682439D01*
X58850695Y-170590446D01*
X58872868Y-170535206D01*
X58929538Y-170470722D01*
X59061365Y-170410750D01*
X59302846Y-170346045D01*
X59446998Y-170332069D01*
X59528317Y-170359579D01*
X59575139Y-170396331D01*
X59023241Y-171234396D02*
X58961618Y-171004414D01*
X59686062Y-170810300D01*
X59852446Y-171431252D02*
X59790822Y-171201270D01*
X59439686Y-171270707D01*
X59480346Y-171284462D01*
X59527168Y-171321214D01*
X59557980Y-171436206D01*
X59535807Y-171491446D01*
X59507472Y-171523687D01*
X59444640Y-171565173D01*
X59272153Y-171611390D01*
X59196996Y-171606879D01*
X59156336Y-171593125D01*
X59109514Y-171556372D01*
X59078702Y-171441380D01*
X59100875Y-171386140D01*
X59129210Y-171353899D01*
X54827908Y-155577198D02*
X55129745Y-155323775D01*
X54753960Y-155301219D02*
X55478404Y-155107105D01*
X55527703Y-155291091D01*
X55505530Y-155346331D01*
X55477195Y-155378572D01*
X55414363Y-155420058D01*
X55310871Y-155447788D01*
X55235714Y-155443277D01*
X55195054Y-155429523D01*
X55148232Y-155392770D01*
X55098933Y-155208784D01*
X55632463Y-155682061D02*
X55657113Y-155774054D01*
X55634940Y-155829294D01*
X55578270Y-155893777D01*
X55446443Y-155953750D01*
X55204962Y-156018454D01*
X55060810Y-156032430D01*
X54979490Y-156004921D01*
X54932668Y-155968168D01*
X54908019Y-155876175D01*
X54930191Y-155820935D01*
X54986861Y-155756451D01*
X55118688Y-155696479D01*
X55360170Y-155631774D01*
X55504322Y-155617798D01*
X55585641Y-155645308D01*
X55632463Y-155682061D01*
X55731061Y-156050032D02*
X55037428Y-156359138D01*
X55579538Y-156312478D01*
X55086727Y-156543124D01*
X55841983Y-156464001D01*
X55878958Y-156601990D02*
X55959068Y-156900967D01*
X55639953Y-156813928D01*
X55658440Y-156882922D01*
X55636267Y-156938162D01*
X55607932Y-156970404D01*
X55545100Y-157011890D01*
X55372613Y-157058107D01*
X55297456Y-157053596D01*
X55256796Y-157039841D01*
X55209974Y-157003088D01*
X55173000Y-156865099D01*
X55195173Y-156809859D01*
X55223508Y-156777617D01*
X61658570Y-169875051D02*
X61642560Y-169953289D01*
X61614225Y-169985531D01*
X61551393Y-170027017D01*
X61447901Y-170054747D01*
X61372744Y-170050236D01*
X61332084Y-170036481D01*
X61285262Y-169999728D01*
X61235963Y-169815742D01*
X61960407Y-169621628D01*
X62003544Y-169782616D01*
X61981371Y-169837856D01*
X61953036Y-169870098D01*
X61890204Y-169911583D01*
X61821209Y-169930070D01*
X61746052Y-169925559D01*
X61705393Y-169911804D01*
X61658570Y-169875051D01*
X61615434Y-169714064D01*
X62014660Y-170100080D02*
X62055320Y-170113835D01*
X62102142Y-170150588D01*
X62132954Y-170265579D01*
X62110781Y-170320819D01*
X62082446Y-170353061D01*
X62019614Y-170394546D01*
X61950619Y-170413033D01*
X61840964Y-170417765D01*
X61353048Y-170252709D01*
X61433159Y-170551686D01*
X57710416Y-155248522D02*
X57694406Y-155326760D01*
X57666071Y-155359002D01*
X57603239Y-155400488D01*
X57499747Y-155428218D01*
X57424590Y-155423707D01*
X57383930Y-155409952D01*
X57337108Y-155373199D01*
X57287809Y-155189213D01*
X58012253Y-154995099D01*
X58055390Y-155156087D01*
X58033217Y-155211327D01*
X58004882Y-155243569D01*
X57942050Y-155285054D01*
X57873055Y-155303541D01*
X57797898Y-155299030D01*
X57757239Y-155285275D01*
X57710416Y-155248522D01*
X57667280Y-155087535D01*
X57955643Y-155749751D02*
X57472680Y-155879160D01*
X58200810Y-155560812D02*
X57652538Y-155584473D01*
X57732648Y-155883450D01*
X60225204Y-154574687D02*
X60209194Y-154652925D01*
X60180859Y-154685167D01*
X60118027Y-154726653D01*
X60014535Y-154754383D01*
X59939378Y-154749872D01*
X59898718Y-154736117D01*
X59851896Y-154699364D01*
X59802597Y-154515378D01*
X60527041Y-154321264D01*
X60570178Y-154482252D01*
X60548005Y-154537492D01*
X60519670Y-154569734D01*
X60456838Y-154611219D01*
X60387843Y-154629706D01*
X60312686Y-154625195D01*
X60272027Y-154611440D01*
X60225204Y-154574687D01*
X60182068Y-154413700D01*
X60718075Y-155034209D02*
X60656451Y-154804227D01*
X60305315Y-154873664D01*
X60345975Y-154887419D01*
X60392797Y-154924172D01*
X60423609Y-155039163D01*
X60401436Y-155094403D01*
X60373101Y-155126645D01*
X60310269Y-155168130D01*
X60137782Y-155214348D01*
X60062625Y-155209837D01*
X60021965Y-155196082D01*
X59975143Y-155159329D01*
X59944331Y-155044338D01*
X59966504Y-154989098D01*
X59994839Y-154956856D01*
X64147563Y-169311655D02*
X64131553Y-169389893D01*
X64103218Y-169422135D01*
X64040386Y-169463621D01*
X63936894Y-169491351D01*
X63861737Y-169486840D01*
X63821077Y-169473085D01*
X63774255Y-169436332D01*
X63724956Y-169252346D01*
X64449400Y-169058232D01*
X64492537Y-169219220D01*
X64470364Y-169274460D01*
X64442029Y-169306702D01*
X64379197Y-169348187D01*
X64310202Y-169366674D01*
X64235045Y-169362163D01*
X64194386Y-169348408D01*
X64147563Y-169311655D01*
X64104427Y-169150668D01*
X64634271Y-169748179D02*
X64609622Y-169656186D01*
X64562800Y-169619433D01*
X64522140Y-169605679D01*
X64406323Y-169587413D01*
X64262171Y-169601389D01*
X63986193Y-169675337D01*
X63923360Y-169716822D01*
X63895025Y-169749064D01*
X63872853Y-169804304D01*
X63897502Y-169896297D01*
X63944324Y-169933050D01*
X63984984Y-169946805D01*
X64060141Y-169951316D01*
X64232628Y-169905098D01*
X64295460Y-169863613D01*
X64323795Y-169831371D01*
X64345968Y-169776131D01*
X64321318Y-169684138D01*
X64274496Y-169647385D01*
X64233836Y-169633630D01*
X64158679Y-169629119D01*
X46515430Y-173523464D02*
X46474770Y-173509709D01*
X46421786Y-173449958D01*
X46409461Y-173403961D01*
X46425472Y-173325723D01*
X46482142Y-173261240D01*
X46544974Y-173219754D01*
X46676801Y-173159782D01*
X46780293Y-173132051D01*
X46924445Y-173118075D01*
X46999602Y-173122586D01*
X47080921Y-173150096D01*
X47133906Y-173209847D01*
X47146230Y-173255844D01*
X47130220Y-173334082D01*
X47101885Y-173366324D01*
X47250990Y-173646813D02*
X47275640Y-173738806D01*
X47253467Y-173794046D01*
X47196797Y-173858530D01*
X47064970Y-173918502D01*
X46823489Y-173983207D01*
X46679337Y-173997183D01*
X46598018Y-173969674D01*
X46551196Y-173932921D01*
X46526546Y-173840928D01*
X46548719Y-173785688D01*
X46605389Y-173721204D01*
X46737216Y-173661232D01*
X46978697Y-173596527D01*
X47122849Y-173582551D01*
X47204168Y-173610061D01*
X47250990Y-173646813D01*
X46699092Y-174484878D02*
X46637469Y-174254896D01*
X47361913Y-174060782D01*
X47491322Y-174543745D02*
X47503647Y-174589741D01*
X47481475Y-174644981D01*
X47453140Y-174677223D01*
X47390307Y-174718708D01*
X47258480Y-174778681D01*
X47085993Y-174824898D01*
X46941842Y-174838874D01*
X46866685Y-174834363D01*
X46826025Y-174820608D01*
X46779203Y-174783855D01*
X46766878Y-174737859D01*
X46789051Y-174682619D01*
X46817386Y-174650377D01*
X46880218Y-174608892D01*
X47012045Y-174548919D01*
X47184532Y-174502702D01*
X47328684Y-174488726D01*
X47403841Y-174493237D01*
X47444500Y-174506992D01*
X47491322Y-174543745D01*
X42472421Y-158642284D02*
X42456411Y-158720522D01*
X42487222Y-158835513D01*
X42534044Y-158872266D01*
X42574704Y-158886021D01*
X42649861Y-158890532D01*
X42718856Y-158872045D01*
X42781688Y-158830559D01*
X42810023Y-158798318D01*
X42832196Y-158743078D01*
X42842044Y-158641841D01*
X42864216Y-158586601D01*
X42892551Y-158554359D01*
X42955384Y-158512874D01*
X43024378Y-158494387D01*
X43099536Y-158498898D01*
X43140195Y-158512653D01*
X43187017Y-158549406D01*
X43217829Y-158664397D01*
X43201819Y-158742635D01*
X42567333Y-159134490D02*
X43291777Y-158940376D01*
X43322589Y-159055367D01*
X43306579Y-159133605D01*
X43249909Y-159198089D01*
X43187077Y-159239574D01*
X43055250Y-159299546D01*
X42951758Y-159327277D01*
X42807606Y-159341253D01*
X42732449Y-159336742D01*
X42651129Y-159309232D01*
X42598145Y-159249481D01*
X42567333Y-159134490D01*
X42897564Y-159538994D02*
X42959188Y-159768976D01*
X42678256Y-159548458D02*
X43445836Y-159515332D01*
X42764529Y-159870434D01*
X48938554Y-172822426D02*
X48897894Y-172808671D01*
X48844910Y-172748920D01*
X48832585Y-172702923D01*
X48848596Y-172624685D01*
X48905266Y-172560202D01*
X48968098Y-172518716D01*
X49099925Y-172458744D01*
X49203417Y-172431013D01*
X49347569Y-172417037D01*
X49422726Y-172421548D01*
X49504045Y-172449058D01*
X49557030Y-172508809D01*
X49569354Y-172554806D01*
X49553344Y-172633044D01*
X49525009Y-172665286D01*
X49674114Y-172945775D02*
X49698764Y-173037768D01*
X49676591Y-173093008D01*
X49619921Y-173157492D01*
X49488094Y-173217464D01*
X49246613Y-173282169D01*
X49102461Y-173296145D01*
X49021142Y-173268636D01*
X48974320Y-173231883D01*
X48949670Y-173139890D01*
X48971843Y-173084650D01*
X49028513Y-173020166D01*
X49160340Y-172960194D01*
X49401821Y-172895489D01*
X49545973Y-172881513D01*
X49627292Y-172909023D01*
X49674114Y-172945775D01*
X49122216Y-173783840D02*
X49060593Y-173553858D01*
X49785037Y-173359744D01*
X49233139Y-174197809D02*
X49159190Y-173921830D01*
X49196164Y-174059819D02*
X49920609Y-173865705D01*
X49804792Y-173847439D01*
X49723473Y-173819930D01*
X49676651Y-173783177D01*
X44928954Y-157996382D02*
X44912944Y-158074620D01*
X44943756Y-158189611D01*
X44990578Y-158226364D01*
X45031237Y-158240119D01*
X45106394Y-158244630D01*
X45175389Y-158226143D01*
X45238221Y-158184658D01*
X45266556Y-158152416D01*
X45288729Y-158097176D01*
X45298577Y-157995939D01*
X45320750Y-157940699D01*
X45349085Y-157908458D01*
X45411917Y-157866972D01*
X45480912Y-157848485D01*
X45556069Y-157852996D01*
X45596728Y-157866751D01*
X45643551Y-157903504D01*
X45674362Y-158018495D01*
X45658352Y-158096733D01*
X45166809Y-158746080D02*
X45126150Y-158732325D01*
X45073165Y-158672574D01*
X45060840Y-158626578D01*
X45076851Y-158548339D01*
X45133521Y-158483856D01*
X45196353Y-158442370D01*
X45328180Y-158382398D01*
X45431672Y-158354667D01*
X45575824Y-158340692D01*
X45650981Y-158345203D01*
X45732300Y-158372712D01*
X45785285Y-158432463D01*
X45797609Y-158478460D01*
X45781599Y-158556698D01*
X45753264Y-158588940D01*
X45214899Y-159201533D02*
X45153276Y-158971551D01*
X45877720Y-158777437D01*
X51404947Y-172213322D02*
X51364287Y-172199567D01*
X51311303Y-172139816D01*
X51298978Y-172093819D01*
X51314989Y-172015581D01*
X51371659Y-171951098D01*
X51434491Y-171909612D01*
X51566318Y-171849640D01*
X51669810Y-171821909D01*
X51813962Y-171807933D01*
X51889119Y-171812444D01*
X51970438Y-171839954D01*
X52023423Y-171899705D01*
X52035747Y-171945702D01*
X52019737Y-172023940D01*
X51991402Y-172056182D01*
X52140507Y-172336671D02*
X52165157Y-172428664D01*
X52142984Y-172483904D01*
X52086314Y-172548388D01*
X51954487Y-172608360D01*
X51713006Y-172673065D01*
X51568854Y-172687041D01*
X51487535Y-172659532D01*
X51440713Y-172622779D01*
X51416063Y-172530786D01*
X51438236Y-172475546D01*
X51494906Y-172411062D01*
X51626733Y-172351090D01*
X51868214Y-172286385D01*
X52012366Y-172272409D01*
X52093685Y-172299919D01*
X52140507Y-172336671D01*
X51588609Y-173174736D02*
X51526986Y-172944754D01*
X52251430Y-172750640D01*
X52281033Y-173137099D02*
X52321693Y-173150853D01*
X52368515Y-173187606D01*
X52399326Y-173302597D01*
X52377154Y-173357837D01*
X52348819Y-173390079D01*
X52285987Y-173431564D01*
X52216992Y-173450051D01*
X52107337Y-173454784D01*
X51619421Y-173289727D01*
X51699532Y-173588705D01*
X47442922Y-157555999D02*
X47744759Y-157302576D01*
X47368974Y-157280020D02*
X48093418Y-157085906D01*
X48142717Y-157269892D01*
X48120544Y-157325132D01*
X48092209Y-157357373D01*
X48029377Y-157398859D01*
X47925885Y-157426589D01*
X47850728Y-157422078D01*
X47810068Y-157408324D01*
X47763246Y-157371571D01*
X47713947Y-157187585D01*
X48247477Y-157660862D02*
X48272127Y-157752855D01*
X48249954Y-157808095D01*
X48193284Y-157872578D01*
X48061457Y-157932551D01*
X47819976Y-157997255D01*
X47675824Y-158011231D01*
X47594504Y-157983722D01*
X47547682Y-157946969D01*
X47523033Y-157854976D01*
X47545205Y-157799736D01*
X47601875Y-157735252D01*
X47733702Y-157675280D01*
X47975184Y-157610575D01*
X48119336Y-157596599D01*
X48200655Y-157624109D01*
X48247477Y-157660862D01*
X48346075Y-158028833D02*
X47652442Y-158337939D01*
X48194552Y-158291279D01*
X47701741Y-158521925D01*
X48456997Y-158442802D01*
X48530946Y-158718780D02*
X48543270Y-158764777D01*
X48521098Y-158820017D01*
X48492763Y-158852259D01*
X48429930Y-158893744D01*
X48298103Y-158953716D01*
X48125617Y-158999934D01*
X47981465Y-159013910D01*
X47906308Y-159009399D01*
X47865648Y-158995644D01*
X47818826Y-158958891D01*
X47806501Y-158912895D01*
X47828674Y-158857655D01*
X47857009Y-158825413D01*
X47919841Y-158783928D01*
X48051668Y-158723955D01*
X48224155Y-158677738D01*
X48368307Y-158663762D01*
X48443464Y-158668273D01*
X48484124Y-158682027D01*
X48530946Y-158718780D01*
X53930645Y-171640090D02*
X53889985Y-171626335D01*
X53837001Y-171566584D01*
X53824676Y-171520587D01*
X53840687Y-171442349D01*
X53897357Y-171377866D01*
X53960189Y-171336380D01*
X54092016Y-171276408D01*
X54195508Y-171248677D01*
X54339660Y-171234701D01*
X54414817Y-171239212D01*
X54496136Y-171266722D01*
X54549121Y-171326473D01*
X54561445Y-171372470D01*
X54545435Y-171450708D01*
X54517100Y-171482950D01*
X54666205Y-171763439D02*
X54690855Y-171855432D01*
X54668682Y-171910672D01*
X54612012Y-171975156D01*
X54480185Y-172035128D01*
X54238704Y-172099833D01*
X54094552Y-172113809D01*
X54013233Y-172086300D01*
X53966411Y-172049547D01*
X53941761Y-171957554D01*
X53963934Y-171902314D01*
X54020604Y-171837830D01*
X54152431Y-171777858D01*
X54393912Y-171713153D01*
X54538064Y-171699177D01*
X54619383Y-171726687D01*
X54666205Y-171763439D01*
X54114307Y-172601504D02*
X54052684Y-172371522D01*
X54777128Y-172177408D01*
X54869563Y-172522381D02*
X54949674Y-172821358D01*
X54630559Y-172734319D01*
X54649046Y-172803314D01*
X54626873Y-172858554D01*
X54598538Y-172890795D01*
X54535706Y-172932281D01*
X54363219Y-172978498D01*
X54288062Y-172973987D01*
X54247402Y-172960233D01*
X54200580Y-172923480D01*
X54163606Y-172785490D01*
X54185779Y-172730250D01*
X54214114Y-172698008D01*
X44621478Y-173716690D02*
X43940170Y-174071792D01*
X44707751Y-174038666D01*
X44169386Y-174651259D02*
X44128726Y-174637505D01*
X44075742Y-174577753D01*
X44063417Y-174531757D01*
X44079428Y-174453519D01*
X44136098Y-174389035D01*
X44198930Y-174347550D01*
X44330757Y-174287577D01*
X44434249Y-174259847D01*
X44578401Y-174245871D01*
X44653558Y-174250382D01*
X44734877Y-174277891D01*
X44787862Y-174337643D01*
X44800186Y-174383639D01*
X44784176Y-174461877D01*
X44755841Y-174494119D01*
X44298796Y-175134222D02*
X44258136Y-175120467D01*
X44205152Y-175060716D01*
X44192827Y-175014720D01*
X44208837Y-174936482D01*
X44265507Y-174871998D01*
X44328339Y-174830513D01*
X44460166Y-174770540D01*
X44563659Y-174742810D01*
X44707810Y-174728834D01*
X44782967Y-174733345D01*
X44864287Y-174760854D01*
X44917271Y-174820605D01*
X44929596Y-174866602D01*
X44913586Y-174944840D01*
X44885251Y-174977082D01*
X41606598Y-174931241D02*
X41908435Y-174677818D01*
X41532649Y-174655263D02*
X42257094Y-174461148D01*
X42306392Y-174645134D01*
X42284220Y-174700374D01*
X42255885Y-174732616D01*
X42193053Y-174774101D01*
X42089560Y-174801832D01*
X42014403Y-174797321D01*
X41973744Y-174783566D01*
X41926922Y-174746813D01*
X41877623Y-174562827D01*
X41690394Y-175105984D02*
X41674383Y-175184222D01*
X41705195Y-175299213D01*
X41752017Y-175335966D01*
X41792677Y-175349721D01*
X41867834Y-175354232D01*
X41936829Y-175335745D01*
X41999661Y-175294260D01*
X42027996Y-175262018D01*
X42050169Y-175206778D01*
X42060017Y-175105541D01*
X42082189Y-175050301D01*
X42110524Y-175018060D01*
X42173357Y-174976574D01*
X42242351Y-174958087D01*
X42317508Y-174962598D01*
X42358168Y-174976353D01*
X42404990Y-175013106D01*
X42435802Y-175128097D01*
X42419792Y-175206335D01*
X42491263Y-175335081D02*
X42565212Y-175611060D01*
X41803793Y-175667185D02*
X42528237Y-175473071D01*
X35057732Y-160596061D02*
X35782177Y-160401946D01*
X35812989Y-160516938D01*
X35796978Y-160595176D01*
X35740308Y-160659659D01*
X35677476Y-160701145D01*
X35545649Y-160761117D01*
X35442157Y-160788848D01*
X35298005Y-160802824D01*
X35222848Y-160798312D01*
X35141529Y-160770803D01*
X35088544Y-160711052D01*
X35057732Y-160596061D01*
X35387964Y-161000564D02*
X35449587Y-161230547D01*
X35168655Y-161010029D02*
X35936236Y-160976902D01*
X35254928Y-161332004D01*
X36004022Y-161229883D02*
X36077970Y-161505862D01*
X35316551Y-161561987D02*
X36040996Y-161367872D01*
X35597484Y-161782504D02*
X35659107Y-162012486D01*
X35378175Y-161791969D02*
X36145756Y-161758842D01*
X35464448Y-162113944D01*
X39754026Y-175316714D02*
X39776199Y-175261474D01*
X39757712Y-175192479D01*
X39704727Y-175132728D01*
X39623408Y-175105218D01*
X39548251Y-175100707D01*
X39404099Y-175114683D01*
X39300607Y-175142414D01*
X39168780Y-175202386D01*
X39105947Y-175243871D01*
X39049277Y-175308355D01*
X39033267Y-175386593D01*
X39045592Y-175432590D01*
X39098576Y-175492341D01*
X39139236Y-175506096D01*
X39380717Y-175441391D01*
X39356068Y-175349398D01*
X39125703Y-175731567D02*
X39850147Y-175537452D01*
X39199651Y-176007546D01*
X39924095Y-175813431D01*
X39261274Y-176237528D02*
X39985719Y-176043414D01*
X40016531Y-176158405D01*
X40000520Y-176236643D01*
X39943850Y-176301127D01*
X39881018Y-176342612D01*
X39749191Y-176402584D01*
X39645699Y-176430315D01*
X39501547Y-176444291D01*
X39426390Y-176439780D01*
X39345071Y-176412270D01*
X39292086Y-176352519D01*
X39261274Y-176237528D01*
X32687972Y-161519436D02*
X32626348Y-161289454D01*
X33350793Y-161095339D01*
X33110579Y-161578745D02*
X33153716Y-161739732D01*
X32792732Y-161910406D02*
X32731108Y-161680424D01*
X33455553Y-161486309D01*
X33517176Y-161716292D01*
X32848193Y-162117390D02*
X33572638Y-161923276D01*
X33603449Y-162038267D01*
X33587439Y-162116505D01*
X33530769Y-162180989D01*
X33467937Y-162222474D01*
X33336110Y-162282446D01*
X33232618Y-162310177D01*
X33088466Y-162324153D01*
X33013309Y-162319642D01*
X32931989Y-162292132D01*
X32879005Y-162232381D01*
X32848193Y-162117390D01*
X36619870Y-176193483D02*
X36921707Y-175940060D01*
X36545922Y-175917504D02*
X37270367Y-175723390D01*
X37319665Y-175907375D01*
X37297493Y-175962615D01*
X37269158Y-175994857D01*
X37206325Y-176036343D01*
X37102833Y-176064073D01*
X37027676Y-176059562D01*
X36987017Y-176045807D01*
X36940195Y-176009054D01*
X36890896Y-175825069D01*
X36876153Y-176322007D02*
X36937777Y-176551990D01*
X36656845Y-176331472D02*
X37424425Y-176298345D01*
X36743118Y-176653447D01*
X37498374Y-176574324D02*
X36804741Y-176883430D01*
X37346851Y-176836770D01*
X36854040Y-177067416D01*
X37609296Y-176988292D01*
D11*
X59996255Y-179465601D02*
X59592533Y-179047418D01*
X59431861Y-179554992D02*
X59275427Y-178567304D01*
X59651689Y-178507710D01*
X59753204Y-178539844D01*
X59807686Y-178579428D01*
X59869617Y-178666044D01*
X59891965Y-178807142D01*
X59859831Y-178908657D01*
X59820247Y-178963139D01*
X59733631Y-179025071D01*
X59357369Y-179084665D01*
X60337608Y-178881197D02*
X60666837Y-178829053D01*
X60889878Y-179324065D02*
X60419550Y-179398558D01*
X60263115Y-178410870D01*
X60733443Y-178336377D01*
X61258690Y-179217439D02*
X61407238Y-179242124D01*
X61642402Y-179204877D01*
X61729018Y-179142946D01*
X61768602Y-179088464D01*
X61800736Y-178986949D01*
X61785838Y-178892884D01*
X61723906Y-178806267D01*
X61669424Y-178766684D01*
X61567909Y-178734549D01*
X61372329Y-178717314D01*
X61270814Y-178685179D01*
X61216332Y-178645596D01*
X61154401Y-178558980D01*
X61139502Y-178464914D01*
X61171637Y-178363399D01*
X61211220Y-178308917D01*
X61297836Y-178246986D01*
X61533000Y-178209740D01*
X61681548Y-178234425D01*
X62171886Y-178590676D02*
X62501116Y-178538531D01*
X62724156Y-179033544D02*
X62253828Y-179108037D01*
X62097394Y-178120348D01*
X62567721Y-178045856D01*
X62849918Y-178001160D02*
X63414311Y-177911769D01*
X63288549Y-178944153D02*
X63132115Y-177956465D01*
%LPC*%
D13*
G36*
X31047839Y-149061820D02*
G01*
X33117905Y-148696812D01*
X33482913Y-150766878D01*
X31412847Y-151131886D01*
X31047839Y-149061820D01*
G37*
D14*
X33132759Y-140206242D03*
X31734013Y-146900837D03*
D13*
G36*
X31378649Y-136310657D02*
G01*
X33448715Y-135945649D01*
X33813723Y-138015715D01*
X31743657Y-138380723D01*
X31378649Y-136310657D01*
G37*
D14*
X39071318Y-137950756D03*
D13*
G36*
X41392179Y-144496182D02*
G01*
X43462245Y-144131174D01*
X43792523Y-146004278D01*
X41722457Y-146369286D01*
X41392179Y-144496182D01*
G37*
G36*
X37315471Y-134045323D02*
G01*
X39385537Y-133680315D01*
X39750545Y-135750381D01*
X37680479Y-136115389D01*
X37315471Y-134045323D01*
G37*
D14*
X40807800Y-147798834D03*
X42106136Y-142492769D03*
X30851880Y-141898014D03*
D15*
X36295770Y-143517293D03*
D16*
X37250835Y-148933736D03*
X35340705Y-138100850D03*
D17*
X35413637Y-138514470D03*
X37177903Y-148520116D03*
D14*
X34455958Y-147710477D03*
D18*
X258448400Y-19000000D03*
X277448400Y-181000000D03*
X177448400Y-19600000D03*
X220448400Y-180000000D03*
X110000000Y-19000000D03*
X129000000Y-181000000D03*
X167000000Y-20000000D03*
X210000000Y-180400000D03*
X75999600Y-20000000D03*
X18999600Y-19000000D03*
X37999600Y-181000000D03*
X118999600Y-180400000D03*
D13*
G36*
X45311215Y-52977746D02*
G01*
X45650389Y-51617391D01*
X47107773Y-51980758D01*
X46768599Y-53341113D01*
X45311215Y-52977746D01*
G37*
G36*
X41866665Y-52118924D02*
G01*
X42205839Y-50758569D01*
X43663223Y-51121936D01*
X43324049Y-52482291D01*
X41866665Y-52118924D01*
G37*
G36*
X39649115Y-77300882D02*
G01*
X39600186Y-75899737D01*
X41101271Y-75847318D01*
X41150200Y-77248463D01*
X39649115Y-77300882D01*
G37*
G36*
X36101277Y-77424776D02*
G01*
X36052348Y-76023631D01*
X37553433Y-75971212D01*
X37602362Y-77372357D01*
X36101277Y-77424776D01*
G37*
G36*
X28816186Y-48865071D02*
G01*
X29155360Y-47504716D01*
X30612744Y-47868083D01*
X30273570Y-49228438D01*
X28816186Y-48865071D01*
G37*
G36*
X25371636Y-48006249D02*
G01*
X25710810Y-46645894D01*
X27168194Y-47009261D01*
X26829020Y-48369616D01*
X25371636Y-48006249D01*
G37*
G36*
X79315588Y-109405597D02*
G01*
X81417267Y-109442282D01*
X81380582Y-111543961D01*
X79278903Y-111507276D01*
X79315588Y-109405597D01*
G37*
D14*
X83051926Y-101110541D03*
X80401490Y-107415245D03*
D13*
G36*
X82073356Y-96951830D02*
G01*
X84175035Y-96988515D01*
X84138350Y-99090194D01*
X82036671Y-99053509D01*
X82073356Y-96951830D01*
G37*
D14*
X89311744Y-100029625D03*
D13*
G36*
X90341037Y-106897635D02*
G01*
X92442717Y-106934320D01*
X92409523Y-108836031D01*
X90307843Y-108799346D01*
X90341037Y-106897635D01*
G37*
G36*
X88333349Y-95860916D02*
G01*
X90435028Y-95897601D01*
X90398343Y-97999280D01*
X88296664Y-97962595D01*
X88333349Y-95860916D01*
G37*
D14*
X89137219Y-110028102D03*
X91424146Y-105067259D03*
X80490148Y-102336019D03*
D15*
X85525045Y-104964290D03*
D16*
X85429057Y-110463452D03*
X85621033Y-99465128D03*
D17*
X85613703Y-99885064D03*
X85436387Y-110043516D03*
D14*
X82918938Y-108729381D03*
D13*
G36*
X44583006Y-115644368D02*
G01*
X44363684Y-114259629D01*
X45847192Y-114024664D01*
X46066514Y-115409403D01*
X44583006Y-115644368D01*
G37*
G36*
X41076712Y-116199710D02*
G01*
X40857390Y-114814971D01*
X42340898Y-114580006D01*
X42560220Y-115964745D01*
X41076712Y-116199710D01*
G37*
G36*
X61317729Y-19301679D02*
G01*
X61680593Y-17947451D01*
X63131413Y-18336197D01*
X62768549Y-19690425D01*
X61317729Y-19301679D01*
G37*
G36*
X57888693Y-18382871D02*
G01*
X58251557Y-17028643D01*
X59702377Y-17417389D01*
X59339513Y-18771617D01*
X57888693Y-18382871D01*
G37*
G36*
X32010699Y-136353554D02*
G01*
X31767244Y-134972854D01*
X33246425Y-134712034D01*
X33489880Y-136092734D01*
X32010699Y-136353554D01*
G37*
G36*
X28514631Y-136970006D02*
G01*
X28271176Y-135589306D01*
X29750357Y-135328486D01*
X29993812Y-136709186D01*
X28514631Y-136970006D01*
G37*
G36*
X47789570Y-146109800D02*
G01*
X49859636Y-145744792D01*
X50224644Y-147814858D01*
X48154578Y-148179866D01*
X47789570Y-146109800D01*
G37*
D14*
X49874490Y-137254222D03*
X48475744Y-143948817D03*
D13*
G36*
X48120380Y-133358637D02*
G01*
X50190446Y-132993629D01*
X50555454Y-135063695D01*
X48485388Y-135428703D01*
X48120380Y-133358637D01*
G37*
D14*
X55813049Y-134998736D03*
D13*
G36*
X58133910Y-141544162D02*
G01*
X60203976Y-141179154D01*
X60534254Y-143052258D01*
X58464188Y-143417266D01*
X58133910Y-141544162D01*
G37*
G36*
X54057202Y-131093303D02*
G01*
X56127268Y-130728295D01*
X56492276Y-132798361D01*
X54422210Y-133163369D01*
X54057202Y-131093303D01*
G37*
D14*
X57549531Y-144846814D03*
X58847867Y-139540749D03*
X47593611Y-138945994D03*
D15*
X53037501Y-140565273D03*
D16*
X53992566Y-145981716D03*
X52082436Y-135148830D03*
D17*
X52155368Y-135562450D03*
X53919634Y-145568096D03*
D14*
X51197689Y-144758457D03*
D13*
G36*
X73657225Y-150877365D02*
G01*
X73086980Y-149596574D01*
X74459125Y-148985655D01*
X75029370Y-150266446D01*
X73657225Y-150877365D01*
G37*
G36*
X70414139Y-152321281D02*
G01*
X69843894Y-151040490D01*
X71216039Y-150429571D01*
X71786284Y-151710362D01*
X70414139Y-152321281D01*
G37*
G36*
X106994576Y-177997627D02*
G01*
X108628137Y-176674796D01*
X109950968Y-178308357D01*
X108317407Y-179631188D01*
X106994576Y-177997627D01*
G37*
D14*
X104524818Y-169241575D03*
X106547051Y-175774925D03*
D13*
G36*
X101102022Y-166684829D02*
G01*
X102735583Y-165361998D01*
X104058414Y-166995559D01*
X102424853Y-168318390D01*
X101102022Y-166684829D01*
G37*
D14*
X108625317Y-164389812D03*
D13*
G36*
X113828473Y-168989395D02*
G01*
X115462034Y-167666563D01*
X116659001Y-169144695D01*
X115025440Y-170467527D01*
X113828473Y-168989395D01*
G37*
G36*
X105196228Y-161825294D02*
G01*
X106829789Y-160502463D01*
X108152620Y-162136024D01*
X106519059Y-163458855D01*
X105196228Y-161825294D01*
G37*
D14*
X114918521Y-172161271D03*
X113481640Y-166891037D03*
X103350104Y-171827024D03*
D15*
X108896479Y-170604027D03*
D16*
X112357741Y-174878330D03*
X105435217Y-166329724D03*
D17*
X105699531Y-166656126D03*
X112093427Y-174551928D03*
D14*
X109320239Y-175163427D03*
D13*
G36*
X73018481Y-39630049D02*
G01*
X73381345Y-38275821D01*
X74832165Y-38664567D01*
X74469301Y-40018795D01*
X73018481Y-39630049D01*
G37*
G36*
X69589445Y-38711241D02*
G01*
X69952309Y-37357013D01*
X71403129Y-37745759D01*
X71040265Y-39099987D01*
X69589445Y-38711241D01*
G37*
G36*
X75770968Y-163430940D02*
G01*
X77691240Y-162575980D01*
X78546200Y-164496252D01*
X76625928Y-165351212D01*
X75770968Y-163430940D01*
G37*
D14*
X75651598Y-154334022D03*
X75913970Y-161168147D03*
D13*
G36*
X73007166Y-150978510D02*
G01*
X74927438Y-150123550D01*
X75782398Y-152043822D01*
X73862126Y-152898782D01*
X73007166Y-150978510D01*
G37*
D14*
X80868105Y-150708866D03*
D13*
G36*
X84703508Y-156498398D02*
G01*
X86623781Y-155643438D01*
X87397394Y-157381002D01*
X85477121Y-158235962D01*
X84703508Y-156498398D01*
G37*
G36*
X78219605Y-147344219D02*
G01*
X80139877Y-146489259D01*
X80994837Y-148409531D01*
X79074565Y-149264491D01*
X78219605Y-147344219D01*
G37*
D14*
X84935471Y-159844321D03*
X84911588Y-154381773D03*
X73847748Y-156527336D03*
D15*
X79521670Y-156781519D03*
D16*
X81758722Y-161806019D03*
X77284618Y-151757019D03*
D17*
X77455448Y-152140708D03*
X81587892Y-161422330D03*
D14*
X78750931Y-161295238D03*
D13*
G36*
X65494163Y-130449514D02*
G01*
X65250708Y-129068814D01*
X66729889Y-128807994D01*
X66973344Y-130188694D01*
X65494163Y-130449514D01*
G37*
G36*
X61998095Y-131065966D02*
G01*
X61754640Y-129685266D01*
X63233821Y-129424446D01*
X63477276Y-130805146D01*
X61998095Y-131065966D01*
G37*
G36*
X27719570Y-118205103D02*
G01*
X27500248Y-116820364D01*
X28983756Y-116585399D01*
X29203078Y-117970138D01*
X27719570Y-118205103D01*
G37*
G36*
X24213276Y-118760445D02*
G01*
X23993954Y-117375706D01*
X25477462Y-117140741D01*
X25696784Y-118525480D01*
X24213276Y-118760445D01*
G37*
G36*
X101663951Y-166507355D02*
G01*
X100781644Y-165417796D01*
X101948917Y-164472557D01*
X102831224Y-165562116D01*
X101663951Y-166507355D01*
G37*
G36*
X98905083Y-168741443D02*
G01*
X98022776Y-167651884D01*
X99190049Y-166706645D01*
X100072356Y-167796204D01*
X98905083Y-168741443D01*
G37*
G36*
X51281877Y-36142569D02*
G01*
X49927649Y-35779705D01*
X50316395Y-34328885D01*
X51670623Y-34691749D01*
X51281877Y-36142569D01*
G37*
G36*
X50363069Y-39571605D02*
G01*
X49008841Y-39208741D01*
X49397587Y-37757921D01*
X50751815Y-38120785D01*
X50363069Y-39571605D01*
G37*
D19*
X73386876Y-174581970D02*
X73358956Y-173782458D01*
X69241783Y-176227634D02*
X69213863Y-175428122D01*
X69381381Y-180225198D02*
X69353461Y-179425686D01*
X69486080Y-183223370D02*
X69458160Y-182423858D01*
D20*
X71389363Y-177553493D03*
X71633660Y-184549229D03*
D19*
X75327757Y-180017546D02*
X75299837Y-179218034D01*
X75432455Y-183015718D02*
X75404535Y-182216206D01*
X70938368Y-174667474D02*
X70910448Y-173867962D01*
X75188159Y-176019982D02*
X75160239Y-175220470D01*
D20*
X73382594Y-184488155D03*
X73138297Y-177492419D03*
D13*
G36*
X22659472Y-77894172D02*
G01*
X22610543Y-76493027D01*
X24111628Y-76440608D01*
X24160557Y-77841753D01*
X22659472Y-77894172D01*
G37*
G36*
X19111634Y-78018066D02*
G01*
X19062705Y-76616921D01*
X20563790Y-76564502D01*
X20612719Y-77965647D01*
X19111634Y-78018066D01*
G37*
G36*
X40111574Y-96369744D02*
G01*
X39965025Y-94975424D01*
X41458796Y-94818422D01*
X41605345Y-96212742D01*
X40111574Y-96369744D01*
G37*
G36*
X36581022Y-96740820D02*
G01*
X36434473Y-95346500D01*
X37928244Y-95189498D01*
X38074793Y-96583818D01*
X36581022Y-96740820D01*
G37*
G36*
X23007067Y-98418873D02*
G01*
X22860518Y-97024553D01*
X24354289Y-96867551D01*
X24500838Y-98261871D01*
X23007067Y-98418873D01*
G37*
G36*
X19476515Y-98789949D02*
G01*
X19329966Y-97395629D01*
X20823737Y-97238627D01*
X20970286Y-98632947D01*
X19476515Y-98789949D01*
G37*
G36*
X87149795Y-146177795D02*
G01*
X89137275Y-145493451D01*
X89821619Y-147480931D01*
X87834139Y-148165275D01*
X87149795Y-146177795D01*
G37*
D14*
X87823728Y-137105090D03*
X87489469Y-143936076D03*
D13*
G36*
X85481811Y-133531870D02*
G01*
X87469291Y-132847526D01*
X88153635Y-134835006D01*
X86166155Y-135519350D01*
X85481811Y-133531870D01*
G37*
D14*
X93336338Y-133948378D03*
D13*
G36*
X96652555Y-140050157D02*
G01*
X98640035Y-139365813D01*
X99259265Y-141164189D01*
X97271785Y-141848533D01*
X96652555Y-140050157D01*
G37*
G36*
X90991165Y-130365702D02*
G01*
X92978645Y-129681358D01*
X93662989Y-131668838D01*
X91675509Y-132353182D01*
X90991165Y-130365702D01*
G37*
D14*
X96592020Y-143403564D03*
X97044320Y-137959721D03*
X85835583Y-139132842D03*
D15*
X91465760Y-139880573D03*
D16*
X93256385Y-145080925D03*
X89675135Y-134680221D03*
D17*
X89811874Y-135077339D03*
X93119646Y-144683807D03*
D14*
X90304557Y-144309942D03*
D13*
G36*
X38076123Y-109100245D02*
G01*
X40166608Y-108880526D01*
X40386327Y-110971011D01*
X38295842Y-111190730D01*
X38076123Y-109100245D01*
G37*
D14*
X40773698Y-100411675D03*
X38911368Y-106992391D03*
D13*
G36*
X39295603Y-96403219D02*
G01*
X41386088Y-96183500D01*
X41605807Y-98273985D01*
X39515322Y-98493704D01*
X39295603Y-96403219D01*
G37*
D14*
X46855126Y-98575936D03*
D13*
G36*
X48713747Y-105267313D02*
G01*
X50804232Y-105047594D01*
X51003045Y-106939175D01*
X48912560Y-107158894D01*
X48713747Y-105267313D01*
G37*
G36*
X45375985Y-94557535D02*
G01*
X47466470Y-94337816D01*
X47686189Y-96428301D01*
X45595704Y-96648020D01*
X45375985Y-94557535D01*
G37*
D14*
X47900410Y-108521155D03*
X49565716Y-103318583D03*
X38380363Y-101940220D03*
D15*
X43698037Y-103935301D03*
D16*
X44272944Y-109405171D03*
X43123130Y-98465431D03*
D17*
X43167032Y-98883130D03*
X44229042Y-108987472D03*
D14*
X41570205Y-107989932D03*
D13*
G36*
X92299413Y-150747878D02*
G01*
X91619710Y-149521662D01*
X92933389Y-148793478D01*
X93613092Y-150019694D01*
X92299413Y-150747878D01*
G37*
G36*
X89194513Y-152468952D02*
G01*
X88514810Y-151242736D01*
X89828489Y-150514552D01*
X90508192Y-151740768D01*
X89194513Y-152468952D01*
G37*
G36*
X61300973Y-112886335D02*
G01*
X61081651Y-111501596D01*
X62565159Y-111266631D01*
X62784481Y-112651370D01*
X61300973Y-112886335D01*
G37*
G36*
X57794679Y-113441677D02*
G01*
X57575357Y-112056938D01*
X59058865Y-111821973D01*
X59278187Y-113206712D01*
X57794679Y-113441677D01*
G37*
G36*
X55074335Y-30412358D02*
G01*
X57104711Y-30956396D01*
X56560673Y-32986772D01*
X54530297Y-32442734D01*
X55074335Y-30412358D01*
G37*
D14*
X60706443Y-23267603D03*
X56609490Y-28743832D03*
D13*
G36*
X60763025Y-18995685D02*
G01*
X62793401Y-19539723D01*
X62249363Y-21570099D01*
X60218987Y-21026061D01*
X60763025Y-18995685D01*
G37*
D14*
X67041815Y-23733182D03*
D13*
G36*
X66379012Y-30646192D02*
G01*
X68409388Y-31190229D01*
X67917114Y-33027420D01*
X65886738Y-32483383D01*
X66379012Y-30646192D01*
G37*
G36*
X67100985Y-19451605D02*
G01*
X69131361Y-19995643D01*
X68587323Y-22026019D01*
X66556947Y-21481981D01*
X67100985Y-19451605D01*
G37*
D14*
X64453624Y-33392441D03*
X67872756Y-29132213D03*
X57924291Y-23836929D03*
D15*
X62173794Y-27605181D03*
D16*
X60750289Y-32917773D03*
X63597299Y-22292589D03*
D17*
X63488595Y-22698278D03*
X60858993Y-32512084D03*
D14*
X58734242Y-30627958D03*
D13*
G36*
X53819200Y-89130633D02*
G01*
X55919919Y-89057274D01*
X55993278Y-91157993D01*
X53892559Y-91231352D01*
X53819200Y-89130633D01*
G37*
D14*
X57116287Y-80651401D03*
X54799446Y-87086177D03*
D13*
G36*
X55921409Y-76549603D02*
G01*
X58022128Y-76476244D01*
X58095487Y-78576963D01*
X55994768Y-78650322D01*
X55921409Y-76549603D01*
G37*
D14*
X63310956Y-79244353D03*
D13*
G36*
X64698282Y-86049081D02*
G01*
X66799001Y-85975722D01*
X66865380Y-87876563D01*
X64764661Y-87949922D01*
X64698282Y-86049081D01*
G37*
G36*
X62115728Y-75132561D02*
G01*
X64216447Y-75059202D01*
X64289806Y-77159921D01*
X62189087Y-77233280D01*
X62115728Y-75132561D01*
G37*
D14*
X63659951Y-89238261D03*
X65684113Y-84164528D03*
X54622157Y-82009272D03*
D15*
X59787707Y-84370435D03*
D16*
X59979654Y-89867085D03*
X59595760Y-78873785D03*
D17*
X59610418Y-79293530D03*
X59964996Y-89447340D03*
D14*
X57382221Y-88266759D03*
D13*
G36*
X95683707Y-162950375D02*
G01*
X97522157Y-161931305D01*
X98541227Y-163769755D01*
X96702777Y-164788825D01*
X95683707Y-162950375D01*
G37*
D14*
X94771942Y-153898477D03*
X95628949Y-160683729D03*
D13*
G36*
X91845121Y-150786212D02*
G01*
X93683571Y-149767142D01*
X94702641Y-151605592D01*
X92864191Y-152624662D01*
X91845121Y-150786212D01*
G37*
D14*
X99652646Y-149832468D03*
D13*
G36*
X103978045Y-155265692D02*
G01*
X105816495Y-154246622D01*
X106738603Y-155910148D01*
X104900153Y-156929218D01*
X103978045Y-155265692D01*
G37*
G36*
X96720976Y-146711457D02*
G01*
X98559426Y-145692387D01*
X99578496Y-147530837D01*
X97740046Y-148549907D01*
X96720976Y-146711457D01*
G37*
D14*
X104500742Y-158578665D03*
X104000857Y-153138985D03*
X93166116Y-156240661D03*
D15*
X98840601Y-155999362D03*
D16*
X101507054Y-160809770D03*
X96174148Y-151188954D03*
D17*
X96377768Y-151556294D03*
X101303434Y-160442430D03*
D14*
X98466192Y-160563080D03*
D13*
G36*
X43325765Y-128235245D02*
G01*
X45401886Y-127906420D01*
X45730711Y-129982541D01*
X43654590Y-130311366D01*
X43325765Y-128235245D01*
G37*
D14*
X45564918Y-119417402D03*
X44049549Y-126086566D03*
D13*
G36*
X43879063Y-115491797D02*
G01*
X45955184Y-115162972D01*
X46284009Y-117239093D01*
X44207888Y-117567918D01*
X43879063Y-115491797D01*
G37*
D14*
X51541937Y-117265902D03*
D13*
G36*
X53748210Y-123850836D02*
G01*
X55824331Y-123522011D01*
X56121870Y-125400594D01*
X54045749Y-125729419D01*
X53748210Y-123850836D01*
G37*
G36*
X49854517Y-113330420D02*
G01*
X51930638Y-113001595D01*
X52259463Y-115077716D01*
X50183342Y-115406541D01*
X49854517Y-113330420D01*
G37*
D14*
X53106281Y-127142785D03*
X54497023Y-121860188D03*
X43254862Y-121069110D03*
D15*
X48669662Y-122783151D03*
D16*
X49530052Y-128215437D03*
X47809272Y-117350865D03*
D17*
X47874975Y-117765694D03*
X49464349Y-127800608D03*
D14*
X46756949Y-126943587D03*
D13*
G36*
X56638760Y-76707589D02*
G01*
X56589831Y-75306444D01*
X58090916Y-75254025D01*
X58139845Y-76655170D01*
X56638760Y-76707589D01*
G37*
G36*
X53090922Y-76831483D02*
G01*
X53041993Y-75430338D01*
X54543078Y-75377919D01*
X54592007Y-76779064D01*
X53090922Y-76831483D01*
G37*
G36*
X66838189Y-50646528D02*
G01*
X68868565Y-51190566D01*
X68324527Y-53220942D01*
X66294151Y-52676904D01*
X66838189Y-50646528D01*
G37*
D14*
X72470297Y-43501773D03*
X68373344Y-48978002D03*
D13*
G36*
X72526879Y-39229855D02*
G01*
X74557255Y-39773893D01*
X74013217Y-41804269D01*
X71982841Y-41260231D01*
X72526879Y-39229855D01*
G37*
D14*
X78805669Y-43967352D03*
D13*
G36*
X78142866Y-50880362D02*
G01*
X80173242Y-51424399D01*
X79680968Y-53261590D01*
X77650592Y-52717553D01*
X78142866Y-50880362D01*
G37*
G36*
X78864839Y-39685775D02*
G01*
X80895215Y-40229813D01*
X80351177Y-42260189D01*
X78320801Y-41716151D01*
X78864839Y-39685775D01*
G37*
D14*
X76217478Y-53626611D03*
X79636610Y-49366383D03*
X69688145Y-44071099D03*
D15*
X73937648Y-47839351D03*
D16*
X72514143Y-53151943D03*
X75361153Y-42526759D03*
D17*
X75252449Y-42932448D03*
X72622847Y-52746254D03*
D14*
X70498096Y-50862128D03*
D13*
G36*
X55672773Y-68235655D02*
G01*
X57712335Y-68744175D01*
X57203815Y-70783737D01*
X55164253Y-70275217D01*
X55672773Y-68235655D01*
G37*
D14*
X61179330Y-60993695D03*
X57178575Y-66540591D03*
D13*
G36*
X61161348Y-56721440D02*
G01*
X63200910Y-57229960D01*
X62692390Y-59269522D01*
X60652828Y-58761002D01*
X61161348Y-56721440D01*
G37*
D14*
X67521863Y-61348635D03*
D13*
G36*
X66979809Y-68272159D02*
G01*
X69019371Y-68780679D01*
X68559235Y-70626181D01*
X66519673Y-70117661D01*
X66979809Y-68272159D01*
G37*
G36*
X67506300Y-57066678D02*
G01*
X69545862Y-57575198D01*
X69037342Y-59614760D01*
X66997780Y-59106240D01*
X67506300Y-57066678D01*
G37*
D14*
X65102644Y-71051593D03*
X68446904Y-66732342D03*
X58407538Y-61611489D03*
D15*
X62722159Y-65305003D03*
D16*
X61391589Y-70641629D03*
X64052729Y-59968377D03*
D17*
X63951122Y-60375901D03*
X61493196Y-70234105D03*
D14*
X59335885Y-68387348D03*
D13*
G36*
X21169247Y-110877226D02*
G01*
X23259732Y-110657507D01*
X23479451Y-112747992D01*
X21388966Y-112967711D01*
X21169247Y-110877226D01*
G37*
D14*
X23866822Y-102188656D03*
X22004492Y-108769372D03*
D13*
G36*
X22388727Y-98180200D02*
G01*
X24479212Y-97960481D01*
X24698931Y-100050966D01*
X22608446Y-100270685D01*
X22388727Y-98180200D01*
G37*
D14*
X29948250Y-100352917D03*
D13*
G36*
X31806871Y-107044294D02*
G01*
X33897356Y-106824575D01*
X34096169Y-108716156D01*
X32005684Y-108935875D01*
X31806871Y-107044294D01*
G37*
G36*
X28469109Y-96334516D02*
G01*
X30559594Y-96114797D01*
X30779313Y-98205282D01*
X28688828Y-98425001D01*
X28469109Y-96334516D01*
G37*
D14*
X30993534Y-110298136D03*
X32658840Y-105095564D03*
X21473487Y-103717201D03*
D15*
X26791161Y-105712282D03*
D16*
X27366068Y-111182152D03*
X26216254Y-100242412D03*
D17*
X26260156Y-100660111D03*
X27322166Y-110764453D03*
D14*
X24663329Y-109766913D03*
D13*
G36*
X54982995Y-107323261D02*
G01*
X57073480Y-107103542D01*
X57293199Y-109194027D01*
X55202714Y-109413746D01*
X54982995Y-107323261D01*
G37*
D14*
X57680570Y-98634691D03*
X55818240Y-105215407D03*
D13*
G36*
X56202475Y-94626235D02*
G01*
X58292960Y-94406516D01*
X58512679Y-96497001D01*
X56422194Y-96716720D01*
X56202475Y-94626235D01*
G37*
D14*
X63761998Y-96798952D03*
D13*
G36*
X65620619Y-103490329D02*
G01*
X67711104Y-103270610D01*
X67909917Y-105162191D01*
X65819432Y-105381910D01*
X65620619Y-103490329D01*
G37*
G36*
X62282857Y-92780551D02*
G01*
X64373342Y-92560832D01*
X64593061Y-94651317D01*
X62502576Y-94871036D01*
X62282857Y-92780551D01*
G37*
D14*
X64807282Y-106744171D03*
X66472588Y-101541599D03*
X55287235Y-100163236D03*
D15*
X60604909Y-102158317D03*
D16*
X61179816Y-107628187D03*
X60030002Y-96688447D03*
D17*
X60073904Y-97106146D03*
X61135914Y-107210488D03*
D14*
X58477077Y-106212948D03*
D21*
X34105619Y-160592362D03*
X36559070Y-159934962D03*
X39012522Y-159277561D03*
X41465974Y-158620161D03*
X43919425Y-157962760D03*
X46372877Y-157305360D03*
X48826328Y-156647960D03*
X51279780Y-155990559D03*
X53733232Y-155333159D03*
X56186683Y-154675759D03*
X58640135Y-154018358D03*
X61093586Y-153360958D03*
X65037989Y-168081667D03*
X62584537Y-168739068D03*
X60131085Y-169396468D03*
X57677634Y-170053869D03*
X55224182Y-170711269D03*
X52770731Y-171368669D03*
X50317279Y-172026070D03*
X47863827Y-172683470D03*
X45410376Y-173340870D03*
X42956924Y-173998271D03*
X40503473Y-174655671D03*
X38050021Y-175313072D03*
X32540772Y-159659177D03*
X34994223Y-159001776D03*
X37447675Y-158344376D03*
X39901127Y-157686976D03*
X42354578Y-157029575D03*
X44808030Y-156372175D03*
X47261481Y-155714774D03*
X49714933Y-155057374D03*
X52168385Y-154399974D03*
X54621836Y-153742573D03*
X57075288Y-153085173D03*
X59528739Y-152427773D03*
X63467965Y-167129164D03*
X61014514Y-167786564D03*
X58561062Y-168443964D03*
X56107610Y-169101365D03*
X53654159Y-169758765D03*
X51200707Y-170416165D03*
X48747256Y-171073566D03*
X46293804Y-171730966D03*
X43840352Y-172388367D03*
X41386901Y-173045767D03*
X38933449Y-173703167D03*
X36479998Y-174360568D03*
D13*
G36*
X37025868Y-89717998D02*
G01*
X39126587Y-89644639D01*
X39199946Y-91745358D01*
X37099227Y-91818717D01*
X37025868Y-89717998D01*
G37*
D14*
X40322955Y-81238766D03*
X38006114Y-87673542D03*
D13*
G36*
X39128077Y-77136968D02*
G01*
X41228796Y-77063609D01*
X41302155Y-79164328D01*
X39201436Y-79237687D01*
X39128077Y-77136968D01*
G37*
D14*
X46517624Y-79831718D03*
D13*
G36*
X47904950Y-86636446D02*
G01*
X50005669Y-86563087D01*
X50072048Y-88463928D01*
X47971329Y-88537287D01*
X47904950Y-86636446D01*
G37*
G36*
X45322396Y-75719926D02*
G01*
X47423115Y-75646567D01*
X47496474Y-77747286D01*
X45395755Y-77820645D01*
X45322396Y-75719926D01*
G37*
D14*
X46866619Y-89825626D03*
X48890781Y-84751893D03*
X37828825Y-82596637D03*
D15*
X42994375Y-84957800D03*
D16*
X43186322Y-90454450D03*
X42802428Y-79461150D03*
D17*
X42817086Y-79880895D03*
X43171664Y-90034705D03*
D14*
X40588889Y-88854124D03*
D13*
G36*
X61806242Y-57090415D02*
G01*
X62145416Y-55730060D01*
X63602800Y-56093427D01*
X63263626Y-57453782D01*
X61806242Y-57090415D01*
G37*
G36*
X58361692Y-56231593D02*
G01*
X58700866Y-54871238D01*
X60158250Y-55234605D01*
X59819076Y-56594960D01*
X58361692Y-56231593D01*
G37*
G36*
X81621291Y-128133250D02*
G01*
X83697412Y-127804425D01*
X84026237Y-129880546D01*
X81950116Y-130209371D01*
X81621291Y-128133250D01*
G37*
D14*
X83860444Y-119315407D03*
X82345075Y-125984571D03*
D13*
G36*
X82174589Y-115389802D02*
G01*
X84250710Y-115060977D01*
X84579535Y-117137098D01*
X82503414Y-117465923D01*
X82174589Y-115389802D01*
G37*
D14*
X89837463Y-117163907D03*
D13*
G36*
X92043736Y-123748841D02*
G01*
X94119857Y-123420016D01*
X94417396Y-125298599D01*
X92341275Y-125627424D01*
X92043736Y-123748841D01*
G37*
G36*
X88150043Y-113228425D02*
G01*
X90226164Y-112899600D01*
X90554989Y-114975721D01*
X88478868Y-115304546D01*
X88150043Y-113228425D01*
G37*
D14*
X91401807Y-127040790D03*
X92792549Y-121758193D03*
X81550388Y-120967115D03*
D15*
X86965188Y-122681156D03*
D16*
X87825578Y-128113442D03*
X86104798Y-117248870D03*
D17*
X86170501Y-117663699D03*
X87759875Y-127698613D03*
D14*
X85052475Y-126841592D03*
D13*
G36*
X85997468Y-179593799D02*
G01*
X87740105Y-178418376D01*
X88915528Y-180161013D01*
X87172891Y-181336436D01*
X85997468Y-179593799D01*
G37*
D14*
X84300249Y-170655813D03*
X85745368Y-177340551D03*
D13*
G36*
X81113313Y-167810480D02*
G01*
X82855950Y-166635057D01*
X84031373Y-168377694D01*
X82288736Y-169553117D01*
X81113313Y-167810480D01*
G37*
D14*
X88808004Y-166179894D03*
D13*
G36*
X93590480Y-171215460D02*
G01*
X95333117Y-170040037D01*
X96396702Y-171616866D01*
X94654065Y-172792289D01*
X93590480Y-171215460D01*
G37*
G36*
X85615476Y-163326271D02*
G01*
X87358113Y-162150848D01*
X88533536Y-163893485D01*
X86790899Y-165068908D01*
X85615476Y-163326271D01*
G37*
D14*
X94399933Y-174470270D03*
X93427851Y-169094858D03*
X82904668Y-173129041D03*
D15*
X88536529Y-172394096D03*
D16*
X91612090Y-176953803D03*
X85460968Y-167834389D03*
D17*
X85695829Y-168182585D03*
X91377229Y-176605607D03*
D14*
X88561299Y-176973079D03*
D13*
G36*
X64531301Y-143157783D02*
G01*
X66601367Y-142792775D01*
X66966375Y-144862841D01*
X64896309Y-145227849D01*
X64531301Y-143157783D01*
G37*
D14*
X66616221Y-134302205D03*
X65217475Y-140996800D03*
D13*
G36*
X64862111Y-130406620D02*
G01*
X66932177Y-130041612D01*
X67297185Y-132111678D01*
X65227119Y-132476686D01*
X64862111Y-130406620D01*
G37*
D14*
X72554780Y-132046719D03*
D13*
G36*
X74875641Y-138592145D02*
G01*
X76945707Y-138227137D01*
X77275985Y-140100241D01*
X75205919Y-140465249D01*
X74875641Y-138592145D01*
G37*
G36*
X70798933Y-128141286D02*
G01*
X72868999Y-127776278D01*
X73234007Y-129846344D01*
X71163941Y-130211352D01*
X70798933Y-128141286D01*
G37*
D14*
X74291262Y-141894797D03*
X75589598Y-136588732D03*
X64335342Y-135993977D03*
D15*
X69779232Y-137613256D03*
D16*
X70734297Y-143029699D03*
X68824167Y-132196813D03*
D17*
X68897099Y-132610433D03*
X70661365Y-142616079D03*
D14*
X67939420Y-141806440D03*
D13*
G36*
X50900416Y-46376016D02*
G01*
X52930792Y-46920054D01*
X52386754Y-48950430D01*
X50356378Y-48406392D01*
X50900416Y-46376016D01*
G37*
D14*
X56532524Y-39231261D03*
X52435571Y-44707490D03*
D13*
G36*
X56589106Y-34959343D02*
G01*
X58619482Y-35503381D01*
X58075444Y-37533757D01*
X56045068Y-36989719D01*
X56589106Y-34959343D01*
G37*
D14*
X62867896Y-39696840D03*
D13*
G36*
X62205093Y-46609850D02*
G01*
X64235469Y-47153887D01*
X63743195Y-48991078D01*
X61712819Y-48447041D01*
X62205093Y-46609850D01*
G37*
G36*
X62927066Y-35415263D02*
G01*
X64957442Y-35959301D01*
X64413404Y-37989677D01*
X62383028Y-37445639D01*
X62927066Y-35415263D01*
G37*
D14*
X60279705Y-49356099D03*
X63698837Y-45095871D03*
X53750372Y-39800587D03*
D15*
X57999875Y-43568839D03*
D16*
X56576370Y-48881431D03*
X59423380Y-38256247D03*
D17*
X59314676Y-38661936D03*
X56685074Y-48475742D03*
D14*
X54560323Y-46591616D03*
D13*
G36*
X81761195Y-167653321D02*
G01*
X80977207Y-166491011D01*
X82222421Y-165651103D01*
X83006409Y-166813413D01*
X81761195Y-167653321D01*
G37*
G36*
X78818111Y-169638455D02*
G01*
X78034123Y-168476145D01*
X79279337Y-167636237D01*
X80063325Y-168798547D01*
X78818111Y-169638455D01*
G37*
G36*
X22685138Y-60000612D02*
G01*
X24724700Y-60509132D01*
X24216180Y-62548694D01*
X22176618Y-62040174D01*
X22685138Y-60000612D01*
G37*
D14*
X28191695Y-52758652D03*
X24190940Y-58305548D03*
D13*
G36*
X28173713Y-48486397D02*
G01*
X30213275Y-48994917D01*
X29704755Y-51034479D01*
X27665193Y-50525959D01*
X28173713Y-48486397D01*
G37*
D14*
X34534228Y-53113592D03*
D13*
G36*
X33992174Y-60037116D02*
G01*
X36031736Y-60545636D01*
X35571600Y-62391138D01*
X33532038Y-61882618D01*
X33992174Y-60037116D01*
G37*
G36*
X34518665Y-48831635D02*
G01*
X36558227Y-49340155D01*
X36049707Y-51379717D01*
X34010145Y-50871197D01*
X34518665Y-48831635D01*
G37*
D14*
X32115009Y-62816550D03*
X35459269Y-58497299D03*
X25419903Y-53376446D03*
D15*
X29734524Y-57069960D03*
D16*
X28403954Y-62406586D03*
X31065094Y-51733334D03*
D17*
X30963487Y-52140858D03*
X28505561Y-61999062D03*
D14*
X26348250Y-60152305D03*
D13*
G36*
X39177746Y-64122984D02*
G01*
X41217308Y-64631504D01*
X40708788Y-66671066D01*
X38669226Y-66162546D01*
X39177746Y-64122984D01*
G37*
D14*
X44684303Y-56881024D03*
X40683548Y-62427920D03*
D13*
G36*
X44666321Y-52608769D02*
G01*
X46705883Y-53117289D01*
X46197363Y-55156851D01*
X44157801Y-54648331D01*
X44666321Y-52608769D01*
G37*
D14*
X51026836Y-57235964D03*
D13*
G36*
X50484782Y-64159488D02*
G01*
X52524344Y-64668008D01*
X52064208Y-66513510D01*
X50024646Y-66004990D01*
X50484782Y-64159488D01*
G37*
G36*
X51011273Y-52954007D02*
G01*
X53050835Y-53462527D01*
X52542315Y-55502089D01*
X50502753Y-54993569D01*
X51011273Y-52954007D01*
G37*
D14*
X48607617Y-66938922D03*
X51951877Y-62619671D03*
X41912511Y-57498818D03*
D15*
X46227132Y-61192332D03*
D16*
X44896562Y-66528958D03*
X47557702Y-55855706D03*
D17*
X47456095Y-56263230D03*
X44998169Y-66121434D03*
D14*
X42840858Y-64274677D03*
D13*
G36*
X26535066Y-130894631D02*
G01*
X28611187Y-130565806D01*
X28940012Y-132641927D01*
X26863891Y-132970752D01*
X26535066Y-130894631D01*
G37*
D14*
X28774219Y-122076788D03*
X27258850Y-128745952D03*
D13*
G36*
X27088364Y-118151183D02*
G01*
X29164485Y-117822358D01*
X29493310Y-119898479D01*
X27417189Y-120227304D01*
X27088364Y-118151183D01*
G37*
D14*
X34751238Y-119925288D03*
D13*
G36*
X36957511Y-126510222D02*
G01*
X39033632Y-126181397D01*
X39331171Y-128059980D01*
X37255050Y-128388805D01*
X36957511Y-126510222D01*
G37*
G36*
X33063818Y-115989806D02*
G01*
X35139939Y-115660981D01*
X35468764Y-117737102D01*
X33392643Y-118065927D01*
X33063818Y-115989806D01*
G37*
D14*
X36315582Y-129802171D03*
X37706324Y-124519574D03*
X26464163Y-123728496D03*
D15*
X31878963Y-125442537D03*
D16*
X32739353Y-130874823D03*
X31018573Y-120010251D03*
D17*
X31084276Y-120425080D03*
X32673650Y-130459994D03*
D14*
X29966250Y-129602973D03*
D13*
G36*
X56795945Y-94867522D02*
G01*
X56649396Y-93473202D01*
X58143167Y-93316200D01*
X58289716Y-94710520D01*
X56795945Y-94867522D01*
G37*
G36*
X53265393Y-95238598D02*
G01*
X53118844Y-93844278D01*
X54612615Y-93687276D01*
X54759164Y-95081596D01*
X53265393Y-95238598D01*
G37*
G36*
X82636497Y-97261375D02*
G01*
X82660966Y-95859589D01*
X84162737Y-95885803D01*
X84138268Y-97287589D01*
X82636497Y-97261375D01*
G37*
G36*
X79087037Y-97199419D02*
G01*
X79111506Y-95797633D01*
X80613277Y-95823847D01*
X80588808Y-97225633D01*
X79087037Y-97199419D01*
G37*
G36*
X82686185Y-115498014D02*
G01*
X82466863Y-114113275D01*
X83950371Y-113878310D01*
X84169693Y-115263049D01*
X82686185Y-115498014D01*
G37*
G36*
X79179891Y-116053356D02*
G01*
X78960569Y-114668617D01*
X80444077Y-114433652D01*
X80663399Y-115818391D01*
X79179891Y-116053356D01*
G37*
G36*
X86061898Y-133472255D02*
G01*
X85605451Y-132146638D01*
X87025620Y-131657635D01*
X87482067Y-132983252D01*
X86061898Y-133472255D01*
G37*
G36*
X82705308Y-134628021D02*
G01*
X82248861Y-133302404D01*
X83669030Y-132813401D01*
X84125477Y-134139018D01*
X82705308Y-134628021D01*
G37*
G36*
X60116465Y-125575859D02*
G01*
X62192586Y-125247034D01*
X62521411Y-127323155D01*
X60445290Y-127651980D01*
X60116465Y-125575859D01*
G37*
D14*
X62355618Y-116758016D03*
X60840249Y-123427180D03*
D13*
G36*
X60669763Y-112832411D02*
G01*
X62745884Y-112503586D01*
X63074709Y-114579707D01*
X60998588Y-114908532D01*
X60669763Y-112832411D01*
G37*
D14*
X68332637Y-114606516D03*
D13*
G36*
X70538910Y-121191450D02*
G01*
X72615031Y-120862625D01*
X72912570Y-122741208D01*
X70836449Y-123070033D01*
X70538910Y-121191450D01*
G37*
G36*
X66645217Y-110671034D02*
G01*
X68721338Y-110342209D01*
X69050163Y-112418330D01*
X66974042Y-112747155D01*
X66645217Y-110671034D01*
G37*
D14*
X69896981Y-124483399D03*
X71287723Y-119200802D03*
X60045562Y-118409724D03*
D15*
X65460362Y-120123765D03*
D16*
X66320752Y-125556051D03*
X64599972Y-114691479D03*
D17*
X64665675Y-115106308D03*
X66255049Y-125141222D03*
D14*
X63547649Y-124284201D03*
D13*
G36*
X20036226Y-90311289D02*
G01*
X22136945Y-90237930D01*
X22210304Y-92338649D01*
X20109585Y-92412008D01*
X20036226Y-90311289D01*
G37*
D14*
X23333313Y-81832057D03*
X21016472Y-88266833D03*
D13*
G36*
X22138435Y-77730259D02*
G01*
X24239154Y-77656900D01*
X24312513Y-79757619D01*
X22211794Y-79830978D01*
X22138435Y-77730259D01*
G37*
D14*
X29527982Y-80425009D03*
D13*
G36*
X30915308Y-87229737D02*
G01*
X33016027Y-87156378D01*
X33082406Y-89057219D01*
X30981687Y-89130578D01*
X30915308Y-87229737D01*
G37*
G36*
X28332754Y-76313217D02*
G01*
X30433473Y-76239858D01*
X30506832Y-78340577D01*
X28406113Y-78413936D01*
X28332754Y-76313217D01*
G37*
D14*
X29876977Y-90418917D03*
X31901139Y-85345184D03*
X20839183Y-83189928D03*
D15*
X26004733Y-85551091D03*
D16*
X26196680Y-91047741D03*
X25812786Y-80054441D03*
D17*
X25827444Y-80474186D03*
X26182022Y-90627996D03*
D14*
X23599247Y-89447415D03*
D13*
G36*
X48629054Y-133545181D02*
G01*
X48409732Y-132160442D01*
X49893240Y-131925477D01*
X50112562Y-133310216D01*
X48629054Y-133545181D01*
G37*
G36*
X45122760Y-134100523D02*
G01*
X44903438Y-132715784D01*
X46386946Y-132480819D01*
X46606268Y-133865558D01*
X45122760Y-134100523D01*
G37*
M02*
