G04 #@! TF.GenerationSoftware,KiCad,Pcbnew,(5.1.5)-3*
G04 #@! TF.CreationDate,2021-04-25T01:53:19+09:00*
G04 #@! TF.ProjectId,moon50_pcb,6d6f6f6e-3530-45f7-9063-622e6b696361,rev?*
G04 #@! TF.SameCoordinates,Original*
G04 #@! TF.FileFunction,Other,ECO2*
%FSLAX46Y46*%
G04 Gerber Fmt 4.6, Leading zero omitted, Abs format (unit mm)*
G04 Created by KiCad (PCBNEW (5.1.5)-3) date 2021-04-25 01:53:19*
%MOMM*%
%LPD*%
G04 APERTURE LIST*
%ADD10C,0.150000*%
G04 APERTURE END LIST*
D10*
X-55071428Y-10023809D02*
X-51738095Y-20023809D01*
X-48404761Y-10023809D01*
X-45071428Y-16214285D02*
X-37452380Y-16214285D01*
X-26976190Y-19071428D02*
X-27452380Y-19547619D01*
X-28880952Y-20023809D01*
X-29833333Y-20023809D01*
X-31261904Y-19547619D01*
X-32214285Y-18595238D01*
X-32690476Y-17642857D01*
X-33166666Y-15738095D01*
X-33166666Y-14309523D01*
X-32690476Y-12404761D01*
X-32214285Y-11452380D01*
X-31261904Y-10500000D01*
X-29833333Y-10023809D01*
X-28880952Y-10023809D01*
X-27452380Y-10500000D01*
X-26976190Y-10976190D01*
X-22690476Y-10023809D02*
X-22690476Y-18119047D01*
X-22214285Y-19071428D01*
X-21738095Y-19547619D01*
X-20785714Y-20023809D01*
X-18880952Y-20023809D01*
X-17928571Y-19547619D01*
X-17452380Y-19071428D01*
X-16976190Y-18119047D01*
X-16976190Y-10023809D01*
X-13642857Y-10023809D02*
X-7928571Y-10023809D01*
X-10785714Y-20023809D02*
X-10785714Y-10023809D01*
X-4000000Y-185000000D02*
X311000000Y-185000000D01*
X-55071428Y-180023809D02*
X-51738095Y-190023809D01*
X-48404761Y-180023809D01*
X-45071428Y-186214285D02*
X-37452380Y-186214285D01*
X-26976190Y-189071428D02*
X-27452380Y-189547619D01*
X-28880952Y-190023809D01*
X-29833333Y-190023809D01*
X-31261904Y-189547619D01*
X-32214285Y-188595238D01*
X-32690476Y-187642857D01*
X-33166666Y-185738095D01*
X-33166666Y-184309523D01*
X-32690476Y-182404761D01*
X-32214285Y-181452380D01*
X-31261904Y-180500000D01*
X-29833333Y-180023809D01*
X-28880952Y-180023809D01*
X-27452380Y-180500000D01*
X-26976190Y-180976190D01*
X-22690476Y-180023809D02*
X-22690476Y-188119047D01*
X-22214285Y-189071428D01*
X-21738095Y-189547619D01*
X-20785714Y-190023809D01*
X-18880952Y-190023809D01*
X-17928571Y-189547619D01*
X-17452380Y-189071428D01*
X-16976190Y-188119047D01*
X-16976190Y-180023809D01*
X-13642857Y-180023809D02*
X-7928571Y-180023809D01*
X-10785714Y-190023809D02*
X-10785714Y-180023809D01*
X-4000000Y-15000000D02*
X311000000Y-15000000D01*
M02*
